G04 #@! TF.GenerationSoftware,KiCad,Pcbnew,(6.0.10)*
G04 #@! TF.CreationDate,2023-03-10T23:15:40+01:00*
G04 #@! TF.ProjectId,VSEncoderWheel,5653456e-636f-4646-9572-576865656c2e,rev?*
G04 #@! TF.SameCoordinates,Original*
G04 #@! TF.FileFunction,Profile,NP*
%FSLAX46Y46*%
G04 Gerber Fmt 4.6, Leading zero omitted, Abs format (unit mm)*
G04 Created by KiCad (PCBNEW (6.0.10)) date 2023-03-10 23:15:40*
%MOMM*%
%LPD*%
G01*
G04 APERTURE LIST*
G04 #@! TA.AperFunction,Profile*
%ADD10C,0.150000*%
G04 #@! TD*
G04 APERTURE END LIST*
D10*
X179916729Y-98001520D02*
G75*
G03*
X179916729Y-98001520I-700000J0D01*
G01*
X170688568Y-78597468D02*
G75*
G03*
X170688568Y-78597468I-700000J0D01*
G01*
X162367175Y-73139467D02*
G75*
G03*
X162367175Y-73139467I-700000J0D01*
G01*
X158600998Y-71800967D02*
G75*
G03*
X158600998Y-71800967I-700000J0D01*
G01*
X177560532Y-111667175D02*
G75*
G03*
X177560532Y-111667175I-700000J0D01*
G01*
X178899032Y-107900998D02*
G75*
G03*
X178899032Y-107900998I-700000J0D01*
G01*
X140893050Y-127594111D02*
G75*
G03*
X140893050Y-127594111I-700000J0D01*
G01*
X170688568Y-121402531D02*
G75*
G03*
X170688568Y-121402531I-700000J0D01*
G01*
X148701520Y-129216729D02*
G75*
G03*
X148701520Y-129216729I-700000J0D01*
G01*
X164173004Y-73998281D02*
G75*
G03*
X164173004Y-73998281I-700000J0D01*
G01*
X167588083Y-123924963D02*
G75*
G03*
X167588083Y-123924963I-700000J0D01*
G01*
X130711431Y-78597468D02*
G75*
G03*
X130711431Y-78597468I-700000J0D01*
G01*
X122500967Y-107900998D02*
G75*
G03*
X122500967Y-107900998I-700000J0D01*
G01*
X167588083Y-76075036D02*
G75*
G03*
X167588083Y-76075036I-700000J0D01*
G01*
X175721672Y-115216015D02*
G75*
G03*
X175721672Y-115216015I-700000J0D01*
G01*
X176701718Y-113473004D02*
G75*
G03*
X176701718Y-113473004I-700000J0D01*
G01*
X173416705Y-81518589D02*
G75*
G03*
X173416705Y-81518589I-700000J0D01*
G01*
X173416705Y-118481410D02*
G75*
G03*
X173416705Y-118481410I-700000J0D01*
G01*
X129297468Y-119988568D02*
G75*
G03*
X129297468Y-119988568I-700000J0D01*
G01*
X160506949Y-127594111D02*
G75*
G03*
X160506949Y-127594111I-700000J0D01*
G01*
X169181410Y-122716705D02*
G75*
G03*
X169181410Y-122716705I-700000J0D01*
G01*
X139032824Y-73139467D02*
G75*
G03*
X139032824Y-73139467I-700000J0D01*
G01*
X178294111Y-90193050D02*
G75*
G03*
X178294111Y-90193050I-700000J0D01*
G01*
X174624963Y-116888083D02*
G75*
G03*
X174624963Y-116888083I-700000J0D01*
G01*
X164173004Y-126001718D02*
G75*
G03*
X164173004Y-126001718I-700000J0D01*
G01*
X123839467Y-111667175D02*
G75*
G03*
X123839467Y-111667175I-700000J0D01*
G01*
X174624963Y-83111916D02*
G75*
G03*
X174624963Y-83111916I-700000J0D01*
G01*
X126775036Y-83111916D02*
G75*
G03*
X126775036Y-83111916I-700000J0D01*
G01*
X133811916Y-123924963D02*
G75*
G03*
X133811916Y-123924963I-700000J0D01*
G01*
X123839467Y-88332824D02*
G75*
G03*
X123839467Y-88332824I-700000J0D01*
G01*
X160506949Y-72405888D02*
G75*
G03*
X160506949Y-72405888I-700000J0D01*
G01*
X121687762Y-103987640D02*
G75*
G03*
X121687762Y-103987640I-700000J0D01*
G01*
X158600998Y-128199032D02*
G75*
G03*
X158600998Y-128199032I-700000J0D01*
G01*
X178899032Y-92099001D02*
G75*
G03*
X178899032Y-92099001I-700000J0D01*
G01*
X178294111Y-109806949D02*
G75*
G03*
X178294111Y-109806949I-700000J0D01*
G01*
X176701718Y-86526995D02*
G75*
G03*
X176701718Y-86526995I-700000J0D01*
G01*
X135483984Y-125021672D02*
G75*
G03*
X135483984Y-125021672I-700000J0D01*
G01*
X132218589Y-122716705D02*
G75*
G03*
X132218589Y-122716705I-700000J0D01*
G01*
X144741790Y-128672477D02*
G75*
G03*
X144741790Y-128672477I-700000J0D01*
G01*
X121483270Y-101998479D02*
G75*
G03*
X121483270Y-101998479I-700000J0D01*
G01*
X150700000Y-70715000D02*
G75*
G03*
X150700000Y-70715000I-700000J0D01*
G01*
X165916015Y-125021672D02*
G75*
G03*
X165916015Y-125021672I-700000J0D01*
G01*
X133811916Y-76075036D02*
G75*
G03*
X133811916Y-76075036I-700000J0D01*
G01*
X121687762Y-96012359D02*
G75*
G03*
X121687762Y-96012359I-700000J0D01*
G01*
X152698479Y-129216729D02*
G75*
G03*
X152698479Y-129216729I-700000J0D01*
G01*
X177560532Y-88332824D02*
G75*
G03*
X177560532Y-88332824I-700000J0D01*
G01*
X179372477Y-94041790D02*
G75*
G03*
X179372477Y-94041790I-700000J0D01*
G01*
X124698281Y-113473004D02*
G75*
G03*
X124698281Y-113473004I-700000J0D01*
G01*
X142799001Y-128199032D02*
G75*
G03*
X142799001Y-128199032I-700000J0D01*
G01*
X127983294Y-81518589D02*
G75*
G03*
X127983294Y-81518589I-700000J0D01*
G01*
X148701520Y-70783270D02*
G75*
G03*
X148701520Y-70783270I-700000J0D01*
G01*
X129297468Y-80011431D02*
G75*
G03*
X129297468Y-80011431I-700000J0D01*
G01*
X139032824Y-126860532D02*
G75*
G03*
X139032824Y-126860532I-700000J0D01*
G01*
X135483984Y-74978327D02*
G75*
G03*
X135483984Y-74978327I-700000J0D01*
G01*
X156658209Y-128672477D02*
G75*
G03*
X156658209Y-128672477I-700000J0D01*
G01*
X176750000Y-100000000D02*
G75*
G03*
X176750000Y-100000000I-26750000J0D01*
G01*
X156658209Y-71327522D02*
G75*
G03*
X156658209Y-71327522I-700000J0D01*
G01*
X179712237Y-103987640D02*
G75*
G03*
X179712237Y-103987640I-700000J0D01*
G01*
X172102531Y-80011431D02*
G75*
G03*
X172102531Y-80011431I-700000J0D01*
G01*
X142799001Y-71800967D02*
G75*
G03*
X142799001Y-71800967I-700000J0D01*
G01*
X125678327Y-115216015D02*
G75*
G03*
X125678327Y-115216015I-700000J0D01*
G01*
X146712359Y-70987762D02*
G75*
G03*
X146712359Y-70987762I-700000J0D01*
G01*
X154687640Y-129012237D02*
G75*
G03*
X154687640Y-129012237I-700000J0D01*
G01*
X121415000Y-100000000D02*
G75*
G03*
X121415000Y-100000000I-700000J0D01*
G01*
X181750000Y-100000000D02*
G75*
G03*
X181750000Y-100000000I-31750000J0D01*
G01*
X123105888Y-90193050D02*
G75*
G03*
X123105888Y-90193050I-700000J0D01*
G01*
X122027522Y-94041790D02*
G75*
G03*
X122027522Y-94041790I-700000J0D01*
G01*
X130711431Y-121402531D02*
G75*
G03*
X130711431Y-121402531I-700000J0D01*
G01*
X125678327Y-84783984D02*
G75*
G03*
X125678327Y-84783984I-700000J0D01*
G01*
X144741790Y-71327522D02*
G75*
G03*
X144741790Y-71327522I-700000J0D01*
G01*
X179916729Y-101998479D02*
G75*
G03*
X179916729Y-101998479I-700000J0D01*
G01*
X137226995Y-126001718D02*
G75*
G03*
X137226995Y-126001718I-700000J0D01*
G01*
X123105888Y-109806949D02*
G75*
G03*
X123105888Y-109806949I-700000J0D01*
G01*
X124698281Y-86526995D02*
G75*
G03*
X124698281Y-86526995I-700000J0D01*
G01*
X179372477Y-105958209D02*
G75*
G03*
X179372477Y-105958209I-700000J0D01*
G01*
X154687640Y-70987762D02*
G75*
G03*
X154687640Y-70987762I-700000J0D01*
G01*
X169181410Y-77283294D02*
G75*
G03*
X169181410Y-77283294I-700000J0D01*
G01*
X121483270Y-98001520D02*
G75*
G03*
X121483270Y-98001520I-700000J0D01*
G01*
X150700000Y-129285000D02*
G75*
G03*
X150700000Y-129285000I-700000J0D01*
G01*
X162367175Y-126860532D02*
G75*
G03*
X162367175Y-126860532I-700000J0D01*
G01*
X152698479Y-70783270D02*
G75*
G03*
X152698479Y-70783270I-700000J0D01*
G01*
X140893050Y-72405888D02*
G75*
G03*
X140893050Y-72405888I-700000J0D01*
G01*
X122027522Y-105958209D02*
G75*
G03*
X122027522Y-105958209I-700000J0D01*
G01*
X179985000Y-100000000D02*
G75*
G03*
X179985000Y-100000000I-700000J0D01*
G01*
X122500967Y-92099001D02*
G75*
G03*
X122500967Y-92099001I-700000J0D01*
G01*
X165916015Y-74978327D02*
G75*
G03*
X165916015Y-74978327I-700000J0D01*
G01*
X146712359Y-129012237D02*
G75*
G03*
X146712359Y-129012237I-700000J0D01*
G01*
X175721672Y-84783984D02*
G75*
G03*
X175721672Y-84783984I-700000J0D01*
G01*
X127983294Y-118481410D02*
G75*
G03*
X127983294Y-118481410I-700000J0D01*
G01*
X179712237Y-96012359D02*
G75*
G03*
X179712237Y-96012359I-700000J0D01*
G01*
X172102531Y-119988568D02*
G75*
G03*
X172102531Y-119988568I-700000J0D01*
G01*
X137226995Y-73998281D02*
G75*
G03*
X137226995Y-73998281I-700000J0D01*
G01*
X132218589Y-77283294D02*
G75*
G03*
X132218589Y-77283294I-700000J0D01*
G01*
X126775036Y-116888083D02*
G75*
G03*
X126775036Y-116888083I-700000J0D01*
G01*
M02*
