G04 #@! TF.GenerationSoftware,KiCad,Pcbnew,(6.0.10)*
G04 #@! TF.CreationDate,2023-03-10T23:17:58+01:00*
G04 #@! TF.ProjectId,VSEncoderWheel,5653456e-636f-4646-9572-576865656c2e,rev?*
G04 #@! TF.SameCoordinates,Original*
G04 #@! TF.FileFunction,Profile,NP*
%FSLAX46Y46*%
G04 Gerber Fmt 4.6, Leading zero omitted, Abs format (unit mm)*
G04 Created by KiCad (PCBNEW (6.0.10)) date 2023-03-10 23:17:58*
%MOMM*%
%LPD*%
G01*
G04 APERTURE LIST*
G04 #@! TA.AperFunction,Profile*
%ADD10C,0.150000*%
G04 #@! TD*
G04 APERTURE END LIST*
D10*
X179737237Y-96012359D02*
G75*
G03*
X179737237Y-96012359I-725000J0D01*
G01*
X122052522Y-94041790D02*
G75*
G03*
X122052522Y-94041790I-725000J0D01*
G01*
X164198004Y-126001718D02*
G75*
G03*
X164198004Y-126001718I-725000J0D01*
G01*
X129322468Y-80011431D02*
G75*
G03*
X129322468Y-80011431I-725000J0D01*
G01*
X133836916Y-123924963D02*
G75*
G03*
X133836916Y-123924963I-725000J0D01*
G01*
X139057824Y-126860532D02*
G75*
G03*
X139057824Y-126860532I-725000J0D01*
G01*
X178319111Y-109806949D02*
G75*
G03*
X178319111Y-109806949I-725000J0D01*
G01*
X170713568Y-121402531D02*
G75*
G03*
X170713568Y-121402531I-725000J0D01*
G01*
X181750000Y-100000000D02*
G75*
G03*
X181750000Y-100000000I-31750000J0D01*
G01*
X176726718Y-113473004D02*
G75*
G03*
X176726718Y-113473004I-725000J0D01*
G01*
X173441705Y-81518589D02*
G75*
G03*
X173441705Y-81518589I-725000J0D01*
G01*
X178924032Y-107900998D02*
G75*
G03*
X178924032Y-107900998I-725000J0D01*
G01*
X152723479Y-70783270D02*
G75*
G03*
X152723479Y-70783270I-725000J0D01*
G01*
X121508270Y-101998479D02*
G75*
G03*
X121508270Y-101998479I-725000J0D01*
G01*
X178924032Y-92099001D02*
G75*
G03*
X178924032Y-92099001I-725000J0D01*
G01*
X174649963Y-83111916D02*
G75*
G03*
X174649963Y-83111916I-725000J0D01*
G01*
X167613083Y-76075036D02*
G75*
G03*
X167613083Y-76075036I-725000J0D01*
G01*
X122525967Y-107900998D02*
G75*
G03*
X122525967Y-107900998I-725000J0D01*
G01*
X160531949Y-72405888D02*
G75*
G03*
X160531949Y-72405888I-725000J0D01*
G01*
X179941729Y-101998479D02*
G75*
G03*
X179941729Y-101998479I-725000J0D01*
G01*
X126800036Y-83111916D02*
G75*
G03*
X126800036Y-83111916I-725000J0D01*
G01*
X121712762Y-103987640D02*
G75*
G03*
X121712762Y-103987640I-725000J0D01*
G01*
X135508984Y-125021672D02*
G75*
G03*
X135508984Y-125021672I-725000J0D01*
G01*
X129322468Y-119988568D02*
G75*
G03*
X129322468Y-119988568I-725000J0D01*
G01*
X124723281Y-86526995D02*
G75*
G03*
X124723281Y-86526995I-725000J0D01*
G01*
X123130888Y-109806949D02*
G75*
G03*
X123130888Y-109806949I-725000J0D01*
G01*
X130736431Y-78597468D02*
G75*
G03*
X130736431Y-78597468I-725000J0D01*
G01*
X150725000Y-70715000D02*
G75*
G03*
X150725000Y-70715000I-725000J0D01*
G01*
X179941729Y-98001520D02*
G75*
G03*
X179941729Y-98001520I-725000J0D01*
G01*
X156683209Y-128672477D02*
G75*
G03*
X156683209Y-128672477I-725000J0D01*
G01*
X177585532Y-111667175D02*
G75*
G03*
X177585532Y-111667175I-725000J0D01*
G01*
X128008294Y-118481410D02*
G75*
G03*
X128008294Y-118481410I-725000J0D01*
G01*
X121508270Y-98001520D02*
G75*
G03*
X121508270Y-98001520I-725000J0D01*
G01*
X176750000Y-100000000D02*
G75*
G03*
X176750000Y-100000000I-26750000J0D01*
G01*
X174649963Y-116888083D02*
G75*
G03*
X174649963Y-116888083I-725000J0D01*
G01*
X142824001Y-71800967D02*
G75*
G03*
X142824001Y-71800967I-725000J0D01*
G01*
X156683209Y-71327522D02*
G75*
G03*
X156683209Y-71327522I-725000J0D01*
G01*
X123130888Y-90193050D02*
G75*
G03*
X123130888Y-90193050I-725000J0D01*
G01*
X140918050Y-72405888D02*
G75*
G03*
X140918050Y-72405888I-725000J0D01*
G01*
X132243589Y-77283294D02*
G75*
G03*
X132243589Y-77283294I-725000J0D01*
G01*
X122052522Y-105958209D02*
G75*
G03*
X122052522Y-105958209I-725000J0D01*
G01*
X169206410Y-77283294D02*
G75*
G03*
X169206410Y-77283294I-725000J0D01*
G01*
X162392175Y-126860532D02*
G75*
G03*
X162392175Y-126860532I-725000J0D01*
G01*
X158625998Y-128199032D02*
G75*
G03*
X158625998Y-128199032I-725000J0D01*
G01*
X121440000Y-100000000D02*
G75*
G03*
X121440000Y-100000000I-725000J0D01*
G01*
X144766790Y-71327522D02*
G75*
G03*
X144766790Y-71327522I-725000J0D01*
G01*
X154712640Y-70987762D02*
G75*
G03*
X154712640Y-70987762I-725000J0D01*
G01*
X172127531Y-119988568D02*
G75*
G03*
X172127531Y-119988568I-725000J0D01*
G01*
X144766790Y-128672477D02*
G75*
G03*
X144766790Y-128672477I-725000J0D01*
G01*
X146737359Y-129012237D02*
G75*
G03*
X146737359Y-129012237I-725000J0D01*
G01*
X179397477Y-94041790D02*
G75*
G03*
X179397477Y-94041790I-725000J0D01*
G01*
X180010000Y-100000000D02*
G75*
G03*
X180010000Y-100000000I-725000J0D01*
G01*
X158625998Y-71800967D02*
G75*
G03*
X158625998Y-71800967I-725000J0D01*
G01*
X154712640Y-129012237D02*
G75*
G03*
X154712640Y-129012237I-725000J0D01*
G01*
X179397477Y-105958209D02*
G75*
G03*
X179397477Y-105958209I-725000J0D01*
G01*
X175746672Y-115216015D02*
G75*
G03*
X175746672Y-115216015I-725000J0D01*
G01*
X173441705Y-118481410D02*
G75*
G03*
X173441705Y-118481410I-725000J0D01*
G01*
X122525967Y-92099001D02*
G75*
G03*
X122525967Y-92099001I-725000J0D01*
G01*
X176726718Y-86526995D02*
G75*
G03*
X176726718Y-86526995I-725000J0D01*
G01*
X164198004Y-73998281D02*
G75*
G03*
X164198004Y-73998281I-725000J0D01*
G01*
X139057824Y-73139467D02*
G75*
G03*
X139057824Y-73139467I-725000J0D01*
G01*
X137251995Y-73998281D02*
G75*
G03*
X137251995Y-73998281I-725000J0D01*
G01*
X135508984Y-74978327D02*
G75*
G03*
X135508984Y-74978327I-725000J0D01*
G01*
X126800036Y-116888083D02*
G75*
G03*
X126800036Y-116888083I-725000J0D01*
G01*
X128008294Y-81518589D02*
G75*
G03*
X128008294Y-81518589I-725000J0D01*
G01*
X142824001Y-128199032D02*
G75*
G03*
X142824001Y-128199032I-725000J0D01*
G01*
X123864467Y-88332824D02*
G75*
G03*
X123864467Y-88332824I-725000J0D01*
G01*
X124723281Y-113473004D02*
G75*
G03*
X124723281Y-113473004I-725000J0D01*
G01*
X123864467Y-111667175D02*
G75*
G03*
X123864467Y-111667175I-725000J0D01*
G01*
X146737359Y-70987762D02*
G75*
G03*
X146737359Y-70987762I-725000J0D01*
G01*
X132243589Y-122716705D02*
G75*
G03*
X132243589Y-122716705I-725000J0D01*
G01*
X125703327Y-115216015D02*
G75*
G03*
X125703327Y-115216015I-725000J0D01*
G01*
X160531949Y-127594111D02*
G75*
G03*
X160531949Y-127594111I-725000J0D01*
G01*
X125703327Y-84783984D02*
G75*
G03*
X125703327Y-84783984I-725000J0D01*
G01*
X172127531Y-80011431D02*
G75*
G03*
X172127531Y-80011431I-725000J0D01*
G01*
X178319111Y-90193050D02*
G75*
G03*
X178319111Y-90193050I-725000J0D01*
G01*
X179737237Y-103987640D02*
G75*
G03*
X179737237Y-103987640I-725000J0D01*
G01*
X165941015Y-74978327D02*
G75*
G03*
X165941015Y-74978327I-725000J0D01*
G01*
X130736431Y-121402531D02*
G75*
G03*
X130736431Y-121402531I-725000J0D01*
G01*
X169206410Y-122716705D02*
G75*
G03*
X169206410Y-122716705I-725000J0D01*
G01*
X137251995Y-126001718D02*
G75*
G03*
X137251995Y-126001718I-725000J0D01*
G01*
X170713568Y-78597468D02*
G75*
G03*
X170713568Y-78597468I-725000J0D01*
G01*
X177585532Y-88332824D02*
G75*
G03*
X177585532Y-88332824I-725000J0D01*
G01*
X148726520Y-129216729D02*
G75*
G03*
X148726520Y-129216729I-725000J0D01*
G01*
X167613083Y-123924963D02*
G75*
G03*
X167613083Y-123924963I-725000J0D01*
G01*
X133836916Y-76075036D02*
G75*
G03*
X133836916Y-76075036I-725000J0D01*
G01*
X162392175Y-73139467D02*
G75*
G03*
X162392175Y-73139467I-725000J0D01*
G01*
X121712762Y-96012359D02*
G75*
G03*
X121712762Y-96012359I-725000J0D01*
G01*
X175746672Y-84783984D02*
G75*
G03*
X175746672Y-84783984I-725000J0D01*
G01*
X140918050Y-127594111D02*
G75*
G03*
X140918050Y-127594111I-725000J0D01*
G01*
X148726520Y-70783270D02*
G75*
G03*
X148726520Y-70783270I-725000J0D01*
G01*
X150725000Y-129285000D02*
G75*
G03*
X150725000Y-129285000I-725000J0D01*
G01*
X165941015Y-125021672D02*
G75*
G03*
X165941015Y-125021672I-725000J0D01*
G01*
X152723479Y-129216729D02*
G75*
G03*
X152723479Y-129216729I-725000J0D01*
G01*
M02*
