%TF.GenerationSoftware,KiCad,Pcbnew,6.0.11-2627ca5db0~126~ubuntu20.04.1*%
%TF.CreationDate,2023-02-18T22:37:03+01:00*%
%TF.ProjectId,VSEncoderWheel,5653456e-636f-4646-9572-576865656c2e,rev?*%
%TF.SameCoordinates,Original*%
%TF.FileFunction,Profile,NP*%
%FSLAX46Y46*%
G04 Gerber Fmt 4.6, Leading zero omitted, Abs format (unit mm)*
G04 Created by KiCad (PCBNEW 6.0.11-2627ca5db0~126~ubuntu20.04.1) date 2023-02-18 22:37:03*
%MOMM*%
%LPD*%
G01*
G04 APERTURE LIST*
%TA.AperFunction,Profile*%
%ADD10C,0.150000*%
%TD*%
G04 APERTURE END LIST*
D10*
X121737762Y-96012359D02*
G75*
G03*
X121737762Y-96012359I-750000J0D01*
G01*
X121737762Y-103987640D02*
G75*
G03*
X121737762Y-103987640I-750000J0D01*
G01*
X172152531Y-80011431D02*
G75*
G03*
X172152531Y-80011431I-750000J0D01*
G01*
X137276995Y-73998281D02*
G75*
G03*
X137276995Y-73998281I-750000J0D01*
G01*
X148751520Y-129216729D02*
G75*
G03*
X148751520Y-129216729I-750000J0D01*
G01*
X124748281Y-86526995D02*
G75*
G03*
X124748281Y-86526995I-750000J0D01*
G01*
X156708209Y-71327522D02*
G75*
G03*
X156708209Y-71327522I-750000J0D01*
G01*
X177610532Y-111667175D02*
G75*
G03*
X177610532Y-111667175I-750000J0D01*
G01*
X125728327Y-115216015D02*
G75*
G03*
X125728327Y-115216015I-750000J0D01*
G01*
X123889467Y-111667175D02*
G75*
G03*
X123889467Y-111667175I-750000J0D01*
G01*
X162417175Y-126860532D02*
G75*
G03*
X162417175Y-126860532I-750000J0D01*
G01*
X165966015Y-74978327D02*
G75*
G03*
X165966015Y-74978327I-750000J0D01*
G01*
X177610532Y-88332824D02*
G75*
G03*
X177610532Y-88332824I-750000J0D01*
G01*
X178344111Y-109806949D02*
G75*
G03*
X178344111Y-109806949I-750000J0D01*
G01*
X125728327Y-84783984D02*
G75*
G03*
X125728327Y-84783984I-750000J0D01*
G01*
X122077522Y-105958209D02*
G75*
G03*
X122077522Y-105958209I-750000J0D01*
G01*
X129347468Y-80011431D02*
G75*
G03*
X129347468Y-80011431I-750000J0D01*
G01*
X174674963Y-83111916D02*
G75*
G03*
X174674963Y-83111916I-750000J0D01*
G01*
X176751718Y-113473004D02*
G75*
G03*
X176751718Y-113473004I-750000J0D01*
G01*
X173466705Y-81518589D02*
G75*
G03*
X173466705Y-81518589I-750000J0D01*
G01*
X129347468Y-119988568D02*
G75*
G03*
X129347468Y-119988568I-750000J0D01*
G01*
X140943050Y-127594111D02*
G75*
G03*
X140943050Y-127594111I-750000J0D01*
G01*
X179422477Y-105958209D02*
G75*
G03*
X179422477Y-105958209I-750000J0D01*
G01*
X178949032Y-92099001D02*
G75*
G03*
X178949032Y-92099001I-750000J0D01*
G01*
X135533984Y-125021672D02*
G75*
G03*
X135533984Y-125021672I-750000J0D01*
G01*
X181750000Y-100000000D02*
G75*
G03*
X181750000Y-100000000I-31750000J0D01*
G01*
X132268589Y-77283294D02*
G75*
G03*
X132268589Y-77283294I-750000J0D01*
G01*
X122077522Y-94041790D02*
G75*
G03*
X122077522Y-94041790I-750000J0D01*
G01*
X164223004Y-73998281D02*
G75*
G03*
X164223004Y-73998281I-750000J0D01*
G01*
X169231410Y-77283294D02*
G75*
G03*
X169231410Y-77283294I-750000J0D01*
G01*
X160556949Y-72405888D02*
G75*
G03*
X160556949Y-72405888I-750000J0D01*
G01*
X158650998Y-71800967D02*
G75*
G03*
X158650998Y-71800967I-750000J0D01*
G01*
X156708209Y-128672477D02*
G75*
G03*
X156708209Y-128672477I-750000J0D01*
G01*
X124748281Y-113473004D02*
G75*
G03*
X124748281Y-113473004I-750000J0D01*
G01*
X173466705Y-118481410D02*
G75*
G03*
X173466705Y-118481410I-750000J0D01*
G01*
X180035000Y-100000000D02*
G75*
G03*
X180035000Y-100000000I-750000J0D01*
G01*
X123155888Y-90193050D02*
G75*
G03*
X123155888Y-90193050I-750000J0D01*
G01*
X176750000Y-100000000D02*
G75*
G03*
X176750000Y-100000000I-26750000J0D01*
G01*
X126825036Y-83111916D02*
G75*
G03*
X126825036Y-83111916I-750000J0D01*
G01*
X148751520Y-70783270D02*
G75*
G03*
X148751520Y-70783270I-750000J0D01*
G01*
X130761431Y-121402531D02*
G75*
G03*
X130761431Y-121402531I-750000J0D01*
G01*
X121533270Y-101998479D02*
G75*
G03*
X121533270Y-101998479I-750000J0D01*
G01*
X122550967Y-107900998D02*
G75*
G03*
X122550967Y-107900998I-750000J0D01*
G01*
X162417175Y-73139467D02*
G75*
G03*
X162417175Y-73139467I-750000J0D01*
G01*
X142849001Y-128199032D02*
G75*
G03*
X142849001Y-128199032I-750000J0D01*
G01*
X170738568Y-121402531D02*
G75*
G03*
X170738568Y-121402531I-750000J0D01*
G01*
X179762237Y-103987640D02*
G75*
G03*
X179762237Y-103987640I-750000J0D01*
G01*
X154737640Y-70987762D02*
G75*
G03*
X154737640Y-70987762I-750000J0D01*
G01*
X174674963Y-116888083D02*
G75*
G03*
X174674963Y-116888083I-750000J0D01*
G01*
X167638083Y-123924963D02*
G75*
G03*
X167638083Y-123924963I-750000J0D01*
G01*
X178344111Y-90193050D02*
G75*
G03*
X178344111Y-90193050I-750000J0D01*
G01*
X146762359Y-70987762D02*
G75*
G03*
X146762359Y-70987762I-750000J0D01*
G01*
X133861916Y-76075036D02*
G75*
G03*
X133861916Y-76075036I-750000J0D01*
G01*
X169231410Y-122716705D02*
G75*
G03*
X169231410Y-122716705I-750000J0D01*
G01*
X167638083Y-76075036D02*
G75*
G03*
X167638083Y-76075036I-750000J0D01*
G01*
X139082824Y-126860532D02*
G75*
G03*
X139082824Y-126860532I-750000J0D01*
G01*
X175771672Y-84783984D02*
G75*
G03*
X175771672Y-84783984I-750000J0D01*
G01*
X135533984Y-74978327D02*
G75*
G03*
X135533984Y-74978327I-750000J0D01*
G01*
X179966729Y-101998479D02*
G75*
G03*
X179966729Y-101998479I-750000J0D01*
G01*
X179762237Y-96012359D02*
G75*
G03*
X179762237Y-96012359I-750000J0D01*
G01*
X164223004Y-126001718D02*
G75*
G03*
X164223004Y-126001718I-750000J0D01*
G01*
X139082824Y-73139467D02*
G75*
G03*
X139082824Y-73139467I-750000J0D01*
G01*
X121533270Y-98001520D02*
G75*
G03*
X121533270Y-98001520I-750000J0D01*
G01*
X158650998Y-128199032D02*
G75*
G03*
X158650998Y-128199032I-750000J0D01*
G01*
X140943050Y-72405888D02*
G75*
G03*
X140943050Y-72405888I-750000J0D01*
G01*
X137276995Y-126001718D02*
G75*
G03*
X137276995Y-126001718I-750000J0D01*
G01*
X165966015Y-125021672D02*
G75*
G03*
X165966015Y-125021672I-750000J0D01*
G01*
X179966729Y-98001520D02*
G75*
G03*
X179966729Y-98001520I-750000J0D01*
G01*
X178949032Y-107900998D02*
G75*
G03*
X178949032Y-107900998I-750000J0D01*
G01*
X175771672Y-115216015D02*
G75*
G03*
X175771672Y-115216015I-750000J0D01*
G01*
X176751718Y-86526995D02*
G75*
G03*
X176751718Y-86526995I-750000J0D01*
G01*
X121465000Y-100000000D02*
G75*
G03*
X121465000Y-100000000I-750000J0D01*
G01*
X179422477Y-94041790D02*
G75*
G03*
X179422477Y-94041790I-750000J0D01*
G01*
X123889467Y-88332824D02*
G75*
G03*
X123889467Y-88332824I-750000J0D01*
G01*
X152748479Y-129216729D02*
G75*
G03*
X152748479Y-129216729I-750000J0D01*
G01*
X132268589Y-122716705D02*
G75*
G03*
X132268589Y-122716705I-750000J0D01*
G01*
X123155888Y-109806949D02*
G75*
G03*
X123155888Y-109806949I-750000J0D01*
G01*
X128033294Y-81518589D02*
G75*
G03*
X128033294Y-81518589I-750000J0D01*
G01*
X128033294Y-118481410D02*
G75*
G03*
X128033294Y-118481410I-750000J0D01*
G01*
X150750000Y-129285000D02*
G75*
G03*
X150750000Y-129285000I-750000J0D01*
G01*
X133861916Y-123924963D02*
G75*
G03*
X133861916Y-123924963I-750000J0D01*
G01*
X152748479Y-70783270D02*
G75*
G03*
X152748479Y-70783270I-750000J0D01*
G01*
X144791790Y-71327522D02*
G75*
G03*
X144791790Y-71327522I-750000J0D01*
G01*
X130761431Y-78597468D02*
G75*
G03*
X130761431Y-78597468I-750000J0D01*
G01*
X146762359Y-129012237D02*
G75*
G03*
X146762359Y-129012237I-750000J0D01*
G01*
X142849001Y-71800967D02*
G75*
G03*
X142849001Y-71800967I-750000J0D01*
G01*
X154737640Y-129012237D02*
G75*
G03*
X154737640Y-129012237I-750000J0D01*
G01*
X150750000Y-70715000D02*
G75*
G03*
X150750000Y-70715000I-750000J0D01*
G01*
X122550967Y-92099001D02*
G75*
G03*
X122550967Y-92099001I-750000J0D01*
G01*
X170738568Y-78597468D02*
G75*
G03*
X170738568Y-78597468I-750000J0D01*
G01*
X144791790Y-128672477D02*
G75*
G03*
X144791790Y-128672477I-750000J0D01*
G01*
X160556949Y-127594111D02*
G75*
G03*
X160556949Y-127594111I-750000J0D01*
G01*
X172152531Y-119988568D02*
G75*
G03*
X172152531Y-119988568I-750000J0D01*
G01*
X126825036Y-116888083D02*
G75*
G03*
X126825036Y-116888083I-750000J0D01*
G01*
M02*
