%TF.GenerationSoftware,KiCad,Pcbnew,6.0.11-2627ca5db0~126~ubuntu20.04.1*%
%TF.CreationDate,2023-02-18T22:37:03+01:00*%
%TF.ProjectId,VSEncoderWheel,5653456e-636f-4646-9572-576865656c2e,rev?*%
%TF.SameCoordinates,Original*%
%TF.FileFunction,Legend,Top*%
%TF.FilePolarity,Positive*%
%FSLAX46Y46*%
G04 Gerber Fmt 4.6, Leading zero omitted, Abs format (unit mm)*
G04 Created by KiCad (PCBNEW 6.0.11-2627ca5db0~126~ubuntu20.04.1) date 2023-02-18 22:37:03*
%MOMM*%
%LPD*%
G01*
G04 APERTURE LIST*
%ADD10C,0.150000*%
G04 APERTURE END LIST*
D10*
X150000000Y-129285000D02*
X150000000Y-131750000D01*
X151825484Y-73312360D02*
X151998479Y-70783270D01*
X125464597Y-110657229D02*
X123139467Y-111667175D01*
X127144280Y-113898870D02*
X124978327Y-115216015D01*
X176500849Y-96357542D02*
X179012237Y-96012359D01*
X123499150Y-103642457D02*
X120987762Y-103987640D01*
X129249722Y-83118397D02*
X127283294Y-81518589D01*
X176500849Y-103642457D02*
X179012237Y-103987640D01*
X179285000Y-100000000D02*
X181750000Y-100000000D01*
X123250000Y-100000000D02*
X120715000Y-100000000D01*
X129249722Y-116881602D02*
X127283294Y-118481410D01*
X120715000Y-100000000D02*
X118250000Y-100000000D01*
X134573801Y-78146055D02*
X133111916Y-76075036D01*
X124241962Y-107217063D02*
X121800967Y-107900998D01*
X158958029Y-125205479D02*
X159806949Y-127594111D01*
X162306739Y-76249070D02*
X163473004Y-73998281D01*
X134573801Y-121853944D02*
X133111916Y-123924963D01*
X155442448Y-126190499D02*
X155958209Y-128672477D01*
X141041970Y-125205479D02*
X140193050Y-127594111D01*
X174535402Y-110657229D02*
X176860532Y-111667175D01*
X170750277Y-116881602D02*
X172716705Y-118481410D01*
X165426198Y-78146055D02*
X166888083Y-76075036D01*
X125464597Y-89342770D02*
X123139467Y-88332824D01*
X168258296Y-119549862D02*
X169988568Y-121402531D01*
X175758037Y-107217063D02*
X178199032Y-107900998D01*
X131741703Y-119549862D02*
X130011431Y-121402531D01*
X170750277Y-83118397D02*
X172716705Y-81518589D01*
X176750000Y-100000000D02*
X179285000Y-100000000D01*
X155442448Y-73809500D02*
X155958209Y-71327522D01*
X141041970Y-74794520D02*
X140193050Y-72405888D01*
X137693260Y-123750929D02*
X136526995Y-126001718D01*
X172855719Y-113898870D02*
X175021672Y-115216015D01*
X144557551Y-126190499D02*
X144041790Y-128672477D01*
X148174515Y-73312360D02*
X148001520Y-70783270D01*
X151825484Y-126687639D02*
X151998479Y-129216729D01*
X148174515Y-126687639D02*
X148001520Y-129216729D01*
X172855719Y-86101129D02*
X175021672Y-84783984D01*
X137693260Y-76249070D02*
X136526995Y-73998281D01*
X168258296Y-80450137D02*
X169988568Y-78597468D01*
X158958029Y-74794520D02*
X159806949Y-72405888D01*
X127144280Y-86101129D02*
X124978327Y-84783984D01*
X165426198Y-121853944D02*
X166888083Y-123924963D01*
X131741703Y-80450137D02*
X130011431Y-78597468D01*
X175758037Y-92782936D02*
X178199032Y-92099001D01*
X174535402Y-89342770D02*
X176860532Y-88332824D01*
X150000000Y-70715000D02*
X150000000Y-68250000D01*
X124241962Y-92782936D02*
X121800967Y-92099001D01*
X144557551Y-73809500D02*
X144041790Y-71327522D01*
X123499150Y-96357542D02*
X120987762Y-96012359D01*
X162306739Y-123750929D02*
X163473004Y-126001718D01*
M02*
