%TF.GenerationSoftware,KiCad,Pcbnew,6.0.11-2627ca5db0~126~ubuntu20.04.1*%
%TF.CreationDate,2023-02-18T22:37:03+01:00*%
%TF.ProjectId,VSEncoderWheel,5653456e-636f-4646-9572-576865656c2e,rev?*%
%TF.SameCoordinates,Original*%
%TF.FileFunction,Copper,L1,Top*%
%TF.FilePolarity,Positive*%
%FSLAX46Y46*%
G04 Gerber Fmt 4.6, Leading zero omitted, Abs format (unit mm)*
G04 Created by KiCad (PCBNEW 6.0.11-2627ca5db0~126~ubuntu20.04.1) date 2023-02-18 22:37:03*
%MOMM*%
%LPD*%
G01*
G04 APERTURE LIST*
G04 APERTURE END LIST*
%TA.AperFunction,NonConductor*%
G36*
X149078927Y-71589816D02*
G01*
X149123990Y-71618777D01*
X149187962Y-71682749D01*
X149192471Y-71685906D01*
X149192473Y-71685908D01*
X149239752Y-71719013D01*
X149368346Y-71809056D01*
X149567924Y-71902120D01*
X149780629Y-71959115D01*
X150000000Y-71978307D01*
X150219371Y-71959115D01*
X150432076Y-71902120D01*
X150631654Y-71809056D01*
X150760248Y-71719013D01*
X150807527Y-71685908D01*
X150807529Y-71685906D01*
X150812038Y-71682749D01*
X150876010Y-71618777D01*
X150938323Y-71584752D01*
X151009138Y-71589818D01*
X151054200Y-71618778D01*
X151186441Y-71751019D01*
X151190947Y-71754174D01*
X151190952Y-71754178D01*
X151264817Y-71805899D01*
X151366825Y-71877326D01*
X151566403Y-71970390D01*
X151779108Y-72027385D01*
X151998479Y-72046577D01*
X152217850Y-72027385D01*
X152430555Y-71970390D01*
X152630133Y-71877326D01*
X152732141Y-71805899D01*
X152806012Y-71754174D01*
X152806016Y-71754171D01*
X152810517Y-71751019D01*
X152814408Y-71747128D01*
X152815273Y-71746402D01*
X152880312Y-71717935D01*
X152950417Y-71729150D01*
X152999480Y-71770650D01*
X153019891Y-71799800D01*
X153175602Y-71955511D01*
X153180111Y-71958668D01*
X153180113Y-71958670D01*
X153207718Y-71977999D01*
X153355986Y-72081818D01*
X153555564Y-72174882D01*
X153768269Y-72231877D01*
X153987640Y-72251069D01*
X154207011Y-72231877D01*
X154419716Y-72174882D01*
X154619294Y-72081818D01*
X154738007Y-71998694D01*
X154805280Y-71976006D01*
X154874140Y-71993291D01*
X154913490Y-72029636D01*
X154951657Y-72084143D01*
X154990460Y-72139560D01*
X155146171Y-72295271D01*
X155150680Y-72298428D01*
X155150682Y-72298430D01*
X155192097Y-72327429D01*
X155326555Y-72421578D01*
X155526133Y-72514642D01*
X155738838Y-72571637D01*
X155958209Y-72590829D01*
X156177580Y-72571637D01*
X156390285Y-72514642D01*
X156589863Y-72421578D01*
X156594372Y-72418421D01*
X156594377Y-72418418D01*
X156627666Y-72395109D01*
X156694940Y-72372421D01*
X156763800Y-72389706D01*
X156806608Y-72432854D01*
X156806942Y-72432620D01*
X156933249Y-72613005D01*
X157088960Y-72768716D01*
X157269344Y-72895023D01*
X157468922Y-72988087D01*
X157681627Y-73045082D01*
X157900998Y-73064274D01*
X158120369Y-73045082D01*
X158333074Y-72988087D01*
X158511919Y-72904691D01*
X158582110Y-72894030D01*
X158646923Y-72923010D01*
X158679363Y-72965636D01*
X158710567Y-73032554D01*
X158710570Y-73032559D01*
X158712893Y-73037541D01*
X158716049Y-73042048D01*
X158716050Y-73042050D01*
X158814287Y-73182346D01*
X158839200Y-73217926D01*
X158994911Y-73373637D01*
X159175295Y-73499944D01*
X159374873Y-73593008D01*
X159587578Y-73650003D01*
X159806949Y-73669195D01*
X160026320Y-73650003D01*
X160239025Y-73593008D01*
X160244007Y-73590685D01*
X160244015Y-73590682D01*
X160331033Y-73550105D01*
X160401224Y-73539444D01*
X160466037Y-73568424D01*
X160498477Y-73611050D01*
X160570793Y-73766133D01*
X160570796Y-73766138D01*
X160573119Y-73771120D01*
X160576275Y-73775627D01*
X160576276Y-73775629D01*
X160692369Y-73941426D01*
X160699426Y-73951505D01*
X160855137Y-74107216D01*
X161035521Y-74233523D01*
X161235099Y-74326587D01*
X161447804Y-74383582D01*
X161667175Y-74402774D01*
X161886546Y-74383582D01*
X162099251Y-74326587D01*
X162104236Y-74324262D01*
X162104240Y-74324261D01*
X162104343Y-74324213D01*
X162104393Y-74324205D01*
X162109405Y-74322381D01*
X162109772Y-74323388D01*
X162174534Y-74313550D01*
X162239348Y-74342528D01*
X162279303Y-74405797D01*
X162284459Y-74425042D01*
X162284462Y-74425051D01*
X162285884Y-74430357D01*
X162288207Y-74435338D01*
X162288207Y-74435339D01*
X162376622Y-74624947D01*
X162376625Y-74624952D01*
X162378948Y-74629934D01*
X162382104Y-74634441D01*
X162382105Y-74634443D01*
X162467599Y-74756540D01*
X162505255Y-74810319D01*
X162660966Y-74966030D01*
X162665475Y-74969187D01*
X162665477Y-74969189D01*
X162686825Y-74984137D01*
X162841350Y-75092337D01*
X163040928Y-75185401D01*
X163253633Y-75242396D01*
X163473004Y-75261588D01*
X163692375Y-75242396D01*
X163697687Y-75240972D01*
X163697696Y-75240971D01*
X163842642Y-75202132D01*
X163913618Y-75203821D01*
X163972415Y-75243614D01*
X163996960Y-75291226D01*
X164027468Y-75405081D01*
X164027472Y-75405091D01*
X164028895Y-75410403D01*
X164072430Y-75503765D01*
X164119633Y-75604993D01*
X164119636Y-75604998D01*
X164121959Y-75609980D01*
X164125115Y-75614487D01*
X164125116Y-75614489D01*
X164190623Y-75708042D01*
X164248266Y-75790365D01*
X164403977Y-75946076D01*
X164584361Y-76072383D01*
X164783939Y-76165447D01*
X164996644Y-76222442D01*
X165216015Y-76241634D01*
X165435386Y-76222442D01*
X165490298Y-76207728D01*
X165561273Y-76209418D01*
X165620069Y-76249212D01*
X165644614Y-76296823D01*
X165699536Y-76501790D01*
X165699540Y-76501800D01*
X165700963Y-76507112D01*
X165703288Y-76512097D01*
X165791701Y-76701702D01*
X165791704Y-76701707D01*
X165794027Y-76706689D01*
X165797183Y-76711196D01*
X165797184Y-76711198D01*
X165891737Y-76846233D01*
X165920334Y-76887074D01*
X166076045Y-77042785D01*
X166080554Y-77045942D01*
X166080556Y-77045944D01*
X166100883Y-77060177D01*
X166256429Y-77169092D01*
X166456007Y-77262156D01*
X166668712Y-77319151D01*
X166888083Y-77338343D01*
X167094856Y-77320253D01*
X167164459Y-77334242D01*
X167215452Y-77383642D01*
X167231357Y-77434792D01*
X167237295Y-77502665D01*
X167294290Y-77715370D01*
X167329063Y-77789941D01*
X167385028Y-77909960D01*
X167385031Y-77909965D01*
X167387354Y-77914947D01*
X167390510Y-77919454D01*
X167390511Y-77919456D01*
X167476352Y-78042049D01*
X167513661Y-78095332D01*
X167669372Y-78251043D01*
X167849756Y-78377350D01*
X168049334Y-78470414D01*
X168262039Y-78527409D01*
X168481410Y-78546601D01*
X168593472Y-78536797D01*
X168663076Y-78550786D01*
X168714069Y-78600186D01*
X168729974Y-78651336D01*
X168744453Y-78816839D01*
X168801448Y-79029544D01*
X168803773Y-79034529D01*
X168892186Y-79224134D01*
X168892189Y-79224139D01*
X168894512Y-79229121D01*
X169020819Y-79409506D01*
X169176530Y-79565217D01*
X169181039Y-79568374D01*
X169181041Y-79568376D01*
X169196721Y-79579355D01*
X169356914Y-79691524D01*
X169556492Y-79784588D01*
X169769197Y-79841583D01*
X169988568Y-79860775D01*
X169994043Y-79860296D01*
X170004079Y-79859418D01*
X170073683Y-79873407D01*
X170124676Y-79922807D01*
X170140581Y-79995920D01*
X170139224Y-80011431D01*
X170158416Y-80230802D01*
X170215411Y-80443507D01*
X170217736Y-80448492D01*
X170306149Y-80638097D01*
X170306152Y-80638102D01*
X170308475Y-80643084D01*
X170311631Y-80647591D01*
X170311632Y-80647593D01*
X170356074Y-80711062D01*
X170434782Y-80823469D01*
X170590493Y-80979180D01*
X170595002Y-80982337D01*
X170595004Y-80982339D01*
X170669772Y-81034692D01*
X170770877Y-81105487D01*
X170970455Y-81198551D01*
X171183160Y-81255546D01*
X171348663Y-81270025D01*
X171414781Y-81295888D01*
X171456420Y-81353392D01*
X171463202Y-81406527D01*
X171453398Y-81518589D01*
X171472590Y-81737960D01*
X171529585Y-81950665D01*
X171562391Y-82021017D01*
X171620323Y-82145255D01*
X171620326Y-82145260D01*
X171622649Y-82150242D01*
X171625805Y-82154749D01*
X171625806Y-82154751D01*
X171724697Y-82295981D01*
X171748956Y-82330627D01*
X171904667Y-82486338D01*
X172085051Y-82612645D01*
X172284629Y-82705709D01*
X172497334Y-82762704D01*
X172524632Y-82765092D01*
X172565207Y-82768642D01*
X172631325Y-82794505D01*
X172672964Y-82852009D01*
X172679746Y-82905143D01*
X172661656Y-83111916D01*
X172680848Y-83331287D01*
X172737843Y-83543992D01*
X172740168Y-83548977D01*
X172828581Y-83738582D01*
X172828584Y-83738587D01*
X172830907Y-83743569D01*
X172957214Y-83923954D01*
X173112925Y-84079665D01*
X173117434Y-84082822D01*
X173117436Y-84082824D01*
X173129931Y-84091573D01*
X173293309Y-84205972D01*
X173492887Y-84299036D01*
X173498199Y-84300459D01*
X173498209Y-84300463D01*
X173703176Y-84355385D01*
X173763798Y-84392336D01*
X173794820Y-84456197D01*
X173792271Y-84509700D01*
X173777557Y-84564613D01*
X173758365Y-84783984D01*
X173777557Y-85003355D01*
X173834552Y-85216060D01*
X173860166Y-85270989D01*
X173925290Y-85410650D01*
X173925293Y-85410655D01*
X173927616Y-85415637D01*
X173930772Y-85420144D01*
X173930773Y-85420146D01*
X173941942Y-85436096D01*
X174053923Y-85596022D01*
X174209634Y-85751733D01*
X174214143Y-85754890D01*
X174214145Y-85754892D01*
X174288913Y-85807245D01*
X174390018Y-85878040D01*
X174589596Y-85971104D01*
X174594908Y-85972527D01*
X174594918Y-85972531D01*
X174708773Y-86003039D01*
X174769395Y-86039990D01*
X174800417Y-86103851D01*
X174797867Y-86157357D01*
X174759028Y-86302303D01*
X174759027Y-86302312D01*
X174757603Y-86307624D01*
X174738411Y-86526995D01*
X174757603Y-86746366D01*
X174814598Y-86959071D01*
X174816994Y-86964209D01*
X174905336Y-87153661D01*
X174905339Y-87153666D01*
X174907662Y-87158648D01*
X174910818Y-87163155D01*
X174910819Y-87163157D01*
X175003109Y-87294960D01*
X175033969Y-87339033D01*
X175189680Y-87494744D01*
X175194189Y-87497901D01*
X175194191Y-87497903D01*
X175233314Y-87525297D01*
X175370064Y-87621051D01*
X175508322Y-87685521D01*
X175532214Y-87696662D01*
X175569642Y-87714115D01*
X175594206Y-87720697D01*
X175654828Y-87757649D01*
X175685849Y-87821510D01*
X175676527Y-87890197D01*
X175677618Y-87890594D01*
X175675792Y-87895610D01*
X175675786Y-87895656D01*
X175673412Y-87900748D01*
X175616417Y-88113453D01*
X175597225Y-88332824D01*
X175616417Y-88552195D01*
X175673412Y-88764900D01*
X175675737Y-88769885D01*
X175764150Y-88959490D01*
X175764153Y-88959495D01*
X175766476Y-88964477D01*
X175769632Y-88968984D01*
X175769633Y-88968986D01*
X175795502Y-89005930D01*
X175892783Y-89144862D01*
X176048494Y-89300573D01*
X176053003Y-89303730D01*
X176053005Y-89303732D01*
X176071747Y-89316855D01*
X176228878Y-89426880D01*
X176233860Y-89429203D01*
X176233865Y-89429206D01*
X176388949Y-89501522D01*
X176442234Y-89548439D01*
X176461695Y-89616716D01*
X176449894Y-89668966D01*
X176409317Y-89755984D01*
X176409314Y-89755992D01*
X176406991Y-89760974D01*
X176349996Y-89973679D01*
X176330804Y-90193050D01*
X176349996Y-90412421D01*
X176406991Y-90625126D01*
X176409316Y-90630111D01*
X176497729Y-90819716D01*
X176497732Y-90819721D01*
X176500055Y-90824703D01*
X176503211Y-90829210D01*
X176503212Y-90829212D01*
X176561098Y-90911881D01*
X176626362Y-91005088D01*
X176782073Y-91160799D01*
X176786582Y-91163956D01*
X176786584Y-91163958D01*
X176861352Y-91216311D01*
X176962457Y-91287106D01*
X176967442Y-91289430D01*
X176967448Y-91289434D01*
X177034362Y-91320636D01*
X177087648Y-91367553D01*
X177107109Y-91435830D01*
X177095308Y-91488081D01*
X177011912Y-91666925D01*
X176954917Y-91879630D01*
X176935725Y-92099001D01*
X176954917Y-92318372D01*
X177011912Y-92531077D01*
X177014237Y-92536062D01*
X177102650Y-92725667D01*
X177102653Y-92725672D01*
X177104976Y-92730654D01*
X177108132Y-92735161D01*
X177108133Y-92735163D01*
X177222476Y-92898461D01*
X177231283Y-92911039D01*
X177386994Y-93066750D01*
X177391503Y-93069907D01*
X177391505Y-93069909D01*
X177562869Y-93189900D01*
X177565319Y-93191615D01*
X177567378Y-93193057D01*
X177567088Y-93193471D01*
X177613673Y-93242330D01*
X177627107Y-93312044D01*
X177604892Y-93372332D01*
X177578421Y-93410137D01*
X177576100Y-93415115D01*
X177576098Y-93415118D01*
X177539413Y-93493791D01*
X177485357Y-93609714D01*
X177428362Y-93822419D01*
X177409170Y-94041790D01*
X177428362Y-94261161D01*
X177485357Y-94473866D01*
X177487682Y-94478851D01*
X177576095Y-94668456D01*
X177576098Y-94668461D01*
X177578421Y-94673443D01*
X177581577Y-94677950D01*
X177581578Y-94677952D01*
X177661545Y-94792156D01*
X177704728Y-94853828D01*
X177860439Y-95009539D01*
X177864948Y-95012696D01*
X177864950Y-95012698D01*
X177970363Y-95086509D01*
X178014691Y-95141966D01*
X178022000Y-95212586D01*
X178001305Y-95261992D01*
X177918181Y-95380706D01*
X177915858Y-95385688D01*
X177915855Y-95385693D01*
X177868652Y-95486921D01*
X177825117Y-95580283D01*
X177768122Y-95792988D01*
X177748930Y-96012359D01*
X177768122Y-96231730D01*
X177825117Y-96444435D01*
X177827442Y-96449420D01*
X177915855Y-96639025D01*
X177915858Y-96639030D01*
X177918181Y-96644012D01*
X177921337Y-96648519D01*
X177921338Y-96648521D01*
X177982982Y-96736557D01*
X178044488Y-96824397D01*
X178200199Y-96980108D01*
X178204708Y-96983265D01*
X178204710Y-96983267D01*
X178229349Y-97000519D01*
X178273677Y-97055976D01*
X178280986Y-97126595D01*
X178253597Y-97184726D01*
X178252872Y-97185590D01*
X178248980Y-97189482D01*
X178122673Y-97369867D01*
X178120350Y-97374849D01*
X178120347Y-97374854D01*
X178073144Y-97476082D01*
X178029609Y-97569444D01*
X177972614Y-97782149D01*
X177953422Y-98001520D01*
X177972614Y-98220891D01*
X178029609Y-98433596D01*
X178031934Y-98438581D01*
X178120347Y-98628186D01*
X178120350Y-98628191D01*
X178122673Y-98633173D01*
X178248980Y-98813558D01*
X178381223Y-98945801D01*
X178415249Y-99008113D01*
X178410184Y-99078928D01*
X178381227Y-99123986D01*
X178317251Y-99187962D01*
X178190944Y-99368347D01*
X178188621Y-99373329D01*
X178188618Y-99373334D01*
X178141415Y-99474562D01*
X178097880Y-99567924D01*
X178040885Y-99780629D01*
X178021693Y-100000000D01*
X178040885Y-100219371D01*
X178097880Y-100432076D01*
X178100205Y-100437061D01*
X178188618Y-100626666D01*
X178188621Y-100626671D01*
X178190944Y-100631653D01*
X178317251Y-100812038D01*
X178381222Y-100876009D01*
X178415248Y-100938321D01*
X178410183Y-101009136D01*
X178381222Y-101054199D01*
X178248980Y-101186441D01*
X178122673Y-101366826D01*
X178120350Y-101371808D01*
X178120347Y-101371813D01*
X178095223Y-101425692D01*
X178029609Y-101566403D01*
X177972614Y-101779108D01*
X177953422Y-101998479D01*
X177972614Y-102217850D01*
X178029609Y-102430555D01*
X178031934Y-102435540D01*
X178120347Y-102625145D01*
X178120350Y-102625150D01*
X178122673Y-102630132D01*
X178248980Y-102810517D01*
X178252872Y-102814409D01*
X178253597Y-102815273D01*
X178282064Y-102880312D01*
X178270849Y-102950417D01*
X178229349Y-102999480D01*
X178200199Y-103019891D01*
X178044488Y-103175602D01*
X178041334Y-103180107D01*
X178041329Y-103180113D01*
X177974643Y-103275351D01*
X177918181Y-103355987D01*
X177915858Y-103360969D01*
X177915855Y-103360974D01*
X177889197Y-103418143D01*
X177825117Y-103555564D01*
X177768122Y-103768269D01*
X177748930Y-103987640D01*
X177768122Y-104207011D01*
X177825117Y-104419716D01*
X177827442Y-104424701D01*
X177915855Y-104614306D01*
X177915858Y-104614311D01*
X177918181Y-104619293D01*
X177937560Y-104646969D01*
X178001305Y-104738006D01*
X178023993Y-104805280D01*
X178006708Y-104874141D01*
X177970363Y-104913490D01*
X177864950Y-104987301D01*
X177864947Y-104987303D01*
X177860439Y-104990460D01*
X177704728Y-105146171D01*
X177701571Y-105150679D01*
X177701569Y-105150682D01*
X177581578Y-105322047D01*
X177581577Y-105322049D01*
X177578421Y-105326556D01*
X177576098Y-105331538D01*
X177576095Y-105331543D01*
X177549906Y-105387707D01*
X177485357Y-105526133D01*
X177428362Y-105738838D01*
X177409170Y-105958209D01*
X177428362Y-106177580D01*
X177485357Y-106390285D01*
X177487682Y-106395270D01*
X177576096Y-106584875D01*
X177578421Y-106589862D01*
X177599965Y-106620630D01*
X177604892Y-106627667D01*
X177627579Y-106694941D01*
X177610293Y-106763801D01*
X177567145Y-106806608D01*
X177567379Y-106806942D01*
X177452107Y-106887656D01*
X177391505Y-106930090D01*
X177391502Y-106930092D01*
X177386994Y-106933249D01*
X177231283Y-107088960D01*
X177228126Y-107093468D01*
X177228124Y-107093471D01*
X177216845Y-107109579D01*
X177104976Y-107269345D01*
X177102653Y-107274326D01*
X177102650Y-107274332D01*
X177055447Y-107375560D01*
X177011912Y-107468922D01*
X176954917Y-107681627D01*
X176935725Y-107900998D01*
X176954917Y-108120369D01*
X177011912Y-108333074D01*
X177014237Y-108338059D01*
X177095308Y-108511918D01*
X177105969Y-108582110D01*
X177076989Y-108646923D01*
X177034363Y-108679363D01*
X176967445Y-108710567D01*
X176967440Y-108710570D01*
X176962458Y-108712893D01*
X176957951Y-108716049D01*
X176957949Y-108716050D01*
X176786584Y-108836041D01*
X176786581Y-108836043D01*
X176782073Y-108839200D01*
X176626362Y-108994911D01*
X176623205Y-108999419D01*
X176623203Y-108999422D01*
X176522124Y-109143778D01*
X176500055Y-109175296D01*
X176497732Y-109180278D01*
X176497729Y-109180283D01*
X176450526Y-109281511D01*
X176406991Y-109374873D01*
X176349996Y-109587578D01*
X176330804Y-109806949D01*
X176349996Y-110026320D01*
X176406991Y-110239025D01*
X176409314Y-110244007D01*
X176409317Y-110244015D01*
X176449894Y-110331033D01*
X176460555Y-110401224D01*
X176431575Y-110466037D01*
X176388949Y-110498477D01*
X176233866Y-110570793D01*
X176233861Y-110570796D01*
X176228879Y-110573119D01*
X176224372Y-110576275D01*
X176224370Y-110576276D01*
X176053005Y-110696267D01*
X176053002Y-110696269D01*
X176048494Y-110699426D01*
X175892783Y-110855137D01*
X175889626Y-110859645D01*
X175889624Y-110859648D01*
X175785686Y-111008087D01*
X175766476Y-111035522D01*
X175764153Y-111040504D01*
X175764150Y-111040509D01*
X175741024Y-111090104D01*
X175673412Y-111235099D01*
X175616417Y-111447804D01*
X175597225Y-111667175D01*
X175616417Y-111886546D01*
X175673412Y-112099251D01*
X175675737Y-112104236D01*
X175675738Y-112104240D01*
X175675786Y-112104343D01*
X175675794Y-112104393D01*
X175677618Y-112109405D01*
X175676611Y-112109772D01*
X175686449Y-112174534D01*
X175657471Y-112239348D01*
X175594206Y-112279302D01*
X175569642Y-112285884D01*
X175532214Y-112303337D01*
X175375052Y-112376622D01*
X175375047Y-112376625D01*
X175370065Y-112378948D01*
X175365558Y-112382104D01*
X175365556Y-112382105D01*
X175194191Y-112502096D01*
X175194188Y-112502098D01*
X175189680Y-112505255D01*
X175033969Y-112660966D01*
X175030812Y-112665474D01*
X175030810Y-112665477D01*
X174910819Y-112836842D01*
X174907662Y-112841351D01*
X174905339Y-112846333D01*
X174905336Y-112846338D01*
X174881326Y-112897829D01*
X174814598Y-113040928D01*
X174757603Y-113253633D01*
X174738411Y-113473004D01*
X174757603Y-113692375D01*
X174759026Y-113697685D01*
X174759028Y-113697696D01*
X174797867Y-113842642D01*
X174796178Y-113913618D01*
X174756385Y-113972415D01*
X174708773Y-113996960D01*
X174594918Y-114027468D01*
X174594908Y-114027472D01*
X174589596Y-114028895D01*
X174496234Y-114072430D01*
X174395006Y-114119633D01*
X174395001Y-114119636D01*
X174390019Y-114121959D01*
X174385512Y-114125115D01*
X174385510Y-114125116D01*
X174214145Y-114245107D01*
X174214142Y-114245109D01*
X174209634Y-114248266D01*
X174053923Y-114403977D01*
X174050766Y-114408485D01*
X174050764Y-114408488D01*
X173939731Y-114567060D01*
X173927616Y-114584362D01*
X173925293Y-114589344D01*
X173925290Y-114589349D01*
X173916353Y-114608515D01*
X173834552Y-114783939D01*
X173777557Y-114996644D01*
X173758365Y-115216015D01*
X173777557Y-115435386D01*
X173783487Y-115457515D01*
X173792271Y-115490297D01*
X173790581Y-115561273D01*
X173750787Y-115620069D01*
X173703176Y-115644614D01*
X173498209Y-115699536D01*
X173498199Y-115699540D01*
X173492887Y-115700963D01*
X173399525Y-115744498D01*
X173298297Y-115791701D01*
X173298292Y-115791704D01*
X173293310Y-115794027D01*
X173288803Y-115797183D01*
X173288801Y-115797184D01*
X173117436Y-115917175D01*
X173117433Y-115917177D01*
X173112925Y-115920334D01*
X172957214Y-116076045D01*
X172954057Y-116080553D01*
X172954055Y-116080556D01*
X172911548Y-116141263D01*
X172830907Y-116256430D01*
X172828584Y-116261412D01*
X172828581Y-116261417D01*
X172781378Y-116362645D01*
X172737843Y-116456007D01*
X172680848Y-116668712D01*
X172661656Y-116888083D01*
X172662135Y-116893558D01*
X172679746Y-117094855D01*
X172665757Y-117164459D01*
X172616357Y-117215452D01*
X172565207Y-117231357D01*
X172524632Y-117234907D01*
X172497334Y-117237295D01*
X172284629Y-117294290D01*
X172229153Y-117320159D01*
X172090039Y-117385028D01*
X172090034Y-117385031D01*
X172085052Y-117387354D01*
X172080545Y-117390510D01*
X172080543Y-117390511D01*
X171909178Y-117510502D01*
X171909175Y-117510504D01*
X171904667Y-117513661D01*
X171748956Y-117669372D01*
X171745799Y-117673880D01*
X171745797Y-117673883D01*
X171625806Y-117845248D01*
X171622649Y-117849757D01*
X171620326Y-117854739D01*
X171620323Y-117854744D01*
X171619816Y-117855832D01*
X171529585Y-118049334D01*
X171472590Y-118262039D01*
X171453398Y-118481410D01*
X171453877Y-118486885D01*
X171463202Y-118593472D01*
X171449213Y-118663076D01*
X171399813Y-118714069D01*
X171348663Y-118729974D01*
X171183160Y-118744453D01*
X170970455Y-118801448D01*
X170877093Y-118844983D01*
X170775865Y-118892186D01*
X170775860Y-118892189D01*
X170770878Y-118894512D01*
X170766371Y-118897668D01*
X170766369Y-118897669D01*
X170595004Y-119017660D01*
X170595001Y-119017662D01*
X170590493Y-119020819D01*
X170434782Y-119176530D01*
X170431625Y-119181038D01*
X170431623Y-119181041D01*
X170352915Y-119293448D01*
X170308475Y-119356915D01*
X170306152Y-119361897D01*
X170306149Y-119361902D01*
X170267278Y-119445262D01*
X170215411Y-119556492D01*
X170158416Y-119769197D01*
X170139224Y-119988568D01*
X170139703Y-119994043D01*
X170140581Y-120004079D01*
X170126592Y-120073683D01*
X170077192Y-120124676D01*
X170004079Y-120140581D01*
X169994043Y-120139703D01*
X169988568Y-120139224D01*
X169769197Y-120158416D01*
X169556492Y-120215411D01*
X169463130Y-120258946D01*
X169361902Y-120306149D01*
X169361897Y-120306152D01*
X169356915Y-120308475D01*
X169352408Y-120311631D01*
X169352406Y-120311632D01*
X169181041Y-120431623D01*
X169181038Y-120431625D01*
X169176530Y-120434782D01*
X169020819Y-120590493D01*
X169017662Y-120595001D01*
X169017660Y-120595004D01*
X168897669Y-120766369D01*
X168894512Y-120770878D01*
X168892189Y-120775860D01*
X168892186Y-120775865D01*
X168878832Y-120804503D01*
X168801448Y-120970455D01*
X168744453Y-121183160D01*
X168732708Y-121317416D01*
X168729974Y-121348662D01*
X168704111Y-121414781D01*
X168646607Y-121456420D01*
X168593472Y-121463202D01*
X168481410Y-121453398D01*
X168262039Y-121472590D01*
X168049334Y-121529585D01*
X167955972Y-121573120D01*
X167854744Y-121620323D01*
X167854739Y-121620326D01*
X167849757Y-121622649D01*
X167845250Y-121625805D01*
X167845248Y-121625806D01*
X167673883Y-121745797D01*
X167673880Y-121745799D01*
X167669372Y-121748956D01*
X167513661Y-121904667D01*
X167387354Y-122085052D01*
X167385031Y-122090034D01*
X167385028Y-122090039D01*
X167337825Y-122191267D01*
X167294290Y-122284629D01*
X167237295Y-122497334D01*
X167236816Y-122502810D01*
X167231357Y-122565207D01*
X167205494Y-122631325D01*
X167147990Y-122672964D01*
X167094856Y-122679746D01*
X166888083Y-122661656D01*
X166668712Y-122680848D01*
X166456007Y-122737843D01*
X166385815Y-122770574D01*
X166261417Y-122828581D01*
X166261412Y-122828584D01*
X166256430Y-122830907D01*
X166251923Y-122834063D01*
X166251921Y-122834064D01*
X166080556Y-122954055D01*
X166080553Y-122954057D01*
X166076045Y-122957214D01*
X165920334Y-123112925D01*
X165917177Y-123117433D01*
X165917175Y-123117436D01*
X165846464Y-123218422D01*
X165794027Y-123293310D01*
X165791704Y-123298292D01*
X165791701Y-123298297D01*
X165770683Y-123343371D01*
X165700963Y-123492887D01*
X165699540Y-123498199D01*
X165699536Y-123498209D01*
X165644614Y-123703176D01*
X165607663Y-123763798D01*
X165543802Y-123794820D01*
X165490299Y-123792271D01*
X165435386Y-123777557D01*
X165216015Y-123758365D01*
X164996644Y-123777557D01*
X164783939Y-123834552D01*
X164690577Y-123878087D01*
X164589349Y-123925290D01*
X164589344Y-123925293D01*
X164584362Y-123927616D01*
X164579855Y-123930772D01*
X164579853Y-123930773D01*
X164408488Y-124050764D01*
X164408485Y-124050766D01*
X164403977Y-124053923D01*
X164248266Y-124209634D01*
X164245109Y-124214142D01*
X164245107Y-124214145D01*
X164145052Y-124357039D01*
X164121959Y-124390019D01*
X164119636Y-124395001D01*
X164119633Y-124395006D01*
X164078664Y-124482865D01*
X164028895Y-124589596D01*
X164027472Y-124594908D01*
X164027468Y-124594918D01*
X163996960Y-124708773D01*
X163960009Y-124769395D01*
X163896148Y-124800417D01*
X163842642Y-124797867D01*
X163697696Y-124759028D01*
X163697687Y-124759027D01*
X163692375Y-124757603D01*
X163473004Y-124738411D01*
X163253633Y-124757603D01*
X163040928Y-124814598D01*
X162968229Y-124848498D01*
X162846338Y-124905336D01*
X162846333Y-124905339D01*
X162841351Y-124907662D01*
X162836844Y-124910818D01*
X162836842Y-124910819D01*
X162665477Y-125030810D01*
X162665474Y-125030812D01*
X162660966Y-125033969D01*
X162505255Y-125189680D01*
X162502098Y-125194188D01*
X162502096Y-125194191D01*
X162430475Y-125296477D01*
X162378948Y-125370065D01*
X162376625Y-125375047D01*
X162376622Y-125375052D01*
X162325810Y-125484020D01*
X162285884Y-125569642D01*
X162284462Y-125574948D01*
X162284459Y-125574957D01*
X162279303Y-125594202D01*
X162242353Y-125654826D01*
X162178492Y-125685848D01*
X162109802Y-125676527D01*
X162109405Y-125677618D01*
X162104389Y-125675792D01*
X162104343Y-125675786D01*
X162104240Y-125675738D01*
X162104236Y-125675737D01*
X162099251Y-125673412D01*
X161886546Y-125616417D01*
X161667175Y-125597225D01*
X161447804Y-125616417D01*
X161235099Y-125673412D01*
X161141737Y-125716947D01*
X161040509Y-125764150D01*
X161040504Y-125764153D01*
X161035522Y-125766476D01*
X161031015Y-125769632D01*
X161031013Y-125769633D01*
X160859648Y-125889624D01*
X160859645Y-125889626D01*
X160855137Y-125892783D01*
X160699426Y-126048494D01*
X160696269Y-126053002D01*
X160696267Y-126053005D01*
X160577254Y-126222973D01*
X160573119Y-126228879D01*
X160570796Y-126233861D01*
X160570793Y-126233866D01*
X160498477Y-126388949D01*
X160451560Y-126442234D01*
X160383282Y-126461695D01*
X160331033Y-126449894D01*
X160244015Y-126409317D01*
X160244007Y-126409314D01*
X160239025Y-126406991D01*
X160026320Y-126349996D01*
X159806949Y-126330804D01*
X159587578Y-126349996D01*
X159374873Y-126406991D01*
X159317394Y-126433794D01*
X159180283Y-126497729D01*
X159180278Y-126497732D01*
X159175296Y-126500055D01*
X159170789Y-126503211D01*
X159170787Y-126503212D01*
X158999422Y-126623203D01*
X158999419Y-126623205D01*
X158994911Y-126626362D01*
X158839200Y-126782073D01*
X158836043Y-126786581D01*
X158836041Y-126786584D01*
X158718173Y-126954917D01*
X158712893Y-126962458D01*
X158710570Y-126967440D01*
X158710567Y-126967445D01*
X158679363Y-127034363D01*
X158632446Y-127087648D01*
X158564168Y-127107109D01*
X158511919Y-127095308D01*
X158333074Y-127011912D01*
X158120369Y-126954917D01*
X157900998Y-126935725D01*
X157681627Y-126954917D01*
X157468922Y-127011912D01*
X157420776Y-127034363D01*
X157274332Y-127102650D01*
X157274327Y-127102653D01*
X157269345Y-127104976D01*
X157264838Y-127108132D01*
X157264836Y-127108133D01*
X157093471Y-127228124D01*
X157093468Y-127228126D01*
X157088960Y-127231283D01*
X156933249Y-127386994D01*
X156806942Y-127567379D01*
X156806528Y-127567089D01*
X156757668Y-127613673D01*
X156687953Y-127627106D01*
X156627666Y-127604890D01*
X156594377Y-127581581D01*
X156594367Y-127581575D01*
X156589863Y-127578421D01*
X156390285Y-127485357D01*
X156177580Y-127428362D01*
X155958209Y-127409170D01*
X155738838Y-127428362D01*
X155526133Y-127485357D01*
X155432771Y-127528892D01*
X155331543Y-127576095D01*
X155331538Y-127576098D01*
X155326556Y-127578421D01*
X155322052Y-127581575D01*
X155322047Y-127581578D01*
X155150682Y-127701569D01*
X155150679Y-127701571D01*
X155146171Y-127704728D01*
X154990460Y-127860439D01*
X154987303Y-127864947D01*
X154987301Y-127864950D01*
X154913490Y-127970363D01*
X154858033Y-128014691D01*
X154787413Y-128022000D01*
X154738008Y-128001306D01*
X154619294Y-127918181D01*
X154419716Y-127825117D01*
X154207011Y-127768122D01*
X153987640Y-127748930D01*
X153768269Y-127768122D01*
X153555564Y-127825117D01*
X153470142Y-127864950D01*
X153360974Y-127915855D01*
X153360969Y-127915858D01*
X153355987Y-127918181D01*
X153351480Y-127921337D01*
X153351478Y-127921338D01*
X153180113Y-128041329D01*
X153180110Y-128041331D01*
X153175602Y-128044488D01*
X153019891Y-128200199D01*
X153016734Y-128204708D01*
X153016732Y-128204710D01*
X152999480Y-128229349D01*
X152944023Y-128273677D01*
X152873404Y-128280986D01*
X152815273Y-128253597D01*
X152814408Y-128252871D01*
X152810517Y-128248980D01*
X152806013Y-128245826D01*
X152806012Y-128245825D01*
X152711628Y-128179737D01*
X152630133Y-128122673D01*
X152430555Y-128029609D01*
X152217850Y-127972614D01*
X151998479Y-127953422D01*
X151779108Y-127972614D01*
X151566403Y-128029609D01*
X151534495Y-128044488D01*
X151371813Y-128120347D01*
X151371808Y-128120350D01*
X151366826Y-128122673D01*
X151362319Y-128125829D01*
X151362317Y-128125830D01*
X151190952Y-128245821D01*
X151190949Y-128245823D01*
X151186441Y-128248980D01*
X151054199Y-128381222D01*
X150991887Y-128415248D01*
X150921072Y-128410183D01*
X150876009Y-128381222D01*
X150812038Y-128317251D01*
X150745770Y-128270849D01*
X150687821Y-128230273D01*
X150631654Y-128190944D01*
X150432076Y-128097880D01*
X150219371Y-128040885D01*
X150000000Y-128021693D01*
X149780629Y-128040885D01*
X149567924Y-128097880D01*
X149513282Y-128123360D01*
X149373334Y-128188618D01*
X149373329Y-128188621D01*
X149368347Y-128190944D01*
X149363840Y-128194100D01*
X149363838Y-128194101D01*
X149192473Y-128314092D01*
X149192470Y-128314094D01*
X149187962Y-128317251D01*
X149123988Y-128381225D01*
X149061680Y-128415248D01*
X148990864Y-128410184D01*
X148945801Y-128381223D01*
X148813558Y-128248980D01*
X148785523Y-128229349D01*
X148734279Y-128193468D01*
X148633174Y-128122673D01*
X148433596Y-128029609D01*
X148220891Y-127972614D01*
X148001520Y-127953422D01*
X147782149Y-127972614D01*
X147569444Y-128029609D01*
X147537536Y-128044488D01*
X147374854Y-128120347D01*
X147374849Y-128120350D01*
X147369867Y-128122673D01*
X147189482Y-128248980D01*
X147185590Y-128252872D01*
X147184726Y-128253597D01*
X147119687Y-128282064D01*
X147049582Y-128270849D01*
X147000519Y-128229349D01*
X146983267Y-128204710D01*
X146983265Y-128204708D01*
X146980108Y-128200199D01*
X146824397Y-128044488D01*
X146819252Y-128040885D01*
X146718536Y-127970363D01*
X146644013Y-127918181D01*
X146444435Y-127825117D01*
X146231730Y-127768122D01*
X146012359Y-127748930D01*
X145792988Y-127768122D01*
X145580283Y-127825117D01*
X145494861Y-127864950D01*
X145385693Y-127915855D01*
X145385688Y-127915858D01*
X145380706Y-127918181D01*
X145273928Y-127992948D01*
X145261993Y-128001305D01*
X145194719Y-128023993D01*
X145125858Y-128006708D01*
X145086509Y-127970363D01*
X145012698Y-127864950D01*
X145012696Y-127864947D01*
X145009539Y-127860439D01*
X144853828Y-127704728D01*
X144827838Y-127686529D01*
X144742973Y-127627106D01*
X144673444Y-127578421D01*
X144473866Y-127485357D01*
X144261161Y-127428362D01*
X144041790Y-127409170D01*
X143822419Y-127428362D01*
X143609714Y-127485357D01*
X143493791Y-127539413D01*
X143415118Y-127576098D01*
X143415115Y-127576100D01*
X143410137Y-127578421D01*
X143379369Y-127599965D01*
X143372332Y-127604892D01*
X143305058Y-127627579D01*
X143236198Y-127610293D01*
X143193391Y-127567145D01*
X143193057Y-127567379D01*
X143191698Y-127565438D01*
X143066750Y-127386994D01*
X142911039Y-127231283D01*
X142903749Y-127226178D01*
X142802907Y-127155568D01*
X142730655Y-127104976D01*
X142531077Y-127011912D01*
X142318372Y-126954917D01*
X142099001Y-126935725D01*
X141879630Y-126954917D01*
X141666925Y-127011912D01*
X141513084Y-127083649D01*
X141488081Y-127095308D01*
X141417889Y-127105969D01*
X141353076Y-127076989D01*
X141320636Y-127034363D01*
X141289432Y-126967445D01*
X141289429Y-126967440D01*
X141287106Y-126962458D01*
X141281826Y-126954917D01*
X141163958Y-126786584D01*
X141163956Y-126786581D01*
X141160799Y-126782073D01*
X141005088Y-126626362D01*
X140824704Y-126500055D01*
X140625126Y-126406991D01*
X140412421Y-126349996D01*
X140193050Y-126330804D01*
X139973679Y-126349996D01*
X139760974Y-126406991D01*
X139755992Y-126409314D01*
X139755984Y-126409317D01*
X139668966Y-126449894D01*
X139598775Y-126460555D01*
X139533962Y-126431575D01*
X139501522Y-126388949D01*
X139429206Y-126233866D01*
X139429203Y-126233861D01*
X139426880Y-126228879D01*
X139422745Y-126222973D01*
X139303732Y-126053005D01*
X139303730Y-126053002D01*
X139300573Y-126048494D01*
X139144862Y-125892783D01*
X139139650Y-125889133D01*
X139065583Y-125837271D01*
X138964478Y-125766476D01*
X138764900Y-125673412D01*
X138552195Y-125616417D01*
X138332824Y-125597225D01*
X138113453Y-125616417D01*
X137900748Y-125673412D01*
X137895763Y-125675737D01*
X137895759Y-125675738D01*
X137895656Y-125675786D01*
X137895606Y-125675794D01*
X137890594Y-125677618D01*
X137890227Y-125676611D01*
X137825465Y-125686449D01*
X137760651Y-125657471D01*
X137720697Y-125594206D01*
X137715537Y-125574950D01*
X137714115Y-125569642D01*
X137674189Y-125484020D01*
X137623377Y-125375052D01*
X137623374Y-125375047D01*
X137621051Y-125370065D01*
X137569524Y-125296477D01*
X137497903Y-125194191D01*
X137497901Y-125194188D01*
X137494744Y-125189680D01*
X137339033Y-125033969D01*
X137321472Y-125021672D01*
X137189485Y-124929254D01*
X137158649Y-124907662D01*
X136959071Y-124814598D01*
X136746366Y-124757603D01*
X136526995Y-124738411D01*
X136307624Y-124757603D01*
X136302312Y-124759027D01*
X136302303Y-124759028D01*
X136157357Y-124797867D01*
X136086381Y-124796178D01*
X136027584Y-124756385D01*
X136003039Y-124708773D01*
X135972531Y-124594918D01*
X135972527Y-124594908D01*
X135971104Y-124589596D01*
X135921335Y-124482865D01*
X135880366Y-124395006D01*
X135880363Y-124395001D01*
X135878040Y-124390019D01*
X135854947Y-124357039D01*
X135754892Y-124214145D01*
X135754890Y-124214142D01*
X135751733Y-124209634D01*
X135596022Y-124053923D01*
X135557370Y-124026858D01*
X135474317Y-123968704D01*
X135415638Y-123927616D01*
X135216060Y-123834552D01*
X135003355Y-123777557D01*
X134783984Y-123758365D01*
X134564613Y-123777557D01*
X134509701Y-123792271D01*
X134438726Y-123790581D01*
X134379930Y-123750787D01*
X134355385Y-123703176D01*
X134300463Y-123498209D01*
X134300459Y-123498199D01*
X134299036Y-123492887D01*
X134229316Y-123343371D01*
X134208298Y-123298297D01*
X134208295Y-123298292D01*
X134205972Y-123293310D01*
X134153535Y-123218422D01*
X134082824Y-123117436D01*
X134082822Y-123117433D01*
X134079665Y-123112925D01*
X133923954Y-122957214D01*
X133901350Y-122941386D01*
X133824351Y-122887471D01*
X133743570Y-122830907D01*
X133543992Y-122737843D01*
X133331287Y-122680848D01*
X133111916Y-122661656D01*
X132905143Y-122679746D01*
X132835540Y-122665757D01*
X132784547Y-122616357D01*
X132768642Y-122565207D01*
X132763183Y-122502810D01*
X132762704Y-122497334D01*
X132705709Y-122284629D01*
X132662174Y-122191267D01*
X132614971Y-122090039D01*
X132614968Y-122090034D01*
X132612645Y-122085052D01*
X132486338Y-121904667D01*
X132330627Y-121748956D01*
X132150243Y-121622649D01*
X131950665Y-121529585D01*
X131737960Y-121472590D01*
X131518589Y-121453398D01*
X131406527Y-121463202D01*
X131336923Y-121449213D01*
X131285930Y-121399813D01*
X131270025Y-121348662D01*
X131267292Y-121317416D01*
X131255546Y-121183160D01*
X131198551Y-120970455D01*
X131121167Y-120804503D01*
X131107813Y-120775865D01*
X131107810Y-120775860D01*
X131105487Y-120770878D01*
X131102330Y-120766369D01*
X130982339Y-120595004D01*
X130982337Y-120595001D01*
X130979180Y-120590493D01*
X130823469Y-120434782D01*
X130810398Y-120425629D01*
X130744190Y-120379270D01*
X130643085Y-120308475D01*
X130443507Y-120215411D01*
X130230802Y-120158416D01*
X130011431Y-120139224D01*
X129995920Y-120140581D01*
X129926316Y-120126592D01*
X129875323Y-120077192D01*
X129859418Y-120004079D01*
X129860296Y-119994043D01*
X129860775Y-119988568D01*
X129841583Y-119769197D01*
X129784588Y-119556492D01*
X129732721Y-119445262D01*
X129693850Y-119361902D01*
X129693847Y-119361897D01*
X129691524Y-119356915D01*
X129647084Y-119293448D01*
X129568376Y-119181041D01*
X129568374Y-119181038D01*
X129565217Y-119176530D01*
X129409506Y-119020819D01*
X129229122Y-118894512D01*
X129029544Y-118801448D01*
X128816839Y-118744453D01*
X128651336Y-118729974D01*
X128585218Y-118704111D01*
X128543579Y-118646607D01*
X128536797Y-118593472D01*
X128546122Y-118486885D01*
X128546601Y-118481410D01*
X128527409Y-118262039D01*
X128470414Y-118049334D01*
X128380183Y-117855832D01*
X128379676Y-117854744D01*
X128379673Y-117854739D01*
X128377350Y-117849757D01*
X128374193Y-117845248D01*
X128254202Y-117673883D01*
X128254200Y-117673880D01*
X128251043Y-117669372D01*
X128095332Y-117513661D01*
X127914948Y-117387354D01*
X127715370Y-117294290D01*
X127502665Y-117237295D01*
X127475367Y-117234907D01*
X127434792Y-117231357D01*
X127368674Y-117205494D01*
X127327035Y-117147990D01*
X127320253Y-117094855D01*
X127337864Y-116893558D01*
X127338343Y-116888083D01*
X127319151Y-116668712D01*
X127262156Y-116456007D01*
X127218621Y-116362645D01*
X127171418Y-116261417D01*
X127171415Y-116261412D01*
X127169092Y-116256430D01*
X127088451Y-116141263D01*
X127045944Y-116080556D01*
X127045942Y-116080553D01*
X127042785Y-116076045D01*
X126887074Y-115920334D01*
X126706690Y-115794027D01*
X126507112Y-115700963D01*
X126501800Y-115699540D01*
X126501790Y-115699536D01*
X126296823Y-115644614D01*
X126236201Y-115607663D01*
X126205179Y-115543802D01*
X126207728Y-115490297D01*
X126216512Y-115457515D01*
X126222442Y-115435386D01*
X126241634Y-115216015D01*
X126222442Y-114996644D01*
X126165447Y-114783939D01*
X126083646Y-114608515D01*
X126074709Y-114589349D01*
X126074706Y-114589344D01*
X126072383Y-114584362D01*
X126060268Y-114567060D01*
X125949235Y-114408488D01*
X125949233Y-114408485D01*
X125946076Y-114403977D01*
X125790365Y-114248266D01*
X125609981Y-114121959D01*
X125410403Y-114028895D01*
X125405091Y-114027472D01*
X125405081Y-114027468D01*
X125291226Y-113996960D01*
X125230604Y-113960009D01*
X125199582Y-113896148D01*
X125202132Y-113842642D01*
X125240971Y-113697696D01*
X125240973Y-113697685D01*
X125242396Y-113692375D01*
X125261588Y-113473004D01*
X125242396Y-113253633D01*
X125185401Y-113040928D01*
X125118673Y-112897829D01*
X125094663Y-112846338D01*
X125094660Y-112846333D01*
X125092337Y-112841351D01*
X125089180Y-112836842D01*
X124969189Y-112665477D01*
X124969187Y-112665474D01*
X124966030Y-112660966D01*
X124810319Y-112505255D01*
X124773128Y-112479213D01*
X124731040Y-112449743D01*
X124629935Y-112378948D01*
X124491677Y-112314478D01*
X124435337Y-112288206D01*
X124435335Y-112288205D01*
X124430357Y-112285884D01*
X124405793Y-112279302D01*
X124345171Y-112242350D01*
X124314150Y-112178489D01*
X124323472Y-112109802D01*
X124322381Y-112109405D01*
X124324207Y-112104389D01*
X124324213Y-112104343D01*
X124324261Y-112104240D01*
X124324262Y-112104236D01*
X124326587Y-112099251D01*
X124383582Y-111886546D01*
X124402774Y-111667175D01*
X124383582Y-111447804D01*
X124326587Y-111235099D01*
X124258975Y-111090104D01*
X124235849Y-111040509D01*
X124235846Y-111040504D01*
X124233523Y-111035522D01*
X124214313Y-111008087D01*
X124110375Y-110859648D01*
X124110373Y-110859645D01*
X124107216Y-110855137D01*
X123951505Y-110699426D01*
X123928254Y-110683145D01*
X123836627Y-110618987D01*
X123771121Y-110573119D01*
X123766139Y-110570796D01*
X123766134Y-110570793D01*
X123611050Y-110498477D01*
X123557765Y-110451560D01*
X123538304Y-110383283D01*
X123550105Y-110331033D01*
X123590682Y-110244015D01*
X123590685Y-110244007D01*
X123593008Y-110239025D01*
X123650003Y-110026320D01*
X123669195Y-109806949D01*
X123650003Y-109587578D01*
X123593008Y-109374873D01*
X123549473Y-109281511D01*
X123502270Y-109180283D01*
X123502267Y-109180278D01*
X123499944Y-109175296D01*
X123477875Y-109143778D01*
X123376796Y-108999422D01*
X123376794Y-108999419D01*
X123373637Y-108994911D01*
X123217926Y-108839200D01*
X123037542Y-108712893D01*
X123032554Y-108710567D01*
X123032551Y-108710565D01*
X122965637Y-108679363D01*
X122912351Y-108632446D01*
X122892890Y-108564169D01*
X122904691Y-108511918D01*
X122985762Y-108338059D01*
X122988087Y-108333074D01*
X123045082Y-108120369D01*
X123064274Y-107900998D01*
X123045082Y-107681627D01*
X122988087Y-107468922D01*
X122944552Y-107375560D01*
X122897349Y-107274332D01*
X122897346Y-107274326D01*
X122895023Y-107269345D01*
X122783154Y-107109579D01*
X122771875Y-107093471D01*
X122771873Y-107093468D01*
X122768716Y-107088960D01*
X122613005Y-106933249D01*
X122602593Y-106925958D01*
X122437130Y-106810099D01*
X122437128Y-106810098D01*
X122432621Y-106806942D01*
X122432911Y-106806528D01*
X122386326Y-106757669D01*
X122372892Y-106687955D01*
X122395107Y-106627667D01*
X122421578Y-106589862D01*
X122423904Y-106584875D01*
X122512317Y-106395270D01*
X122514642Y-106390285D01*
X122571637Y-106177580D01*
X122590829Y-105958209D01*
X122571637Y-105738838D01*
X122514642Y-105526133D01*
X122450093Y-105387707D01*
X122423904Y-105331543D01*
X122423901Y-105331538D01*
X122421578Y-105326556D01*
X122418422Y-105322049D01*
X122418421Y-105322047D01*
X122298430Y-105150682D01*
X122298428Y-105150679D01*
X122295271Y-105146171D01*
X122139560Y-104990460D01*
X122029636Y-104913490D01*
X121985308Y-104858033D01*
X121977999Y-104787413D01*
X121998694Y-104738006D01*
X122062439Y-104646969D01*
X122081818Y-104619293D01*
X122084141Y-104614311D01*
X122084144Y-104614306D01*
X122172557Y-104424701D01*
X122174882Y-104419716D01*
X122231877Y-104207011D01*
X122251069Y-103987640D01*
X122231877Y-103768269D01*
X122174882Y-103555564D01*
X122110802Y-103418143D01*
X122084144Y-103360974D01*
X122084141Y-103360969D01*
X122081818Y-103355987D01*
X122025356Y-103275351D01*
X121958670Y-103180113D01*
X121958665Y-103180107D01*
X121955511Y-103175602D01*
X121799800Y-103019891D01*
X121770650Y-102999480D01*
X121726322Y-102944023D01*
X121719013Y-102873404D01*
X121746402Y-102815273D01*
X121747127Y-102814409D01*
X121751019Y-102810517D01*
X121877326Y-102630132D01*
X121879649Y-102625150D01*
X121879652Y-102625145D01*
X121968065Y-102435540D01*
X121970390Y-102430555D01*
X122027385Y-102217850D01*
X122046577Y-101998479D01*
X122027385Y-101779108D01*
X121970390Y-101566403D01*
X121904776Y-101425692D01*
X121879652Y-101371813D01*
X121879649Y-101371808D01*
X121877326Y-101366826D01*
X121751019Y-101186441D01*
X121618777Y-101054199D01*
X121584752Y-100991888D01*
X121589817Y-100921073D01*
X121618777Y-100876010D01*
X121682749Y-100812038D01*
X121809056Y-100631653D01*
X121811379Y-100626671D01*
X121811382Y-100626666D01*
X121899795Y-100437061D01*
X121902120Y-100432076D01*
X121941396Y-100285498D01*
X122737993Y-100285498D01*
X122766764Y-101284287D01*
X122832115Y-102281351D01*
X122933958Y-103275351D01*
X122947519Y-103372457D01*
X123064066Y-104207011D01*
X123072157Y-104264951D01*
X123246525Y-105248823D01*
X123456830Y-106225644D01*
X123457117Y-106226772D01*
X123457120Y-106226787D01*
X123498643Y-106390285D01*
X123702787Y-107194103D01*
X123703100Y-107195169D01*
X123703100Y-107195170D01*
X123981016Y-108142498D01*
X123984067Y-108152899D01*
X123984418Y-108153952D01*
X124296380Y-109089017D01*
X124300292Y-109100744D01*
X124446055Y-109489571D01*
X124647272Y-110026320D01*
X124651037Y-110036364D01*
X124651474Y-110037412D01*
X124651485Y-110037439D01*
X124836182Y-110480055D01*
X125035831Y-110958504D01*
X125036304Y-110959530D01*
X125036311Y-110959546D01*
X125161045Y-111230114D01*
X125454157Y-111865924D01*
X125454675Y-111866948D01*
X125454686Y-111866970D01*
X125666035Y-112284462D01*
X125905454Y-112757405D01*
X126389115Y-113631751D01*
X126389711Y-113632741D01*
X126389722Y-113632760D01*
X126903896Y-114486800D01*
X126904490Y-114487786D01*
X127450887Y-115324361D01*
X127451550Y-115325299D01*
X128026910Y-116139415D01*
X128026931Y-116139443D01*
X128027573Y-116140352D01*
X128028261Y-116141254D01*
X128028268Y-116141263D01*
X128602401Y-116893558D01*
X128633772Y-116934664D01*
X128634467Y-116935509D01*
X128634480Y-116935525D01*
X129006278Y-117387354D01*
X129268670Y-117706228D01*
X129269442Y-117707099D01*
X129873793Y-118388992D01*
X129931416Y-118454009D01*
X130621117Y-119177003D01*
X131336849Y-119874238D01*
X131337698Y-119875006D01*
X131337706Y-119875014D01*
X131960434Y-120438679D01*
X132077649Y-120544777D01*
X132078513Y-120545503D01*
X132078523Y-120545512D01*
X132308222Y-120738594D01*
X132842522Y-121187720D01*
X132843448Y-121188442D01*
X133629549Y-121801508D01*
X133629564Y-121801519D01*
X133630442Y-121802204D01*
X133957740Y-122038693D01*
X134411259Y-122366383D01*
X134440350Y-122387403D01*
X134571755Y-122475205D01*
X135270209Y-122941898D01*
X135270226Y-122941909D01*
X135271157Y-122942531D01*
X135272102Y-122943113D01*
X135272123Y-122943127D01*
X135832912Y-123288801D01*
X136121748Y-123466842D01*
X136122719Y-123467392D01*
X136122730Y-123467399D01*
X136250391Y-123539773D01*
X136990981Y-123959632D01*
X137008445Y-123968704D01*
X137876671Y-124419711D01*
X137876683Y-124419717D01*
X137877688Y-124420239D01*
X138010956Y-124483377D01*
X138779627Y-124847548D01*
X138779647Y-124847557D01*
X138780677Y-124848045D01*
X138781723Y-124848495D01*
X138781731Y-124848498D01*
X139575853Y-125189680D01*
X139698737Y-125242475D01*
X140630633Y-125602998D01*
X140631700Y-125603366D01*
X140631707Y-125603369D01*
X141574031Y-125928757D01*
X141574046Y-125928762D01*
X141575115Y-125929131D01*
X141576205Y-125929463D01*
X141576229Y-125929471D01*
X141966755Y-126048494D01*
X142530912Y-126220436D01*
X142772531Y-126284500D01*
X143436527Y-126460555D01*
X143496743Y-126476521D01*
X143497847Y-126476771D01*
X143497860Y-126476774D01*
X144098935Y-126612783D01*
X144471308Y-126697043D01*
X145067974Y-126809245D01*
X145452177Y-126881494D01*
X145452186Y-126881496D01*
X145453300Y-126881705D01*
X146441399Y-127030259D01*
X146442541Y-127030388D01*
X146442563Y-127030391D01*
X147433091Y-127142372D01*
X147433102Y-127142373D01*
X147434278Y-127142506D01*
X147435435Y-127142594D01*
X147435456Y-127142596D01*
X148429441Y-127218206D01*
X148429462Y-127218207D01*
X148430603Y-127218294D01*
X148431737Y-127218339D01*
X148431762Y-127218340D01*
X149427905Y-127257479D01*
X149427929Y-127257479D01*
X149429036Y-127257523D01*
X149430157Y-127257526D01*
X149430160Y-127257526D01*
X149928636Y-127258831D01*
X150428236Y-127260139D01*
X151069312Y-127238312D01*
X151425692Y-127226178D01*
X151425703Y-127226177D01*
X151426861Y-127226138D01*
X151428023Y-127226056D01*
X151428037Y-127226055D01*
X152422433Y-127155649D01*
X152422460Y-127155647D01*
X152423570Y-127155568D01*
X153417023Y-127048521D01*
X153418122Y-127048362D01*
X153418143Y-127048359D01*
X154010590Y-126962458D01*
X154405886Y-126905143D01*
X154407007Y-126904938D01*
X154407027Y-126904935D01*
X155055052Y-126786584D01*
X155388831Y-126725625D01*
X156364538Y-126510209D01*
X157331696Y-126259185D01*
X157332805Y-126258853D01*
X157332817Y-126258850D01*
X158287860Y-125973231D01*
X158287874Y-125973227D01*
X158289006Y-125972888D01*
X158290127Y-125972507D01*
X158290141Y-125972503D01*
X159234051Y-125652089D01*
X159234055Y-125652088D01*
X159235182Y-125651705D01*
X159236273Y-125651289D01*
X159236291Y-125651283D01*
X159986499Y-125365556D01*
X160168953Y-125296066D01*
X160215949Y-125276166D01*
X160686364Y-125076970D01*
X161089065Y-124906448D01*
X161994282Y-124483377D01*
X162883389Y-124027418D01*
X162884365Y-124026871D01*
X162884390Y-124026858D01*
X163754142Y-123539773D01*
X163754146Y-123539771D01*
X163755190Y-123539186D01*
X164608515Y-123019336D01*
X165258931Y-122589651D01*
X165441230Y-122469219D01*
X165441241Y-122469211D01*
X165442218Y-122468566D01*
X166255178Y-121887616D01*
X167046304Y-121277266D01*
X167614740Y-120804503D01*
X167813641Y-120639079D01*
X167813650Y-120639071D01*
X167814534Y-120638336D01*
X168558835Y-119971685D01*
X169278207Y-119278207D01*
X169971685Y-118558835D01*
X170638336Y-117814534D01*
X170887665Y-117514749D01*
X171053920Y-117314848D01*
X171277266Y-117046304D01*
X171887616Y-116255178D01*
X172468566Y-115442218D01*
X172469572Y-115440696D01*
X172862197Y-114846377D01*
X173019336Y-114608515D01*
X173539186Y-113755190D01*
X173608890Y-113630724D01*
X174026858Y-112884390D01*
X174026871Y-112884365D01*
X174027418Y-112883389D01*
X174483377Y-111994282D01*
X174906448Y-111089065D01*
X175264281Y-110244015D01*
X175295611Y-110170028D01*
X175295615Y-110170019D01*
X175296066Y-110168953D01*
X175492134Y-109654154D01*
X175651283Y-109236291D01*
X175651289Y-109236273D01*
X175651705Y-109235182D01*
X175673564Y-109170787D01*
X175972503Y-108290141D01*
X175972507Y-108290127D01*
X175972888Y-108289006D01*
X176013910Y-108151840D01*
X176258850Y-107332817D01*
X176258853Y-107332805D01*
X176259185Y-107331696D01*
X176510209Y-106364538D01*
X176725625Y-105388831D01*
X176844487Y-104738006D01*
X176904935Y-104407027D01*
X176904938Y-104407007D01*
X176905143Y-104405886D01*
X176979186Y-103895222D01*
X177048359Y-103418143D01*
X177048362Y-103418122D01*
X177048521Y-103417023D01*
X177155568Y-102423570D01*
X177165557Y-102282502D01*
X177226055Y-101428037D01*
X177226056Y-101428023D01*
X177226138Y-101426861D01*
X177230993Y-101284287D01*
X177260112Y-100429030D01*
X177260112Y-100429027D01*
X177260139Y-100428236D01*
X177263502Y-100000000D01*
X177245192Y-99000964D01*
X177190285Y-98003270D01*
X177174433Y-97830754D01*
X177098962Y-97009409D01*
X177098961Y-97009396D01*
X177098856Y-97008258D01*
X177095633Y-96983267D01*
X176971174Y-96018396D01*
X176971173Y-96018390D01*
X176971028Y-96017265D01*
X176806972Y-95031621D01*
X176606909Y-94052651D01*
X176604272Y-94041790D01*
X176427052Y-93312044D01*
X176371106Y-93081670D01*
X176099882Y-92119981D01*
X175793600Y-91168877D01*
X175793219Y-91167827D01*
X175453070Y-90230730D01*
X175453060Y-90230705D01*
X175452672Y-90229635D01*
X175077555Y-89303516D01*
X174668754Y-88391765D01*
X174642388Y-88338299D01*
X174227325Y-87496635D01*
X174227324Y-87496633D01*
X174226818Y-87495607D01*
X173752339Y-86616245D01*
X173442937Y-86089934D01*
X173246555Y-85755876D01*
X173246552Y-85755871D01*
X173245957Y-85754859D01*
X172708350Y-84912608D01*
X172707688Y-84911650D01*
X172140898Y-84091573D01*
X172140887Y-84091558D01*
X172140241Y-84090623D01*
X171542393Y-83290007D01*
X171541674Y-83289114D01*
X171541659Y-83289095D01*
X171204430Y-82870416D01*
X170915609Y-82511837D01*
X170260730Y-81757156D01*
X170247759Y-81743270D01*
X169579418Y-81027815D01*
X169578638Y-81026980D01*
X168870247Y-80322289D01*
X168730488Y-80193097D01*
X168137334Y-79644790D01*
X168137316Y-79644774D01*
X168136509Y-79644028D01*
X167378410Y-78993111D01*
X166596968Y-78370410D01*
X166312647Y-78160407D01*
X165794180Y-77777461D01*
X165794164Y-77777449D01*
X165793233Y-77776762D01*
X164968285Y-77212964D01*
X164123230Y-76679775D01*
X163278710Y-76189238D01*
X163260196Y-76178484D01*
X163260194Y-76178483D01*
X163259206Y-76177909D01*
X162377371Y-75708042D01*
X162368587Y-75703767D01*
X161479943Y-75271306D01*
X161479933Y-75271301D01*
X161478911Y-75270804D01*
X161477868Y-75270343D01*
X161477851Y-75270335D01*
X160566125Y-74867265D01*
X160566115Y-74867261D01*
X160565032Y-74866782D01*
X160563951Y-74866351D01*
X160563935Y-74866344D01*
X159836168Y-74575995D01*
X159636962Y-74496520D01*
X159635899Y-74496141D01*
X159635882Y-74496134D01*
X159217305Y-74346674D01*
X158695948Y-74160514D01*
X158694869Y-74160173D01*
X158694846Y-74160165D01*
X158047390Y-73955402D01*
X157743253Y-73859216D01*
X157742151Y-73858911D01*
X157742126Y-73858904D01*
X156781289Y-73593344D01*
X156780157Y-73593031D01*
X155868971Y-73376796D01*
X155809067Y-73362580D01*
X155809060Y-73362579D01*
X155807954Y-73362316D01*
X154827950Y-73167381D01*
X154184835Y-73063795D01*
X153842593Y-73008670D01*
X153842575Y-73008668D01*
X153841461Y-73008488D01*
X153840330Y-73008348D01*
X153840308Y-73008345D01*
X153311918Y-72942999D01*
X152849812Y-72885850D01*
X152296912Y-72837964D01*
X151855471Y-72799731D01*
X151855450Y-72799730D01*
X151854335Y-72799633D01*
X151853205Y-72799577D01*
X151853194Y-72799576D01*
X150857536Y-72750009D01*
X150857525Y-72750009D01*
X150856367Y-72749951D01*
X149899879Y-72737430D01*
X149858396Y-72736887D01*
X149858395Y-72736887D01*
X149857249Y-72736872D01*
X148858323Y-72760413D01*
X148857182Y-72760482D01*
X148857177Y-72760482D01*
X148704452Y-72769689D01*
X147860930Y-72820542D01*
X147023671Y-72901899D01*
X146874953Y-72916350D01*
X146866411Y-72917180D01*
X145876100Y-73050195D01*
X144891329Y-73219410D01*
X144890221Y-73219642D01*
X144890192Y-73219648D01*
X143914535Y-73424362D01*
X143913420Y-73424596D01*
X143912335Y-73424865D01*
X143912311Y-73424871D01*
X143455660Y-73538304D01*
X142943686Y-73665479D01*
X141983431Y-73941735D01*
X141982372Y-73942082D01*
X141982366Y-73942084D01*
X141035044Y-74252632D01*
X141035025Y-74252639D01*
X141033944Y-74252993D01*
X140096499Y-74598834D01*
X140095434Y-74599272D01*
X140095426Y-74599275D01*
X139707050Y-74758956D01*
X139172358Y-74978795D01*
X138262760Y-75392364D01*
X138150675Y-75448370D01*
X137369946Y-75838478D01*
X137368928Y-75838987D01*
X136492062Y-76318063D01*
X135633340Y-76828949D01*
X135632372Y-76829574D01*
X135632364Y-76829579D01*
X135598851Y-76851218D01*
X134793915Y-77370958D01*
X134214239Y-77776099D01*
X134009124Y-77919456D01*
X133974916Y-77943364D01*
X133974031Y-77944032D01*
X133974016Y-77944043D01*
X133391796Y-78383574D01*
X133177441Y-78545395D01*
X132402563Y-79176245D01*
X131651322Y-79835066D01*
X130924727Y-80520973D01*
X130923938Y-80521774D01*
X130923915Y-80521797D01*
X130368001Y-81086513D01*
X130223754Y-81233044D01*
X130222963Y-81233909D01*
X130222958Y-81233914D01*
X129567327Y-81950665D01*
X129549345Y-81970323D01*
X129548608Y-81971191D01*
X129548597Y-81971203D01*
X128946565Y-82679840D01*
X128902406Y-82731819D01*
X128901680Y-82732740D01*
X128339071Y-83446407D01*
X128283805Y-83516511D01*
X127694374Y-84323343D01*
X127498482Y-84613218D01*
X127219882Y-85025484D01*
X127134903Y-85151233D01*
X127134308Y-85152187D01*
X127134297Y-85152204D01*
X127018145Y-85338448D01*
X126606146Y-85999067D01*
X126605575Y-86000062D01*
X126605572Y-86000067D01*
X126174250Y-86751676D01*
X126108811Y-86865708D01*
X126108258Y-86866759D01*
X126108252Y-86866770D01*
X126057065Y-86964060D01*
X125643567Y-87749991D01*
X125643058Y-87751052D01*
X125643056Y-87751055D01*
X125247729Y-88574324D01*
X125211040Y-88650728D01*
X124995671Y-89144862D01*
X124832192Y-89519944D01*
X124811809Y-89566709D01*
X124446411Y-90496705D01*
X124446043Y-90497752D01*
X124446034Y-90497777D01*
X124296181Y-90924498D01*
X124115337Y-91439466D01*
X124114997Y-91440560D01*
X124114993Y-91440573D01*
X124046257Y-91661940D01*
X123819031Y-92393725D01*
X123557892Y-93358202D01*
X123557640Y-93359288D01*
X123557636Y-93359305D01*
X123544698Y-93415124D01*
X123332271Y-94331599D01*
X123243165Y-94792156D01*
X123163323Y-95204832D01*
X123142470Y-95312611D01*
X122988744Y-96299918D01*
X122988614Y-96301015D01*
X122988611Y-96301038D01*
X122918407Y-96894192D01*
X122871300Y-97292196D01*
X122871205Y-97293366D01*
X122793964Y-98243020D01*
X122790296Y-98288111D01*
X122745841Y-99286325D01*
X122738797Y-100183199D01*
X122737993Y-100285498D01*
X121941396Y-100285498D01*
X121959115Y-100219371D01*
X121978307Y-100000000D01*
X121959115Y-99780629D01*
X121902120Y-99567924D01*
X121858585Y-99474562D01*
X121811382Y-99373334D01*
X121811379Y-99373329D01*
X121809056Y-99368347D01*
X121682749Y-99187962D01*
X121618777Y-99123990D01*
X121584751Y-99061678D01*
X121589816Y-98990863D01*
X121618777Y-98945800D01*
X121751019Y-98813558D01*
X121877326Y-98633173D01*
X121879649Y-98628191D01*
X121879652Y-98628186D01*
X121968065Y-98438581D01*
X121970390Y-98433596D01*
X122027385Y-98220891D01*
X122046577Y-98001520D01*
X122027385Y-97782149D01*
X121970390Y-97569444D01*
X121926855Y-97476082D01*
X121879652Y-97374854D01*
X121879649Y-97374849D01*
X121877326Y-97369867D01*
X121751019Y-97189482D01*
X121747127Y-97185590D01*
X121746402Y-97184726D01*
X121717935Y-97119687D01*
X121729150Y-97049582D01*
X121770650Y-97000519D01*
X121795289Y-96983267D01*
X121795291Y-96983265D01*
X121799800Y-96980108D01*
X121955511Y-96824397D01*
X122017018Y-96736557D01*
X122078661Y-96648521D01*
X122078662Y-96648519D01*
X122081818Y-96644012D01*
X122084141Y-96639030D01*
X122084144Y-96639025D01*
X122172557Y-96449420D01*
X122174882Y-96444435D01*
X122231877Y-96231730D01*
X122251069Y-96012359D01*
X122231877Y-95792988D01*
X122174882Y-95580283D01*
X122131347Y-95486921D01*
X122084144Y-95385693D01*
X122084141Y-95385688D01*
X122081818Y-95380706D01*
X121998694Y-95261992D01*
X121976006Y-95194719D01*
X121993291Y-95125858D01*
X122029636Y-95086509D01*
X122135049Y-95012698D01*
X122135051Y-95012696D01*
X122139560Y-95009539D01*
X122295271Y-94853828D01*
X122338455Y-94792156D01*
X122418421Y-94677952D01*
X122418422Y-94677950D01*
X122421578Y-94673443D01*
X122423901Y-94668461D01*
X122423904Y-94668456D01*
X122512317Y-94478851D01*
X122514642Y-94473866D01*
X122571637Y-94261161D01*
X122590829Y-94041790D01*
X122571637Y-93822419D01*
X122514642Y-93609714D01*
X122460586Y-93493791D01*
X122423901Y-93415118D01*
X122423899Y-93415115D01*
X122421578Y-93410137D01*
X122395107Y-93372333D01*
X122372420Y-93305061D01*
X122389705Y-93236200D01*
X122432854Y-93193390D01*
X122432621Y-93193057D01*
X122434556Y-93191702D01*
X122437130Y-93189900D01*
X122608494Y-93069909D01*
X122608496Y-93069907D01*
X122613005Y-93066750D01*
X122768716Y-92911039D01*
X122777524Y-92898461D01*
X122891866Y-92735163D01*
X122891867Y-92735161D01*
X122895023Y-92730654D01*
X122897346Y-92725672D01*
X122897349Y-92725667D01*
X122985762Y-92536062D01*
X122988087Y-92531077D01*
X123045082Y-92318372D01*
X123064274Y-92099001D01*
X123045082Y-91879630D01*
X122988087Y-91666925D01*
X122904691Y-91488081D01*
X122894030Y-91417889D01*
X122923010Y-91353076D01*
X122965637Y-91320636D01*
X123032551Y-91289434D01*
X123032557Y-91289430D01*
X123037542Y-91287106D01*
X123138647Y-91216311D01*
X123213415Y-91163958D01*
X123213417Y-91163956D01*
X123217926Y-91160799D01*
X123373637Y-91005088D01*
X123438902Y-90911881D01*
X123496787Y-90829212D01*
X123496788Y-90829210D01*
X123499944Y-90824703D01*
X123502267Y-90819721D01*
X123502270Y-90819716D01*
X123590683Y-90630111D01*
X123593008Y-90625126D01*
X123650003Y-90412421D01*
X123669195Y-90193050D01*
X123650003Y-89973679D01*
X123593008Y-89760974D01*
X123590685Y-89755992D01*
X123590682Y-89755984D01*
X123550105Y-89668966D01*
X123539444Y-89598775D01*
X123568424Y-89533962D01*
X123611050Y-89501522D01*
X123766134Y-89429206D01*
X123766139Y-89429203D01*
X123771121Y-89426880D01*
X123928252Y-89316855D01*
X123946994Y-89303732D01*
X123946996Y-89303730D01*
X123951505Y-89300573D01*
X124107216Y-89144862D01*
X124204498Y-89005930D01*
X124230366Y-88968986D01*
X124230367Y-88968984D01*
X124233523Y-88964477D01*
X124235846Y-88959495D01*
X124235849Y-88959490D01*
X124324262Y-88769885D01*
X124326587Y-88764900D01*
X124383582Y-88552195D01*
X124402774Y-88332824D01*
X124383582Y-88113453D01*
X124326587Y-87900748D01*
X124324213Y-87895656D01*
X124324205Y-87895606D01*
X124322381Y-87890594D01*
X124323388Y-87890227D01*
X124313550Y-87825465D01*
X124342528Y-87760651D01*
X124405793Y-87720697D01*
X124430357Y-87714115D01*
X124467786Y-87696662D01*
X124491677Y-87685521D01*
X124629935Y-87621051D01*
X124766685Y-87525297D01*
X124805808Y-87497903D01*
X124805810Y-87497901D01*
X124810319Y-87494744D01*
X124966030Y-87339033D01*
X124996891Y-87294960D01*
X125089180Y-87163157D01*
X125089181Y-87163155D01*
X125092337Y-87158648D01*
X125094660Y-87153666D01*
X125094663Y-87153661D01*
X125183005Y-86964209D01*
X125185401Y-86959071D01*
X125242396Y-86746366D01*
X125261588Y-86526995D01*
X125242396Y-86307624D01*
X125240972Y-86302312D01*
X125240971Y-86302303D01*
X125202132Y-86157357D01*
X125203821Y-86086381D01*
X125243614Y-86027584D01*
X125291226Y-86003039D01*
X125405081Y-85972531D01*
X125405091Y-85972527D01*
X125410403Y-85971104D01*
X125609981Y-85878040D01*
X125711086Y-85807245D01*
X125785854Y-85754892D01*
X125785856Y-85754890D01*
X125790365Y-85751733D01*
X125946076Y-85596022D01*
X126058058Y-85436096D01*
X126069226Y-85420146D01*
X126069227Y-85420144D01*
X126072383Y-85415637D01*
X126074706Y-85410655D01*
X126074709Y-85410650D01*
X126139833Y-85270989D01*
X126165447Y-85216060D01*
X126222442Y-85003355D01*
X126241634Y-84783984D01*
X126222442Y-84564613D01*
X126207728Y-84509701D01*
X126209418Y-84438726D01*
X126249212Y-84379930D01*
X126296823Y-84355385D01*
X126501790Y-84300463D01*
X126501800Y-84300459D01*
X126507112Y-84299036D01*
X126706690Y-84205972D01*
X126870068Y-84091573D01*
X126882563Y-84082824D01*
X126882565Y-84082822D01*
X126887074Y-84079665D01*
X127042785Y-83923954D01*
X127169092Y-83743569D01*
X127171415Y-83738587D01*
X127171418Y-83738582D01*
X127259831Y-83548977D01*
X127262156Y-83543992D01*
X127319151Y-83331287D01*
X127338343Y-83111916D01*
X127320253Y-82905143D01*
X127334242Y-82835540D01*
X127383642Y-82784547D01*
X127434792Y-82768642D01*
X127475367Y-82765092D01*
X127502665Y-82762704D01*
X127715370Y-82705709D01*
X127914948Y-82612645D01*
X128095332Y-82486338D01*
X128251043Y-82330627D01*
X128275303Y-82295981D01*
X128374193Y-82154751D01*
X128374194Y-82154749D01*
X128377350Y-82150242D01*
X128379673Y-82145260D01*
X128379676Y-82145255D01*
X128437608Y-82021017D01*
X128470414Y-81950665D01*
X128527409Y-81737960D01*
X128546601Y-81518589D01*
X128536797Y-81406527D01*
X128550786Y-81336923D01*
X128600186Y-81285930D01*
X128651336Y-81270025D01*
X128816839Y-81255546D01*
X129029544Y-81198551D01*
X129229122Y-81105487D01*
X129330227Y-81034692D01*
X129404995Y-80982339D01*
X129404997Y-80982337D01*
X129409506Y-80979180D01*
X129565217Y-80823469D01*
X129643926Y-80711062D01*
X129688367Y-80647593D01*
X129688368Y-80647591D01*
X129691524Y-80643084D01*
X129693847Y-80638102D01*
X129693850Y-80638097D01*
X129782263Y-80448492D01*
X129784588Y-80443507D01*
X129841583Y-80230802D01*
X129860775Y-80011431D01*
X129859418Y-79995920D01*
X129873407Y-79926316D01*
X129922807Y-79875323D01*
X129995920Y-79859418D01*
X130011431Y-79860775D01*
X130230802Y-79841583D01*
X130443507Y-79784588D01*
X130643085Y-79691524D01*
X130803278Y-79579355D01*
X130818958Y-79568376D01*
X130818960Y-79568374D01*
X130823469Y-79565217D01*
X130979180Y-79409506D01*
X131105487Y-79229121D01*
X131107810Y-79224139D01*
X131107813Y-79224134D01*
X131196226Y-79034529D01*
X131198551Y-79029544D01*
X131255546Y-78816839D01*
X131270025Y-78651336D01*
X131295888Y-78585218D01*
X131353392Y-78543579D01*
X131406527Y-78536797D01*
X131518589Y-78546601D01*
X131737960Y-78527409D01*
X131950665Y-78470414D01*
X132150243Y-78377350D01*
X132330627Y-78251043D01*
X132486338Y-78095332D01*
X132523648Y-78042049D01*
X132609488Y-77919456D01*
X132609489Y-77919454D01*
X132612645Y-77914947D01*
X132614968Y-77909965D01*
X132614971Y-77909960D01*
X132670936Y-77789941D01*
X132705709Y-77715370D01*
X132762704Y-77502665D01*
X132768642Y-77434792D01*
X132794505Y-77368674D01*
X132852009Y-77327035D01*
X132905143Y-77320253D01*
X133111916Y-77338343D01*
X133331287Y-77319151D01*
X133543992Y-77262156D01*
X133743570Y-77169092D01*
X133899116Y-77060177D01*
X133919443Y-77045944D01*
X133919445Y-77045942D01*
X133923954Y-77042785D01*
X134079665Y-76887074D01*
X134108263Y-76846233D01*
X134202815Y-76711198D01*
X134202816Y-76711196D01*
X134205972Y-76706689D01*
X134208295Y-76701707D01*
X134208298Y-76701702D01*
X134296711Y-76512097D01*
X134299036Y-76507112D01*
X134300459Y-76501800D01*
X134300463Y-76501790D01*
X134355385Y-76296823D01*
X134392336Y-76236201D01*
X134456197Y-76205179D01*
X134509700Y-76207728D01*
X134564613Y-76222442D01*
X134783984Y-76241634D01*
X135003355Y-76222442D01*
X135216060Y-76165447D01*
X135415638Y-76072383D01*
X135596022Y-75946076D01*
X135751733Y-75790365D01*
X135809377Y-75708042D01*
X135874883Y-75614489D01*
X135874884Y-75614487D01*
X135878040Y-75609980D01*
X135880363Y-75604998D01*
X135880366Y-75604993D01*
X135927569Y-75503765D01*
X135971104Y-75410403D01*
X135972527Y-75405091D01*
X135972531Y-75405081D01*
X136003039Y-75291226D01*
X136039990Y-75230604D01*
X136103851Y-75199582D01*
X136157357Y-75202132D01*
X136302303Y-75240971D01*
X136302312Y-75240972D01*
X136307624Y-75242396D01*
X136526995Y-75261588D01*
X136746366Y-75242396D01*
X136959071Y-75185401D01*
X137158649Y-75092337D01*
X137313174Y-74984137D01*
X137334522Y-74969189D01*
X137334524Y-74969187D01*
X137339033Y-74966030D01*
X137494744Y-74810319D01*
X137532401Y-74756540D01*
X137617894Y-74634443D01*
X137617895Y-74634441D01*
X137621051Y-74629934D01*
X137623374Y-74624952D01*
X137623377Y-74624947D01*
X137711792Y-74435339D01*
X137711792Y-74435338D01*
X137714115Y-74430357D01*
X137715537Y-74425051D01*
X137715540Y-74425042D01*
X137720696Y-74405797D01*
X137757646Y-74345173D01*
X137821507Y-74314151D01*
X137890197Y-74323472D01*
X137890594Y-74322381D01*
X137895610Y-74324207D01*
X137895656Y-74324213D01*
X137895759Y-74324261D01*
X137895763Y-74324262D01*
X137900748Y-74326587D01*
X138113453Y-74383582D01*
X138332824Y-74402774D01*
X138552195Y-74383582D01*
X138764900Y-74326587D01*
X138964478Y-74233523D01*
X139144862Y-74107216D01*
X139300573Y-73951505D01*
X139307631Y-73941426D01*
X139423723Y-73775629D01*
X139423724Y-73775627D01*
X139426880Y-73771120D01*
X139429203Y-73766138D01*
X139429206Y-73766133D01*
X139501522Y-73611050D01*
X139548439Y-73557765D01*
X139616717Y-73538304D01*
X139668966Y-73550105D01*
X139755984Y-73590682D01*
X139755992Y-73590685D01*
X139760974Y-73593008D01*
X139973679Y-73650003D01*
X140193050Y-73669195D01*
X140412421Y-73650003D01*
X140625126Y-73593008D01*
X140824704Y-73499944D01*
X141005088Y-73373637D01*
X141160799Y-73217926D01*
X141185713Y-73182346D01*
X141283949Y-73042050D01*
X141283950Y-73042048D01*
X141287106Y-73037541D01*
X141289429Y-73032559D01*
X141289432Y-73032554D01*
X141320636Y-72965636D01*
X141367553Y-72912351D01*
X141435831Y-72892890D01*
X141488080Y-72904691D01*
X141666925Y-72988087D01*
X141879630Y-73045082D01*
X142099001Y-73064274D01*
X142318372Y-73045082D01*
X142531077Y-72988087D01*
X142730655Y-72895023D01*
X142911039Y-72768716D01*
X143066750Y-72613005D01*
X143193057Y-72432620D01*
X143193471Y-72432910D01*
X143242331Y-72386326D01*
X143312046Y-72372893D01*
X143372333Y-72395109D01*
X143405622Y-72418418D01*
X143405627Y-72418421D01*
X143410136Y-72421578D01*
X143609714Y-72514642D01*
X143822419Y-72571637D01*
X144041790Y-72590829D01*
X144261161Y-72571637D01*
X144473866Y-72514642D01*
X144673444Y-72421578D01*
X144807902Y-72327429D01*
X144849317Y-72298430D01*
X144849319Y-72298428D01*
X144853828Y-72295271D01*
X145009539Y-72139560D01*
X145048343Y-72084143D01*
X145086509Y-72029636D01*
X145141966Y-71985308D01*
X145212586Y-71977999D01*
X145261991Y-71998693D01*
X145380705Y-72081818D01*
X145580283Y-72174882D01*
X145792988Y-72231877D01*
X146012359Y-72251069D01*
X146231730Y-72231877D01*
X146444435Y-72174882D01*
X146644013Y-72081818D01*
X146792281Y-71977999D01*
X146819886Y-71958670D01*
X146819888Y-71958668D01*
X146824397Y-71955511D01*
X146980108Y-71799800D01*
X147000519Y-71770650D01*
X147055976Y-71726322D01*
X147126595Y-71719013D01*
X147184726Y-71746402D01*
X147185591Y-71747128D01*
X147189482Y-71751019D01*
X147193983Y-71754171D01*
X147193987Y-71754174D01*
X147267858Y-71805899D01*
X147369866Y-71877326D01*
X147569444Y-71970390D01*
X147782149Y-72027385D01*
X148001520Y-72046577D01*
X148220891Y-72027385D01*
X148433596Y-71970390D01*
X148633174Y-71877326D01*
X148735182Y-71805899D01*
X148809047Y-71754178D01*
X148809052Y-71754174D01*
X148813558Y-71751019D01*
X148945800Y-71618777D01*
X149008112Y-71584751D01*
X149078927Y-71589816D01*
G37*
%TD.AperFunction*%
%TA.AperFunction,NonConductor*%
G36*
X150827447Y-68772943D02*
G01*
X151088129Y-68777493D01*
X151092524Y-68777647D01*
X152177076Y-68834487D01*
X152181464Y-68834793D01*
X153263443Y-68929453D01*
X153267817Y-68929913D01*
X154345792Y-69062272D01*
X154350147Y-69062884D01*
X154630797Y-69107335D01*
X155422890Y-69232790D01*
X155427175Y-69233546D01*
X156493314Y-69440782D01*
X156497594Y-69441692D01*
X157160464Y-69594727D01*
X157555863Y-69686012D01*
X157560130Y-69687076D01*
X157776566Y-69745070D01*
X158609225Y-69968180D01*
X158613436Y-69969389D01*
X158986373Y-70083407D01*
X159652047Y-70286924D01*
X159656230Y-70288283D01*
X160683145Y-70641878D01*
X160687277Y-70643382D01*
X161701203Y-71032592D01*
X161705281Y-71034239D01*
X161998088Y-71158528D01*
X162705054Y-71458617D01*
X162709045Y-71460394D01*
X163693409Y-71919411D01*
X163697301Y-71921309D01*
X164466961Y-72313470D01*
X164665045Y-72414399D01*
X164668928Y-72416464D01*
X164701794Y-72434682D01*
X165618841Y-72943009D01*
X165622615Y-72945188D01*
X166553609Y-73504585D01*
X166557306Y-73506896D01*
X166944989Y-73758660D01*
X167468175Y-74098422D01*
X167471821Y-74100881D01*
X167949477Y-74435339D01*
X168293920Y-74676520D01*
X168361491Y-74723834D01*
X168365040Y-74726413D01*
X169180700Y-75341056D01*
X169232447Y-75380050D01*
X169235910Y-75382756D01*
X169316936Y-75448370D01*
X170079941Y-76066240D01*
X170083310Y-76069067D01*
X170902961Y-76781578D01*
X170906230Y-76784520D01*
X171700583Y-77525267D01*
X171703746Y-77528323D01*
X172471677Y-78296254D01*
X172474733Y-78299417D01*
X173215480Y-79093770D01*
X173218422Y-79097039D01*
X173930933Y-79916690D01*
X173933760Y-79920059D01*
X174617242Y-80764088D01*
X174619948Y-80767551D01*
X175190022Y-81524064D01*
X175273581Y-81634951D01*
X175276160Y-81638500D01*
X175421423Y-81845958D01*
X175899119Y-82528179D01*
X175901578Y-82531825D01*
X176109509Y-82852009D01*
X176491163Y-83439703D01*
X176493094Y-83442677D01*
X176495415Y-83446391D01*
X177048549Y-84366960D01*
X177054802Y-84377367D01*
X177056991Y-84381159D01*
X177318643Y-84853192D01*
X177583536Y-85331072D01*
X177585601Y-85334955D01*
X178078691Y-86302699D01*
X178080589Y-86306591D01*
X178515271Y-87238768D01*
X178539600Y-87290942D01*
X178541383Y-87294946D01*
X178719913Y-87715537D01*
X178965761Y-88294719D01*
X178967408Y-88298797D01*
X179356618Y-89312723D01*
X179358122Y-89316855D01*
X179711717Y-90343770D01*
X179713076Y-90347953D01*
X179857309Y-90819716D01*
X180028657Y-91380170D01*
X180030609Y-91386556D01*
X180031820Y-91390775D01*
X180161385Y-91874320D01*
X180312924Y-92439870D01*
X180313988Y-92444137D01*
X180538157Y-93415118D01*
X180558306Y-93502395D01*
X180559218Y-93506686D01*
X180748188Y-94478851D01*
X180766450Y-94572802D01*
X180767210Y-94577110D01*
X180839024Y-95030522D01*
X180937116Y-95649853D01*
X180937728Y-95654208D01*
X181070087Y-96732183D01*
X181070547Y-96736557D01*
X181165207Y-97818536D01*
X181165513Y-97822924D01*
X181222353Y-98907476D01*
X181222507Y-98911871D01*
X181224187Y-99008113D01*
X181241405Y-99994525D01*
X181241462Y-99997801D01*
X181241462Y-100002177D01*
X181233958Y-100432076D01*
X181222507Y-101088129D01*
X181222353Y-101092524D01*
X181165513Y-102177076D01*
X181165207Y-102181464D01*
X181070547Y-103263443D01*
X181070087Y-103267817D01*
X180937728Y-104345792D01*
X180937116Y-104350147D01*
X180895277Y-104614306D01*
X180772605Y-105388831D01*
X180767214Y-105422867D01*
X180766454Y-105427175D01*
X180559220Y-106493303D01*
X180558308Y-106497594D01*
X180388863Y-107231543D01*
X180313988Y-107555863D01*
X180312924Y-107560130D01*
X180052338Y-108532651D01*
X180031822Y-108609216D01*
X180030611Y-108613436D01*
X180000204Y-108712893D01*
X179713076Y-109652047D01*
X179711717Y-109656230D01*
X179358122Y-110683145D01*
X179356618Y-110687277D01*
X178967408Y-111701203D01*
X178965761Y-111705281D01*
X178843529Y-111993242D01*
X178569811Y-112638083D01*
X178541389Y-112705040D01*
X178539606Y-112709045D01*
X178080589Y-113693409D01*
X178078691Y-113697301D01*
X177718622Y-114403977D01*
X177585601Y-114665045D01*
X177583536Y-114668928D01*
X177550232Y-114729010D01*
X177063188Y-115607663D01*
X177057001Y-115618824D01*
X177054812Y-115622615D01*
X176551971Y-116459484D01*
X176495425Y-116553593D01*
X176493104Y-116557306D01*
X176420757Y-116668712D01*
X175901578Y-117468175D01*
X175899119Y-117471821D01*
X175637643Y-117845248D01*
X175374187Y-118221503D01*
X175276166Y-118361491D01*
X175273587Y-118365040D01*
X174658687Y-119181041D01*
X174619950Y-119232447D01*
X174617244Y-119235910D01*
X174444558Y-119449159D01*
X173933760Y-120079941D01*
X173930933Y-120083310D01*
X173218422Y-120902961D01*
X173215480Y-120906230D01*
X172474733Y-121700583D01*
X172471677Y-121703746D01*
X171703746Y-122471677D01*
X171700584Y-122474732D01*
X171677147Y-122496587D01*
X170906230Y-123215480D01*
X170902961Y-123218422D01*
X170083310Y-123930933D01*
X170079941Y-123933760D01*
X169235912Y-124617242D01*
X169232449Y-124619948D01*
X168406931Y-125242021D01*
X168365049Y-125273581D01*
X168361500Y-125276160D01*
X168333071Y-125296066D01*
X167471821Y-125899119D01*
X167468175Y-125901578D01*
X167051018Y-126172484D01*
X166557306Y-126493104D01*
X166553609Y-126495415D01*
X165622615Y-127054812D01*
X165618841Y-127056991D01*
X164833730Y-127492185D01*
X164668928Y-127583536D01*
X164665045Y-127585601D01*
X163697301Y-128078691D01*
X163693409Y-128080589D01*
X162709045Y-128539606D01*
X162705054Y-128541383D01*
X162359252Y-128688167D01*
X161705281Y-128965761D01*
X161701203Y-128967408D01*
X160687277Y-129356618D01*
X160683145Y-129358122D01*
X159656230Y-129711717D01*
X159652047Y-129713076D01*
X159172799Y-129859597D01*
X158619469Y-130028767D01*
X158613444Y-130030609D01*
X158609225Y-130031820D01*
X158027707Y-130187637D01*
X157560130Y-130312924D01*
X157555863Y-130313988D01*
X156497594Y-130558308D01*
X156493314Y-130559218D01*
X155427175Y-130766454D01*
X155422890Y-130767210D01*
X154630797Y-130892665D01*
X154350147Y-130937116D01*
X154345792Y-130937728D01*
X153267817Y-131070087D01*
X153263443Y-131070547D01*
X152181464Y-131165207D01*
X152177076Y-131165513D01*
X151092524Y-131222353D01*
X151088129Y-131222507D01*
X150827447Y-131227057D01*
X150002177Y-131241462D01*
X149997823Y-131241462D01*
X149172553Y-131227057D01*
X148911871Y-131222507D01*
X148907476Y-131222353D01*
X147822924Y-131165513D01*
X147818536Y-131165207D01*
X146736557Y-131070547D01*
X146732183Y-131070087D01*
X145654208Y-130937728D01*
X145649853Y-130937116D01*
X145369203Y-130892665D01*
X144577110Y-130767210D01*
X144572825Y-130766454D01*
X143506686Y-130559218D01*
X143502406Y-130558308D01*
X142444137Y-130313988D01*
X142439870Y-130312924D01*
X141972293Y-130187637D01*
X141390775Y-130031820D01*
X141386556Y-130030609D01*
X141380532Y-130028767D01*
X140827201Y-129859597D01*
X140347953Y-129713076D01*
X140343770Y-129711717D01*
X139316855Y-129358122D01*
X139312723Y-129356618D01*
X138298797Y-128967408D01*
X138294719Y-128965761D01*
X137640748Y-128688167D01*
X137294946Y-128541383D01*
X137290955Y-128539606D01*
X136306591Y-128080589D01*
X136302699Y-128078691D01*
X135334955Y-127585601D01*
X135331072Y-127583536D01*
X135166270Y-127492185D01*
X134381159Y-127056991D01*
X134377385Y-127054812D01*
X133446391Y-126495415D01*
X133442694Y-126493104D01*
X132948982Y-126172484D01*
X132531825Y-125901578D01*
X132528179Y-125899119D01*
X131666929Y-125296066D01*
X131638500Y-125276160D01*
X131634951Y-125273581D01*
X131593070Y-125242021D01*
X130767551Y-124619948D01*
X130764088Y-124617242D01*
X129920059Y-123933760D01*
X129916690Y-123930933D01*
X129097039Y-123218422D01*
X129093770Y-123215480D01*
X128322853Y-122496587D01*
X128299416Y-122474732D01*
X128296254Y-122471677D01*
X127528323Y-121703746D01*
X127525267Y-121700583D01*
X126784520Y-120906230D01*
X126781578Y-120902961D01*
X126069067Y-120083310D01*
X126066240Y-120079941D01*
X125555442Y-119449159D01*
X125382756Y-119235910D01*
X125380050Y-119232447D01*
X125341313Y-119181041D01*
X124726413Y-118365040D01*
X124723834Y-118361491D01*
X124625814Y-118221503D01*
X124362357Y-117845248D01*
X124100881Y-117471821D01*
X124098422Y-117468175D01*
X123579243Y-116668712D01*
X123506896Y-116557306D01*
X123504575Y-116553593D01*
X123448029Y-116459484D01*
X122945188Y-115622615D01*
X122942999Y-115618824D01*
X122936813Y-115607663D01*
X122449768Y-114729010D01*
X122416464Y-114668928D01*
X122414399Y-114665045D01*
X122281378Y-114403977D01*
X121921309Y-113697301D01*
X121919411Y-113693409D01*
X121460394Y-112709045D01*
X121458611Y-112705040D01*
X121430190Y-112638083D01*
X121156471Y-111993242D01*
X121034239Y-111705281D01*
X121032592Y-111701203D01*
X120643382Y-110687277D01*
X120641878Y-110683145D01*
X120288283Y-109656230D01*
X120286924Y-109652047D01*
X119999796Y-108712893D01*
X119969389Y-108613436D01*
X119968178Y-108609216D01*
X119947663Y-108532651D01*
X119687076Y-107560130D01*
X119686012Y-107555863D01*
X119611137Y-107231543D01*
X119441692Y-106497594D01*
X119440780Y-106493303D01*
X119233546Y-105427175D01*
X119232786Y-105422867D01*
X119227396Y-105388831D01*
X119104723Y-104614306D01*
X119062884Y-104350147D01*
X119062272Y-104345792D01*
X118929913Y-103267817D01*
X118929453Y-103263443D01*
X118834793Y-102181464D01*
X118834487Y-102177076D01*
X118777647Y-101092524D01*
X118777493Y-101088129D01*
X118766042Y-100432076D01*
X118758538Y-100002177D01*
X118758538Y-100000000D01*
X119451693Y-100000000D01*
X119470885Y-100219371D01*
X119527880Y-100432076D01*
X119530205Y-100437061D01*
X119618618Y-100626666D01*
X119618621Y-100626671D01*
X119620944Y-100631653D01*
X119747251Y-100812038D01*
X119879493Y-100944280D01*
X119913519Y-101006592D01*
X119908454Y-101077407D01*
X119879497Y-101122465D01*
X119815521Y-101186441D01*
X119689214Y-101366826D01*
X119686891Y-101371808D01*
X119686888Y-101371813D01*
X119661764Y-101425692D01*
X119596150Y-101566403D01*
X119539155Y-101779108D01*
X119519963Y-101998479D01*
X119539155Y-102217850D01*
X119596150Y-102430555D01*
X119598475Y-102435540D01*
X119686888Y-102625145D01*
X119686891Y-102625150D01*
X119689214Y-102630132D01*
X119815521Y-102810517D01*
X119971232Y-102966228D01*
X119975741Y-102969385D01*
X119975743Y-102969387D01*
X120000382Y-102986639D01*
X120044710Y-103042096D01*
X120052019Y-103112715D01*
X120024630Y-103170846D01*
X120023905Y-103171710D01*
X120020013Y-103175602D01*
X119893706Y-103355987D01*
X119891383Y-103360969D01*
X119891380Y-103360974D01*
X119864722Y-103418143D01*
X119800642Y-103555564D01*
X119743647Y-103768269D01*
X119724455Y-103987640D01*
X119743647Y-104207011D01*
X119800642Y-104419716D01*
X119802967Y-104424701D01*
X119891380Y-104614306D01*
X119891383Y-104614311D01*
X119893706Y-104619293D01*
X119896862Y-104623800D01*
X119896863Y-104623802D01*
X119976830Y-104738006D01*
X120020013Y-104799678D01*
X120175724Y-104955389D01*
X120180233Y-104958546D01*
X120180235Y-104958548D01*
X120285648Y-105032359D01*
X120329976Y-105087816D01*
X120337285Y-105158436D01*
X120316590Y-105207842D01*
X120233466Y-105326556D01*
X120231143Y-105331538D01*
X120231140Y-105331543D01*
X120204951Y-105387707D01*
X120140402Y-105526133D01*
X120083407Y-105738838D01*
X120064215Y-105958209D01*
X120083407Y-106177580D01*
X120140402Y-106390285D01*
X120142727Y-106395270D01*
X120231140Y-106584875D01*
X120231143Y-106584880D01*
X120233466Y-106589862D01*
X120236622Y-106594369D01*
X120236623Y-106594371D01*
X120350966Y-106757669D01*
X120359773Y-106770247D01*
X120515484Y-106925958D01*
X120519993Y-106929115D01*
X120519995Y-106929117D01*
X120531462Y-106937146D01*
X120693809Y-107050823D01*
X120695868Y-107052265D01*
X120695578Y-107052679D01*
X120742163Y-107101538D01*
X120755597Y-107171252D01*
X120733382Y-107231540D01*
X120706911Y-107269345D01*
X120704590Y-107274323D01*
X120704588Y-107274326D01*
X120678363Y-107330566D01*
X120613847Y-107468922D01*
X120556852Y-107681627D01*
X120537660Y-107900998D01*
X120556852Y-108120369D01*
X120613847Y-108333074D01*
X120616172Y-108338059D01*
X120704585Y-108527664D01*
X120704588Y-108527669D01*
X120706911Y-108532651D01*
X120710067Y-108537158D01*
X120710068Y-108537160D01*
X120767954Y-108619829D01*
X120833218Y-108713036D01*
X120988929Y-108868747D01*
X120993438Y-108871904D01*
X120993440Y-108871906D01*
X121068208Y-108924259D01*
X121169313Y-108995054D01*
X121174298Y-108997378D01*
X121174304Y-108997382D01*
X121241218Y-109028584D01*
X121294504Y-109075501D01*
X121313965Y-109143778D01*
X121302164Y-109196029D01*
X121218768Y-109374873D01*
X121161773Y-109587578D01*
X121142581Y-109806949D01*
X121161773Y-110026320D01*
X121218768Y-110239025D01*
X121221093Y-110244010D01*
X121309506Y-110433615D01*
X121309509Y-110433620D01*
X121311832Y-110438602D01*
X121314988Y-110443109D01*
X121314989Y-110443111D01*
X121340858Y-110480055D01*
X121438139Y-110618987D01*
X121593850Y-110774698D01*
X121774234Y-110901005D01*
X121779216Y-110903328D01*
X121779221Y-110903331D01*
X121934305Y-110975647D01*
X121987590Y-111022564D01*
X122007051Y-111090841D01*
X121995250Y-111143091D01*
X121954673Y-111230109D01*
X121954670Y-111230117D01*
X121952347Y-111235099D01*
X121895352Y-111447804D01*
X121876160Y-111667175D01*
X121895352Y-111886546D01*
X121952347Y-112099251D01*
X121954743Y-112104389D01*
X122043085Y-112293841D01*
X122043088Y-112293846D01*
X122045411Y-112298828D01*
X122048567Y-112303335D01*
X122048568Y-112303337D01*
X122101512Y-112378948D01*
X122171718Y-112479213D01*
X122327429Y-112634924D01*
X122331938Y-112638081D01*
X122331940Y-112638083D01*
X122371063Y-112665477D01*
X122507813Y-112761231D01*
X122646071Y-112825701D01*
X122669963Y-112836842D01*
X122707391Y-112854295D01*
X122731955Y-112860877D01*
X122792577Y-112897829D01*
X122823598Y-112961690D01*
X122814276Y-113030377D01*
X122815367Y-113030774D01*
X122813541Y-113035790D01*
X122813535Y-113035836D01*
X122811161Y-113040928D01*
X122754166Y-113253633D01*
X122734974Y-113473004D01*
X122754166Y-113692375D01*
X122811161Y-113905080D01*
X122836775Y-113960009D01*
X122901899Y-114099670D01*
X122901902Y-114099675D01*
X122904225Y-114104657D01*
X122907381Y-114109164D01*
X122907382Y-114109166D01*
X122931352Y-114143398D01*
X123030532Y-114285042D01*
X123186243Y-114440753D01*
X123190752Y-114443910D01*
X123190754Y-114443912D01*
X123253413Y-114487786D01*
X123366627Y-114567060D01*
X123566205Y-114660124D01*
X123571517Y-114661547D01*
X123571527Y-114661551D01*
X123685382Y-114692059D01*
X123746004Y-114729010D01*
X123777026Y-114792871D01*
X123774476Y-114846377D01*
X123735637Y-114991323D01*
X123735636Y-114991332D01*
X123734212Y-114996644D01*
X123715020Y-115216015D01*
X123734212Y-115435386D01*
X123791207Y-115648091D01*
X123793532Y-115653076D01*
X123881945Y-115842681D01*
X123881948Y-115842686D01*
X123884271Y-115847668D01*
X124010578Y-116028053D01*
X124166289Y-116183764D01*
X124346673Y-116310071D01*
X124546251Y-116403135D01*
X124551563Y-116404558D01*
X124551573Y-116404562D01*
X124756540Y-116459484D01*
X124817162Y-116496435D01*
X124848184Y-116560296D01*
X124845635Y-116613799D01*
X124830921Y-116668712D01*
X124811729Y-116888083D01*
X124830921Y-117107454D01*
X124887916Y-117320159D01*
X124920722Y-117390511D01*
X124978654Y-117514749D01*
X124978657Y-117514754D01*
X124980980Y-117519736D01*
X124984136Y-117524243D01*
X124984137Y-117524245D01*
X125083028Y-117665475D01*
X125107287Y-117700121D01*
X125262998Y-117855832D01*
X125443382Y-117982139D01*
X125642960Y-118075203D01*
X125855665Y-118132198D01*
X125882963Y-118134586D01*
X125923538Y-118138136D01*
X125989656Y-118163999D01*
X126031295Y-118221503D01*
X126038077Y-118274637D01*
X126019987Y-118481410D01*
X126039179Y-118700781D01*
X126096174Y-118913486D01*
X126098499Y-118918471D01*
X126186912Y-119108076D01*
X126186915Y-119108081D01*
X126189238Y-119113063D01*
X126192394Y-119117570D01*
X126192395Y-119117572D01*
X126304309Y-119277401D01*
X126315545Y-119293448D01*
X126471256Y-119449159D01*
X126651640Y-119575466D01*
X126851218Y-119668530D01*
X127063923Y-119725525D01*
X127229426Y-119740004D01*
X127295544Y-119765867D01*
X127337183Y-119823371D01*
X127343965Y-119876506D01*
X127334161Y-119988568D01*
X127353353Y-120207939D01*
X127410348Y-120420644D01*
X127412673Y-120425629D01*
X127501086Y-120615234D01*
X127501089Y-120615239D01*
X127503412Y-120620221D01*
X127506568Y-120624728D01*
X127506569Y-120624730D01*
X127586298Y-120738594D01*
X127629719Y-120800606D01*
X127785430Y-120956317D01*
X127789939Y-120959474D01*
X127789941Y-120959476D01*
X127805621Y-120970455D01*
X127965814Y-121082624D01*
X128165392Y-121175688D01*
X128378097Y-121232683D01*
X128597468Y-121251875D01*
X128602943Y-121251396D01*
X128612979Y-121250518D01*
X128682583Y-121264507D01*
X128733576Y-121313907D01*
X128749481Y-121387020D01*
X128748124Y-121402531D01*
X128767316Y-121621902D01*
X128824311Y-121834607D01*
X128859084Y-121909178D01*
X128915049Y-122029197D01*
X128915052Y-122029202D01*
X128917375Y-122034184D01*
X129043682Y-122214569D01*
X129199393Y-122370280D01*
X129379777Y-122496587D01*
X129579355Y-122589651D01*
X129792060Y-122646646D01*
X130011431Y-122665838D01*
X130123493Y-122656034D01*
X130193097Y-122670023D01*
X130244090Y-122719423D01*
X130259995Y-122770573D01*
X130274474Y-122936076D01*
X130331469Y-123148781D01*
X130362571Y-123215480D01*
X130422207Y-123343371D01*
X130422210Y-123343376D01*
X130424533Y-123348358D01*
X130427689Y-123352865D01*
X130427690Y-123352867D01*
X130522243Y-123487902D01*
X130550840Y-123528743D01*
X130706551Y-123684454D01*
X130711060Y-123687611D01*
X130711062Y-123687613D01*
X130736739Y-123705592D01*
X130886935Y-123810761D01*
X131086513Y-123903825D01*
X131299218Y-123960820D01*
X131518589Y-123980012D01*
X131725362Y-123961922D01*
X131794965Y-123975911D01*
X131845958Y-124025311D01*
X131861863Y-124076461D01*
X131867801Y-124144334D01*
X131924796Y-124357039D01*
X131954267Y-124420239D01*
X132015534Y-124551629D01*
X132015537Y-124551634D01*
X132017860Y-124556616D01*
X132021016Y-124561123D01*
X132021017Y-124561125D01*
X132128968Y-124715294D01*
X132144167Y-124737001D01*
X132299878Y-124892712D01*
X132304387Y-124895869D01*
X132304389Y-124895871D01*
X132325737Y-124910819D01*
X132480262Y-125019019D01*
X132679840Y-125112083D01*
X132892545Y-125169078D01*
X133111916Y-125188270D01*
X133331287Y-125169078D01*
X133386199Y-125154364D01*
X133457174Y-125156054D01*
X133515970Y-125195848D01*
X133540515Y-125243459D01*
X133595437Y-125448426D01*
X133595441Y-125448436D01*
X133596864Y-125453748D01*
X133599189Y-125458733D01*
X133687602Y-125648338D01*
X133687605Y-125648343D01*
X133689928Y-125653325D01*
X133693084Y-125657832D01*
X133693085Y-125657834D01*
X133771368Y-125769633D01*
X133816235Y-125833710D01*
X133971946Y-125989421D01*
X133976455Y-125992578D01*
X133976457Y-125992580D01*
X134036436Y-126034578D01*
X134152330Y-126115728D01*
X134351908Y-126208792D01*
X134564613Y-126265787D01*
X134783984Y-126284979D01*
X135003355Y-126265787D01*
X135008667Y-126264363D01*
X135008676Y-126264362D01*
X135153622Y-126225523D01*
X135224598Y-126227212D01*
X135283395Y-126267005D01*
X135307940Y-126314617D01*
X135338448Y-126428472D01*
X135338452Y-126428482D01*
X135339875Y-126433794D01*
X135375508Y-126510209D01*
X135430613Y-126628384D01*
X135430616Y-126628389D01*
X135432939Y-126633371D01*
X135436095Y-126637878D01*
X135436096Y-126637880D01*
X135534333Y-126778176D01*
X135559246Y-126813756D01*
X135714957Y-126969467D01*
X135895341Y-127095774D01*
X136094919Y-127188838D01*
X136307624Y-127245833D01*
X136526995Y-127265025D01*
X136746366Y-127245833D01*
X136959071Y-127188838D01*
X136964056Y-127186513D01*
X136964060Y-127186512D01*
X136964163Y-127186464D01*
X136964213Y-127186456D01*
X136969225Y-127184632D01*
X136969592Y-127185639D01*
X137034354Y-127175801D01*
X137099168Y-127204779D01*
X137139123Y-127268048D01*
X137144279Y-127287293D01*
X137144282Y-127287302D01*
X137145704Y-127292608D01*
X137148027Y-127297589D01*
X137148027Y-127297590D01*
X137236442Y-127487198D01*
X137236445Y-127487203D01*
X137238768Y-127492185D01*
X137241924Y-127496692D01*
X137241925Y-127496694D01*
X137333241Y-127627106D01*
X137365075Y-127672570D01*
X137520786Y-127828281D01*
X137525295Y-127831438D01*
X137525297Y-127831440D01*
X137566712Y-127860439D01*
X137701170Y-127954588D01*
X137900748Y-128047652D01*
X138113453Y-128104647D01*
X138332824Y-128123839D01*
X138552195Y-128104647D01*
X138764900Y-128047652D01*
X138769882Y-128045329D01*
X138769890Y-128045326D01*
X138856908Y-128004749D01*
X138927099Y-127994088D01*
X138991912Y-128023068D01*
X139024352Y-128065694D01*
X139096668Y-128220777D01*
X139096671Y-128220782D01*
X139098994Y-128225764D01*
X139102150Y-128230271D01*
X139102151Y-128230273D01*
X139207848Y-128381223D01*
X139225301Y-128406149D01*
X139381012Y-128561860D01*
X139385521Y-128565017D01*
X139385523Y-128565019D01*
X139460291Y-128617372D01*
X139561396Y-128688167D01*
X139760974Y-128781231D01*
X139973679Y-128838226D01*
X140193050Y-128857418D01*
X140412421Y-128838226D01*
X140625126Y-128781231D01*
X140803971Y-128697835D01*
X140874162Y-128687174D01*
X140938975Y-128716154D01*
X140971415Y-128758780D01*
X141002619Y-128825698D01*
X141002622Y-128825703D01*
X141004945Y-128830685D01*
X141008101Y-128835192D01*
X141008102Y-128835194D01*
X141119028Y-128993612D01*
X141131252Y-129011070D01*
X141286963Y-129166781D01*
X141467347Y-129293088D01*
X141666925Y-129386152D01*
X141879630Y-129443147D01*
X142099001Y-129462339D01*
X142318372Y-129443147D01*
X142531077Y-129386152D01*
X142730655Y-129293088D01*
X142735164Y-129289931D01*
X142735169Y-129289928D01*
X142768458Y-129266619D01*
X142835732Y-129243931D01*
X142904592Y-129261216D01*
X142947400Y-129304364D01*
X142947734Y-129304130D01*
X143005166Y-129386152D01*
X143053911Y-129455766D01*
X143074041Y-129484515D01*
X143229752Y-129640226D01*
X143234261Y-129643383D01*
X143234263Y-129643385D01*
X143261868Y-129662714D01*
X143410136Y-129766533D01*
X143609714Y-129859597D01*
X143822419Y-129916592D01*
X144041790Y-129935784D01*
X144261161Y-129916592D01*
X144473866Y-129859597D01*
X144673444Y-129766533D01*
X144792157Y-129683409D01*
X144859430Y-129660721D01*
X144928290Y-129678006D01*
X144967640Y-129714351D01*
X145005807Y-129768858D01*
X145044610Y-129824275D01*
X145200321Y-129979986D01*
X145204827Y-129983141D01*
X145204832Y-129983145D01*
X145279600Y-130035498D01*
X145380705Y-130106293D01*
X145580283Y-130199357D01*
X145792988Y-130256352D01*
X146012359Y-130275544D01*
X146231730Y-130256352D01*
X146444435Y-130199357D01*
X146644013Y-130106293D01*
X146725508Y-130049229D01*
X146819892Y-129983141D01*
X146819896Y-129983138D01*
X146824397Y-129979986D01*
X146828288Y-129976095D01*
X146829153Y-129975369D01*
X146894192Y-129946902D01*
X146964297Y-129958117D01*
X147013360Y-129999617D01*
X147033771Y-130028767D01*
X147189482Y-130184478D01*
X147193991Y-130187635D01*
X147193993Y-130187637D01*
X147268761Y-130239990D01*
X147369866Y-130310785D01*
X147569444Y-130403849D01*
X147782149Y-130460844D01*
X148001520Y-130480036D01*
X148220891Y-130460844D01*
X148433596Y-130403849D01*
X148633174Y-130310785D01*
X148734279Y-130239990D01*
X148809047Y-130187637D01*
X148809049Y-130187635D01*
X148813558Y-130184478D01*
X148877530Y-130120506D01*
X148939843Y-130086481D01*
X149010658Y-130091547D01*
X149055720Y-130120507D01*
X149187962Y-130252749D01*
X149192471Y-130255906D01*
X149192473Y-130255908D01*
X149219832Y-130275065D01*
X149368346Y-130379056D01*
X149567924Y-130472120D01*
X149780629Y-130529115D01*
X150000000Y-130548307D01*
X150219371Y-130529115D01*
X150432076Y-130472120D01*
X150631654Y-130379056D01*
X150780168Y-130275065D01*
X150807527Y-130255908D01*
X150807529Y-130255906D01*
X150812038Y-130252749D01*
X150944280Y-130120507D01*
X151006592Y-130086481D01*
X151077407Y-130091546D01*
X151122470Y-130120507D01*
X151186441Y-130184478D01*
X151190950Y-130187635D01*
X151190952Y-130187637D01*
X151265720Y-130239990D01*
X151366825Y-130310785D01*
X151566403Y-130403849D01*
X151779108Y-130460844D01*
X151998479Y-130480036D01*
X152217850Y-130460844D01*
X152430555Y-130403849D01*
X152630133Y-130310785D01*
X152731238Y-130239990D01*
X152806006Y-130187637D01*
X152806008Y-130187635D01*
X152810517Y-130184478D01*
X152966228Y-130028767D01*
X152986639Y-129999617D01*
X153042096Y-129955289D01*
X153112715Y-129947980D01*
X153170846Y-129975369D01*
X153171711Y-129976095D01*
X153175602Y-129979986D01*
X153180103Y-129983138D01*
X153180107Y-129983141D01*
X153274491Y-130049229D01*
X153355986Y-130106293D01*
X153555564Y-130199357D01*
X153768269Y-130256352D01*
X153987640Y-130275544D01*
X154207011Y-130256352D01*
X154419716Y-130199357D01*
X154619294Y-130106293D01*
X154720399Y-130035498D01*
X154795167Y-129983145D01*
X154795172Y-129983141D01*
X154799678Y-129979986D01*
X154955389Y-129824275D01*
X154994193Y-129768858D01*
X155032359Y-129714351D01*
X155087816Y-129670023D01*
X155158436Y-129662714D01*
X155207841Y-129683408D01*
X155326555Y-129766533D01*
X155526133Y-129859597D01*
X155738838Y-129916592D01*
X155958209Y-129935784D01*
X156177580Y-129916592D01*
X156390285Y-129859597D01*
X156589863Y-129766533D01*
X156738131Y-129662714D01*
X156765736Y-129643385D01*
X156765738Y-129643383D01*
X156770247Y-129640226D01*
X156925958Y-129484515D01*
X156946089Y-129455766D01*
X156994833Y-129386152D01*
X157052265Y-129304130D01*
X157052679Y-129304420D01*
X157101539Y-129257836D01*
X157171254Y-129244403D01*
X157231541Y-129266619D01*
X157264830Y-129289928D01*
X157264835Y-129289931D01*
X157269344Y-129293088D01*
X157468922Y-129386152D01*
X157681627Y-129443147D01*
X157900998Y-129462339D01*
X158120369Y-129443147D01*
X158333074Y-129386152D01*
X158532652Y-129293088D01*
X158713036Y-129166781D01*
X158868747Y-129011070D01*
X158880972Y-128993612D01*
X158991897Y-128835194D01*
X158991898Y-128835192D01*
X158995054Y-128830685D01*
X158997377Y-128825703D01*
X158997380Y-128825698D01*
X159028584Y-128758780D01*
X159075501Y-128705495D01*
X159143779Y-128686034D01*
X159196028Y-128697835D01*
X159374873Y-128781231D01*
X159587578Y-128838226D01*
X159806949Y-128857418D01*
X160026320Y-128838226D01*
X160239025Y-128781231D01*
X160438603Y-128688167D01*
X160539708Y-128617372D01*
X160614476Y-128565019D01*
X160614478Y-128565017D01*
X160618987Y-128561860D01*
X160774698Y-128406149D01*
X160792152Y-128381223D01*
X160897848Y-128230273D01*
X160897849Y-128230271D01*
X160901005Y-128225764D01*
X160903328Y-128220782D01*
X160903331Y-128220777D01*
X160975647Y-128065694D01*
X161022564Y-128012409D01*
X161090842Y-127992948D01*
X161143091Y-128004749D01*
X161230109Y-128045326D01*
X161230117Y-128045329D01*
X161235099Y-128047652D01*
X161447804Y-128104647D01*
X161667175Y-128123839D01*
X161886546Y-128104647D01*
X162099251Y-128047652D01*
X162298829Y-127954588D01*
X162433287Y-127860439D01*
X162474702Y-127831440D01*
X162474704Y-127831438D01*
X162479213Y-127828281D01*
X162634924Y-127672570D01*
X162666759Y-127627106D01*
X162758074Y-127496694D01*
X162758075Y-127496692D01*
X162761231Y-127492185D01*
X162763554Y-127487203D01*
X162763557Y-127487198D01*
X162851972Y-127297590D01*
X162851972Y-127297589D01*
X162854295Y-127292608D01*
X162855717Y-127287302D01*
X162855720Y-127287293D01*
X162860876Y-127268048D01*
X162897826Y-127207424D01*
X162961687Y-127176402D01*
X163030377Y-127185723D01*
X163030774Y-127184632D01*
X163035790Y-127186458D01*
X163035836Y-127186464D01*
X163035939Y-127186512D01*
X163035943Y-127186513D01*
X163040928Y-127188838D01*
X163253633Y-127245833D01*
X163473004Y-127265025D01*
X163692375Y-127245833D01*
X163905080Y-127188838D01*
X164104658Y-127095774D01*
X164285042Y-126969467D01*
X164440753Y-126813756D01*
X164465667Y-126778176D01*
X164563903Y-126637880D01*
X164563904Y-126637878D01*
X164567060Y-126633371D01*
X164569383Y-126628389D01*
X164569386Y-126628384D01*
X164624491Y-126510209D01*
X164660124Y-126433794D01*
X164661547Y-126428482D01*
X164661551Y-126428472D01*
X164692059Y-126314617D01*
X164729010Y-126253995D01*
X164792871Y-126222973D01*
X164846377Y-126225523D01*
X164991323Y-126264362D01*
X164991332Y-126264363D01*
X164996644Y-126265787D01*
X165216015Y-126284979D01*
X165435386Y-126265787D01*
X165648091Y-126208792D01*
X165847669Y-126115728D01*
X165963563Y-126034578D01*
X166023542Y-125992580D01*
X166023544Y-125992578D01*
X166028053Y-125989421D01*
X166183764Y-125833710D01*
X166228632Y-125769633D01*
X166306914Y-125657834D01*
X166306915Y-125657832D01*
X166310071Y-125653325D01*
X166312394Y-125648343D01*
X166312397Y-125648338D01*
X166400810Y-125458733D01*
X166403135Y-125453748D01*
X166404558Y-125448436D01*
X166404562Y-125448426D01*
X166459484Y-125243459D01*
X166496435Y-125182837D01*
X166560296Y-125151815D01*
X166613799Y-125154364D01*
X166668712Y-125169078D01*
X166888083Y-125188270D01*
X167107454Y-125169078D01*
X167320159Y-125112083D01*
X167519737Y-125019019D01*
X167674262Y-124910819D01*
X167695610Y-124895871D01*
X167695612Y-124895869D01*
X167700121Y-124892712D01*
X167855832Y-124737001D01*
X167871032Y-124715294D01*
X167978982Y-124561125D01*
X167978983Y-124561123D01*
X167982139Y-124556616D01*
X167984462Y-124551634D01*
X167984465Y-124551629D01*
X168045732Y-124420239D01*
X168075203Y-124357039D01*
X168132198Y-124144334D01*
X168138136Y-124076461D01*
X168163999Y-124010343D01*
X168221503Y-123968704D01*
X168274637Y-123961922D01*
X168481410Y-123980012D01*
X168700781Y-123960820D01*
X168913486Y-123903825D01*
X169113064Y-123810761D01*
X169263260Y-123705592D01*
X169288937Y-123687613D01*
X169288939Y-123687611D01*
X169293448Y-123684454D01*
X169449159Y-123528743D01*
X169477757Y-123487902D01*
X169572309Y-123352867D01*
X169572310Y-123352865D01*
X169575466Y-123348358D01*
X169577789Y-123343376D01*
X169577792Y-123343371D01*
X169637428Y-123215480D01*
X169668530Y-123148781D01*
X169725525Y-122936076D01*
X169740004Y-122770573D01*
X169765867Y-122704455D01*
X169823371Y-122662816D01*
X169876506Y-122656034D01*
X169988568Y-122665838D01*
X170207939Y-122646646D01*
X170420644Y-122589651D01*
X170620222Y-122496587D01*
X170800606Y-122370280D01*
X170956317Y-122214569D01*
X171082624Y-122034184D01*
X171084947Y-122029202D01*
X171084950Y-122029197D01*
X171140915Y-121909178D01*
X171175688Y-121834607D01*
X171232683Y-121621902D01*
X171251875Y-121402531D01*
X171250518Y-121387020D01*
X171264507Y-121317416D01*
X171313907Y-121266423D01*
X171387020Y-121250518D01*
X171402531Y-121251875D01*
X171621902Y-121232683D01*
X171834607Y-121175688D01*
X172034185Y-121082624D01*
X172194378Y-120970455D01*
X172210058Y-120959476D01*
X172210060Y-120959474D01*
X172214569Y-120956317D01*
X172370280Y-120800606D01*
X172413702Y-120738594D01*
X172493430Y-120624730D01*
X172493431Y-120624728D01*
X172496587Y-120620221D01*
X172498910Y-120615239D01*
X172498913Y-120615234D01*
X172587326Y-120425629D01*
X172589651Y-120420644D01*
X172646646Y-120207939D01*
X172665838Y-119988568D01*
X172656034Y-119876506D01*
X172670023Y-119806902D01*
X172719423Y-119755909D01*
X172770573Y-119740004D01*
X172936076Y-119725525D01*
X173148781Y-119668530D01*
X173348359Y-119575466D01*
X173528743Y-119449159D01*
X173684454Y-119293448D01*
X173695691Y-119277401D01*
X173807604Y-119117572D01*
X173807605Y-119117570D01*
X173810761Y-119113063D01*
X173813084Y-119108081D01*
X173813087Y-119108076D01*
X173901500Y-118918471D01*
X173903825Y-118913486D01*
X173960820Y-118700781D01*
X173980012Y-118481410D01*
X173961922Y-118274637D01*
X173975911Y-118205034D01*
X174025311Y-118154041D01*
X174076461Y-118138136D01*
X174117036Y-118134586D01*
X174144334Y-118132198D01*
X174357039Y-118075203D01*
X174556617Y-117982139D01*
X174737001Y-117855832D01*
X174892712Y-117700121D01*
X174916972Y-117665475D01*
X175015862Y-117524245D01*
X175015863Y-117524243D01*
X175019019Y-117519736D01*
X175021342Y-117514754D01*
X175021345Y-117514749D01*
X175079277Y-117390511D01*
X175112083Y-117320159D01*
X175169078Y-117107454D01*
X175188270Y-116888083D01*
X175169078Y-116668712D01*
X175154364Y-116613800D01*
X175156054Y-116542825D01*
X175195848Y-116484029D01*
X175243459Y-116459484D01*
X175448426Y-116404562D01*
X175448436Y-116404558D01*
X175453748Y-116403135D01*
X175653326Y-116310071D01*
X175833710Y-116183764D01*
X175989421Y-116028053D01*
X176115728Y-115847668D01*
X176118051Y-115842686D01*
X176118054Y-115842681D01*
X176206467Y-115653076D01*
X176208792Y-115648091D01*
X176265787Y-115435386D01*
X176284979Y-115216015D01*
X176265787Y-114996644D01*
X176264363Y-114991332D01*
X176264362Y-114991323D01*
X176225523Y-114846377D01*
X176227212Y-114775401D01*
X176267005Y-114716604D01*
X176314617Y-114692059D01*
X176428472Y-114661551D01*
X176428482Y-114661547D01*
X176433794Y-114660124D01*
X176633372Y-114567060D01*
X176746586Y-114487786D01*
X176809245Y-114443912D01*
X176809247Y-114443910D01*
X176813756Y-114440753D01*
X176969467Y-114285042D01*
X177068648Y-114143398D01*
X177092617Y-114109166D01*
X177092618Y-114109164D01*
X177095774Y-114104657D01*
X177098097Y-114099675D01*
X177098100Y-114099670D01*
X177163224Y-113960009D01*
X177188838Y-113905080D01*
X177245833Y-113692375D01*
X177265025Y-113473004D01*
X177245833Y-113253633D01*
X177188838Y-113040928D01*
X177186464Y-113035836D01*
X177186456Y-113035786D01*
X177184632Y-113030774D01*
X177185639Y-113030407D01*
X177175801Y-112965645D01*
X177204779Y-112900831D01*
X177268044Y-112860877D01*
X177292608Y-112854295D01*
X177330037Y-112836842D01*
X177353928Y-112825701D01*
X177492186Y-112761231D01*
X177628936Y-112665477D01*
X177668059Y-112638083D01*
X177668061Y-112638081D01*
X177672570Y-112634924D01*
X177828281Y-112479213D01*
X177898488Y-112378948D01*
X177951431Y-112303337D01*
X177951432Y-112303335D01*
X177954588Y-112298828D01*
X177956911Y-112293846D01*
X177956914Y-112293841D01*
X178045256Y-112104389D01*
X178047652Y-112099251D01*
X178104647Y-111886546D01*
X178123839Y-111667175D01*
X178104647Y-111447804D01*
X178047652Y-111235099D01*
X178045329Y-111230117D01*
X178045326Y-111230109D01*
X178004749Y-111143091D01*
X177994088Y-111072900D01*
X178023068Y-111008087D01*
X178065694Y-110975647D01*
X178220778Y-110903331D01*
X178220783Y-110903328D01*
X178225765Y-110901005D01*
X178406149Y-110774698D01*
X178561860Y-110618987D01*
X178659142Y-110480055D01*
X178685010Y-110443111D01*
X178685011Y-110443109D01*
X178688167Y-110438602D01*
X178690490Y-110433620D01*
X178690493Y-110433615D01*
X178778906Y-110244010D01*
X178781231Y-110239025D01*
X178838226Y-110026320D01*
X178857418Y-109806949D01*
X178838226Y-109587578D01*
X178781231Y-109374873D01*
X178697835Y-109196029D01*
X178687174Y-109125837D01*
X178716154Y-109061024D01*
X178758781Y-109028584D01*
X178825695Y-108997382D01*
X178825701Y-108997378D01*
X178830686Y-108995054D01*
X178931791Y-108924259D01*
X179006559Y-108871906D01*
X179006561Y-108871904D01*
X179011070Y-108868747D01*
X179166781Y-108713036D01*
X179232046Y-108619829D01*
X179289931Y-108537160D01*
X179289932Y-108537158D01*
X179293088Y-108532651D01*
X179295411Y-108527669D01*
X179295414Y-108527664D01*
X179383827Y-108338059D01*
X179386152Y-108333074D01*
X179443147Y-108120369D01*
X179462339Y-107900998D01*
X179443147Y-107681627D01*
X179386152Y-107468922D01*
X179321636Y-107330566D01*
X179295411Y-107274326D01*
X179295409Y-107274323D01*
X179293088Y-107269345D01*
X179266617Y-107231541D01*
X179243930Y-107164269D01*
X179261215Y-107095408D01*
X179304364Y-107052598D01*
X179304131Y-107052265D01*
X179306066Y-107050910D01*
X179468537Y-106937146D01*
X179480004Y-106929117D01*
X179480006Y-106929115D01*
X179484515Y-106925958D01*
X179640226Y-106770247D01*
X179649034Y-106757669D01*
X179763376Y-106594371D01*
X179763377Y-106594369D01*
X179766533Y-106589862D01*
X179768856Y-106584880D01*
X179768859Y-106584875D01*
X179857272Y-106395270D01*
X179859597Y-106390285D01*
X179916592Y-106177580D01*
X179935784Y-105958209D01*
X179916592Y-105738838D01*
X179859597Y-105526133D01*
X179795048Y-105387707D01*
X179768859Y-105331543D01*
X179768856Y-105331538D01*
X179766533Y-105326556D01*
X179683409Y-105207842D01*
X179660721Y-105140569D01*
X179678006Y-105071708D01*
X179714351Y-105032359D01*
X179819764Y-104958548D01*
X179819766Y-104958546D01*
X179824275Y-104955389D01*
X179979986Y-104799678D01*
X180023170Y-104738006D01*
X180103136Y-104623802D01*
X180103137Y-104623800D01*
X180106293Y-104619293D01*
X180108616Y-104614311D01*
X180108619Y-104614306D01*
X180197032Y-104424701D01*
X180199357Y-104419716D01*
X180256352Y-104207011D01*
X180275544Y-103987640D01*
X180256352Y-103768269D01*
X180199357Y-103555564D01*
X180135277Y-103418143D01*
X180108619Y-103360974D01*
X180108616Y-103360969D01*
X180106293Y-103355987D01*
X179979986Y-103175602D01*
X179976094Y-103171710D01*
X179975369Y-103170846D01*
X179946902Y-103105807D01*
X179958117Y-103035702D01*
X179999617Y-102986639D01*
X180024256Y-102969387D01*
X180024258Y-102969385D01*
X180028767Y-102966228D01*
X180184478Y-102810517D01*
X180310785Y-102630132D01*
X180313108Y-102625150D01*
X180313111Y-102625145D01*
X180401524Y-102435540D01*
X180403849Y-102430555D01*
X180460844Y-102217850D01*
X180480036Y-101998479D01*
X180460844Y-101779108D01*
X180403849Y-101566403D01*
X180338235Y-101425692D01*
X180313111Y-101371813D01*
X180313108Y-101371808D01*
X180310785Y-101366826D01*
X180184478Y-101186441D01*
X180120507Y-101122470D01*
X180086481Y-101060158D01*
X180091546Y-100989343D01*
X180120507Y-100944280D01*
X180252749Y-100812038D01*
X180379056Y-100631653D01*
X180381379Y-100626671D01*
X180381382Y-100626666D01*
X180469795Y-100437061D01*
X180472120Y-100432076D01*
X180529115Y-100219371D01*
X180548307Y-100000000D01*
X180529115Y-99780629D01*
X180472120Y-99567924D01*
X180428585Y-99474562D01*
X180381382Y-99373334D01*
X180381379Y-99373329D01*
X180379056Y-99368347D01*
X180252749Y-99187962D01*
X180120507Y-99055720D01*
X180086481Y-98993408D01*
X180091546Y-98922593D01*
X180120506Y-98877530D01*
X180184478Y-98813558D01*
X180310785Y-98633173D01*
X180313108Y-98628191D01*
X180313111Y-98628186D01*
X180401524Y-98438581D01*
X180403849Y-98433596D01*
X180460844Y-98220891D01*
X180480036Y-98001520D01*
X180460844Y-97782149D01*
X180403849Y-97569444D01*
X180360314Y-97476082D01*
X180313111Y-97374854D01*
X180313108Y-97374849D01*
X180310785Y-97369867D01*
X180307628Y-97365358D01*
X180187637Y-97193993D01*
X180187632Y-97193987D01*
X180184478Y-97189482D01*
X180028767Y-97033771D01*
X179999617Y-97013360D01*
X179955289Y-96957903D01*
X179947980Y-96887284D01*
X179975369Y-96829153D01*
X179976094Y-96828289D01*
X179979986Y-96824397D01*
X180106293Y-96644012D01*
X180108616Y-96639030D01*
X180108619Y-96639025D01*
X180197032Y-96449420D01*
X180199357Y-96444435D01*
X180256352Y-96231730D01*
X180275544Y-96012359D01*
X180256352Y-95792988D01*
X180199357Y-95580283D01*
X180155822Y-95486921D01*
X180108619Y-95385693D01*
X180108616Y-95385688D01*
X180106293Y-95380706D01*
X180103137Y-95376199D01*
X180103136Y-95376197D01*
X179983145Y-95204832D01*
X179983143Y-95204829D01*
X179979986Y-95200321D01*
X179824275Y-95044610D01*
X179804156Y-95030522D01*
X179714351Y-94967640D01*
X179670023Y-94912183D01*
X179662714Y-94841563D01*
X179683409Y-94792156D01*
X179766533Y-94673443D01*
X179768856Y-94668461D01*
X179768859Y-94668456D01*
X179857272Y-94478851D01*
X179859597Y-94473866D01*
X179916592Y-94261161D01*
X179935784Y-94041790D01*
X179916592Y-93822419D01*
X179859597Y-93609714D01*
X179810548Y-93504527D01*
X179768859Y-93415124D01*
X179768856Y-93415118D01*
X179766533Y-93410137D01*
X179654664Y-93250371D01*
X179643385Y-93234263D01*
X179643383Y-93234260D01*
X179640226Y-93229752D01*
X179484515Y-93074041D01*
X179474103Y-93066750D01*
X179308640Y-92950891D01*
X179308638Y-92950890D01*
X179304131Y-92947734D01*
X179304421Y-92947320D01*
X179257836Y-92898461D01*
X179244402Y-92828747D01*
X179266617Y-92768459D01*
X179293088Y-92730654D01*
X179295414Y-92725667D01*
X179383827Y-92536062D01*
X179386152Y-92531077D01*
X179443147Y-92318372D01*
X179462339Y-92099001D01*
X179443147Y-91879630D01*
X179386152Y-91666925D01*
X179302756Y-91488081D01*
X179295414Y-91472335D01*
X179295411Y-91472330D01*
X179293088Y-91467348D01*
X179271019Y-91435830D01*
X179169940Y-91291474D01*
X179169938Y-91291471D01*
X179166781Y-91286963D01*
X179011070Y-91131252D01*
X178982161Y-91111009D01*
X178931791Y-91075740D01*
X178830686Y-91004945D01*
X178825698Y-91002619D01*
X178825695Y-91002617D01*
X178758781Y-90971415D01*
X178705495Y-90924498D01*
X178686034Y-90856221D01*
X178697835Y-90803970D01*
X178778906Y-90630111D01*
X178781231Y-90625126D01*
X178838226Y-90412421D01*
X178857418Y-90193050D01*
X178838226Y-89973679D01*
X178781231Y-89760974D01*
X178705597Y-89598775D01*
X178690493Y-89566384D01*
X178690490Y-89566379D01*
X178688167Y-89561397D01*
X178668957Y-89533962D01*
X178565019Y-89385523D01*
X178565017Y-89385520D01*
X178561860Y-89381012D01*
X178406149Y-89225301D01*
X178225765Y-89098994D01*
X178220783Y-89096671D01*
X178220778Y-89096668D01*
X178065694Y-89024352D01*
X178012409Y-88977435D01*
X177992948Y-88909158D01*
X178004749Y-88856908D01*
X178045326Y-88769890D01*
X178045329Y-88769882D01*
X178047652Y-88764900D01*
X178104647Y-88552195D01*
X178123839Y-88332824D01*
X178104647Y-88113453D01*
X178047652Y-87900748D01*
X177980924Y-87757649D01*
X177956914Y-87706158D01*
X177956911Y-87706153D01*
X177954588Y-87701171D01*
X177951431Y-87696662D01*
X177831440Y-87525297D01*
X177831438Y-87525294D01*
X177828281Y-87520786D01*
X177672570Y-87365075D01*
X177635379Y-87339033D01*
X177566698Y-87290942D01*
X177492186Y-87238768D01*
X177353928Y-87174298D01*
X177297588Y-87148026D01*
X177297586Y-87148025D01*
X177292608Y-87145704D01*
X177268044Y-87139122D01*
X177207422Y-87102170D01*
X177176401Y-87038309D01*
X177185723Y-86969622D01*
X177184632Y-86969225D01*
X177186458Y-86964209D01*
X177186464Y-86964163D01*
X177186512Y-86964060D01*
X177186513Y-86964056D01*
X177188838Y-86959071D01*
X177245833Y-86746366D01*
X177265025Y-86526995D01*
X177245833Y-86307624D01*
X177188838Y-86094919D01*
X177130018Y-85968779D01*
X177098100Y-85900329D01*
X177098097Y-85900324D01*
X177095774Y-85895342D01*
X177083659Y-85878040D01*
X176972626Y-85719468D01*
X176972624Y-85719465D01*
X176969467Y-85714957D01*
X176813756Y-85559246D01*
X176633372Y-85432939D01*
X176433794Y-85339875D01*
X176428482Y-85338452D01*
X176428472Y-85338448D01*
X176314617Y-85307940D01*
X176253995Y-85270989D01*
X176222973Y-85207128D01*
X176225523Y-85153622D01*
X176264362Y-85008676D01*
X176264364Y-85008665D01*
X176265787Y-85003355D01*
X176284979Y-84783984D01*
X176265787Y-84564613D01*
X176208792Y-84351908D01*
X176165257Y-84258546D01*
X176118054Y-84157318D01*
X176118051Y-84157313D01*
X176115728Y-84152331D01*
X176062118Y-84075768D01*
X175992580Y-83976457D01*
X175992578Y-83976454D01*
X175989421Y-83971946D01*
X175833710Y-83816235D01*
X175653326Y-83689928D01*
X175453748Y-83596864D01*
X175448436Y-83595441D01*
X175448426Y-83595437D01*
X175243459Y-83540515D01*
X175182837Y-83503564D01*
X175151815Y-83439703D01*
X175154364Y-83386198D01*
X175163148Y-83353416D01*
X175169078Y-83331287D01*
X175188270Y-83111916D01*
X175169078Y-82892545D01*
X175112083Y-82679840D01*
X175041363Y-82528179D01*
X175021345Y-82485250D01*
X175021342Y-82485245D01*
X175019019Y-82480263D01*
X175015862Y-82475754D01*
X174895871Y-82304389D01*
X174895869Y-82304386D01*
X174892712Y-82299878D01*
X174737001Y-82144167D01*
X174556617Y-82017860D01*
X174357039Y-81924796D01*
X174144334Y-81867801D01*
X174117036Y-81865413D01*
X174076461Y-81861863D01*
X174010343Y-81836000D01*
X173968704Y-81778496D01*
X173961922Y-81725361D01*
X173969521Y-81638509D01*
X173980012Y-81518589D01*
X173960820Y-81299218D01*
X173903825Y-81086513D01*
X173851958Y-80975283D01*
X173813087Y-80891923D01*
X173813084Y-80891918D01*
X173810761Y-80886936D01*
X173766321Y-80823469D01*
X173687613Y-80711062D01*
X173687611Y-80711059D01*
X173684454Y-80706551D01*
X173528743Y-80550840D01*
X173348359Y-80424533D01*
X173148781Y-80331469D01*
X172936076Y-80274474D01*
X172770573Y-80259995D01*
X172704455Y-80234132D01*
X172662816Y-80176628D01*
X172656034Y-80123493D01*
X172665359Y-80016906D01*
X172665838Y-80011431D01*
X172646646Y-79792060D01*
X172589651Y-79579355D01*
X172512267Y-79413403D01*
X172498913Y-79384765D01*
X172498910Y-79384760D01*
X172496587Y-79379778D01*
X172370280Y-79199393D01*
X172214569Y-79043682D01*
X172201498Y-79034529D01*
X172135290Y-78988170D01*
X172034185Y-78917375D01*
X171834607Y-78824311D01*
X171621902Y-78767316D01*
X171402531Y-78748124D01*
X171387020Y-78749481D01*
X171317416Y-78735492D01*
X171266423Y-78686092D01*
X171250518Y-78612979D01*
X171251396Y-78602943D01*
X171251875Y-78597468D01*
X171232683Y-78378097D01*
X171175688Y-78165392D01*
X171132153Y-78072030D01*
X171084950Y-77970802D01*
X171084947Y-77970797D01*
X171082624Y-77965815D01*
X171066455Y-77942723D01*
X170959476Y-77789941D01*
X170959474Y-77789938D01*
X170956317Y-77785430D01*
X170800606Y-77629719D01*
X170620222Y-77503412D01*
X170420644Y-77410348D01*
X170207939Y-77353353D01*
X169988568Y-77334161D01*
X169876506Y-77343965D01*
X169806902Y-77329976D01*
X169755909Y-77280576D01*
X169740004Y-77229425D01*
X169736632Y-77190876D01*
X169725525Y-77063923D01*
X169668530Y-76851218D01*
X169598810Y-76701702D01*
X169577792Y-76656628D01*
X169577789Y-76656623D01*
X169575466Y-76651641D01*
X169494530Y-76536052D01*
X169452318Y-76475767D01*
X169452316Y-76475764D01*
X169449159Y-76471256D01*
X169293448Y-76315545D01*
X169266711Y-76296823D01*
X169187209Y-76241155D01*
X169113064Y-76189238D01*
X168913486Y-76096174D01*
X168700781Y-76039179D01*
X168481410Y-76019987D01*
X168274637Y-76038077D01*
X168205034Y-76024088D01*
X168154041Y-75974688D01*
X168138136Y-75923538D01*
X168132677Y-75861141D01*
X168132198Y-75855665D01*
X168075203Y-75642960D01*
X168031668Y-75549598D01*
X167984465Y-75448370D01*
X167984462Y-75448365D01*
X167982139Y-75443383D01*
X167955320Y-75405081D01*
X167858991Y-75267509D01*
X167858989Y-75267506D01*
X167855832Y-75262998D01*
X167700121Y-75107287D01*
X167678771Y-75092337D01*
X167620842Y-75051775D01*
X167519737Y-74980980D01*
X167320159Y-74887916D01*
X167107454Y-74830921D01*
X166888083Y-74811729D01*
X166668712Y-74830921D01*
X166613800Y-74845635D01*
X166542825Y-74843945D01*
X166484029Y-74804151D01*
X166459484Y-74756540D01*
X166404562Y-74551573D01*
X166404558Y-74551563D01*
X166403135Y-74546251D01*
X166351416Y-74435339D01*
X166312397Y-74351661D01*
X166312394Y-74351656D01*
X166310071Y-74346674D01*
X166306914Y-74342165D01*
X166186923Y-74170800D01*
X166186921Y-74170797D01*
X166183764Y-74166289D01*
X166028053Y-74010578D01*
X166010492Y-73998281D01*
X165948774Y-73955066D01*
X165847669Y-73884271D01*
X165648091Y-73791207D01*
X165435386Y-73734212D01*
X165216015Y-73715020D01*
X164996644Y-73734212D01*
X164991332Y-73735636D01*
X164991323Y-73735637D01*
X164846377Y-73774476D01*
X164775401Y-73772787D01*
X164716604Y-73732994D01*
X164692059Y-73685382D01*
X164661551Y-73571527D01*
X164661547Y-73571517D01*
X164660124Y-73566205D01*
X164593982Y-73424362D01*
X164569386Y-73371615D01*
X164569383Y-73371610D01*
X164567060Y-73366628D01*
X164472712Y-73231885D01*
X164443912Y-73190754D01*
X164443910Y-73190751D01*
X164440753Y-73186243D01*
X164285042Y-73030532D01*
X164104658Y-72904225D01*
X163905080Y-72811161D01*
X163692375Y-72754166D01*
X163473004Y-72734974D01*
X163253633Y-72754166D01*
X163040928Y-72811161D01*
X163035943Y-72813486D01*
X163035939Y-72813487D01*
X163035836Y-72813535D01*
X163035786Y-72813543D01*
X163030774Y-72815367D01*
X163030407Y-72814360D01*
X162965645Y-72824198D01*
X162900831Y-72795220D01*
X162860877Y-72731955D01*
X162855717Y-72712699D01*
X162854295Y-72707391D01*
X162817743Y-72629005D01*
X162763557Y-72512801D01*
X162763554Y-72512796D01*
X162761231Y-72507814D01*
X162758074Y-72503305D01*
X162638083Y-72331940D01*
X162638081Y-72331937D01*
X162634924Y-72327429D01*
X162479213Y-72171718D01*
X162438853Y-72143457D01*
X162399934Y-72116206D01*
X162298829Y-72045411D01*
X162099251Y-71952347D01*
X161886546Y-71895352D01*
X161667175Y-71876160D01*
X161447804Y-71895352D01*
X161235099Y-71952347D01*
X161230117Y-71954670D01*
X161230109Y-71954673D01*
X161143091Y-71995250D01*
X161072900Y-72005911D01*
X161008087Y-71976931D01*
X160975647Y-71934305D01*
X160903331Y-71779222D01*
X160903328Y-71779217D01*
X160901005Y-71774235D01*
X160884749Y-71751019D01*
X160777857Y-71598361D01*
X160777855Y-71598358D01*
X160774698Y-71593850D01*
X160618987Y-71438139D01*
X160592997Y-71419940D01*
X160520091Y-71368891D01*
X160438603Y-71311832D01*
X160239025Y-71218768D01*
X160026320Y-71161773D01*
X159806949Y-71142581D01*
X159587578Y-71161773D01*
X159374873Y-71218768D01*
X159219626Y-71291160D01*
X159196029Y-71302164D01*
X159125837Y-71312825D01*
X159061024Y-71283845D01*
X159028584Y-71241219D01*
X158997380Y-71174301D01*
X158997377Y-71174296D01*
X158995054Y-71169314D01*
X158989774Y-71161773D01*
X158871906Y-70993440D01*
X158871904Y-70993437D01*
X158868747Y-70988929D01*
X158713036Y-70833218D01*
X158532652Y-70706911D01*
X158333074Y-70613847D01*
X158120369Y-70556852D01*
X157900998Y-70537660D01*
X157681627Y-70556852D01*
X157468922Y-70613847D01*
X157407276Y-70642593D01*
X157274326Y-70704588D01*
X157274323Y-70704590D01*
X157269345Y-70706911D01*
X157238577Y-70728455D01*
X157231540Y-70733382D01*
X157164266Y-70756069D01*
X157095406Y-70738783D01*
X157052599Y-70695635D01*
X157052265Y-70695869D01*
X157050906Y-70693928D01*
X156941486Y-70537660D01*
X156929117Y-70519995D01*
X156929115Y-70519992D01*
X156925958Y-70515484D01*
X156770247Y-70359773D01*
X156765015Y-70356109D01*
X156664386Y-70285648D01*
X156589863Y-70233466D01*
X156390285Y-70140402D01*
X156177580Y-70083407D01*
X155958209Y-70064215D01*
X155738838Y-70083407D01*
X155526133Y-70140402D01*
X155440711Y-70180235D01*
X155331543Y-70231140D01*
X155331538Y-70231143D01*
X155326556Y-70233466D01*
X155207843Y-70316590D01*
X155140569Y-70339278D01*
X155071708Y-70321993D01*
X155032359Y-70285648D01*
X154958548Y-70180235D01*
X154958546Y-70180232D01*
X154955389Y-70175724D01*
X154799678Y-70020013D01*
X154771643Y-70000382D01*
X154720399Y-69964501D01*
X154619294Y-69893706D01*
X154419716Y-69800642D01*
X154207011Y-69743647D01*
X153987640Y-69724455D01*
X153768269Y-69743647D01*
X153555564Y-69800642D01*
X153515299Y-69819418D01*
X153360974Y-69891380D01*
X153360969Y-69891383D01*
X153355987Y-69893706D01*
X153351480Y-69896862D01*
X153351478Y-69896863D01*
X153327691Y-69913519D01*
X153175602Y-70020013D01*
X153171710Y-70023905D01*
X153170846Y-70024630D01*
X153105807Y-70053097D01*
X153035702Y-70041882D01*
X152986639Y-70000382D01*
X152969387Y-69975743D01*
X152969385Y-69975741D01*
X152966228Y-69971232D01*
X152810517Y-69815521D01*
X152792589Y-69802967D01*
X152680462Y-69724455D01*
X152630133Y-69689214D01*
X152430555Y-69596150D01*
X152217850Y-69539155D01*
X151998479Y-69519963D01*
X151779108Y-69539155D01*
X151566403Y-69596150D01*
X151518218Y-69618619D01*
X151371813Y-69686888D01*
X151371808Y-69686891D01*
X151366826Y-69689214D01*
X151362319Y-69692370D01*
X151362317Y-69692371D01*
X151190952Y-69812362D01*
X151190949Y-69812364D01*
X151186441Y-69815521D01*
X151122467Y-69879495D01*
X151060159Y-69913518D01*
X150989343Y-69908454D01*
X150944280Y-69879493D01*
X150812038Y-69747251D01*
X150780167Y-69724934D01*
X150719142Y-69682204D01*
X150631654Y-69620944D01*
X150432076Y-69527880D01*
X150219371Y-69470885D01*
X150000000Y-69451693D01*
X149780629Y-69470885D01*
X149567924Y-69527880D01*
X149474562Y-69571415D01*
X149373334Y-69618618D01*
X149373329Y-69618621D01*
X149368347Y-69620944D01*
X149363840Y-69624100D01*
X149363838Y-69624101D01*
X149192473Y-69744092D01*
X149192470Y-69744094D01*
X149187962Y-69747251D01*
X149055720Y-69879493D01*
X148993408Y-69913519D01*
X148922593Y-69908454D01*
X148877530Y-69879493D01*
X148813558Y-69815521D01*
X148795630Y-69802967D01*
X148683503Y-69724455D01*
X148633174Y-69689214D01*
X148433596Y-69596150D01*
X148220891Y-69539155D01*
X148001520Y-69519963D01*
X147782149Y-69539155D01*
X147569444Y-69596150D01*
X147521259Y-69618619D01*
X147374854Y-69686888D01*
X147374849Y-69686891D01*
X147369867Y-69689214D01*
X147365360Y-69692370D01*
X147365358Y-69692371D01*
X147193993Y-69812362D01*
X147193990Y-69812364D01*
X147189482Y-69815521D01*
X147033771Y-69971232D01*
X147030614Y-69975741D01*
X147030612Y-69975743D01*
X147013360Y-70000382D01*
X146957903Y-70044710D01*
X146887284Y-70052019D01*
X146829153Y-70024630D01*
X146828288Y-70023904D01*
X146824397Y-70020013D01*
X146819893Y-70016859D01*
X146819892Y-70016858D01*
X146725508Y-69950770D01*
X146644013Y-69893706D01*
X146444435Y-69800642D01*
X146231730Y-69743647D01*
X146012359Y-69724455D01*
X145792988Y-69743647D01*
X145580283Y-69800642D01*
X145540018Y-69819418D01*
X145385693Y-69891380D01*
X145385688Y-69891383D01*
X145380706Y-69893706D01*
X145376199Y-69896862D01*
X145376197Y-69896863D01*
X145204832Y-70016854D01*
X145204829Y-70016856D01*
X145200321Y-70020013D01*
X145044610Y-70175724D01*
X145041453Y-70180232D01*
X145041451Y-70180235D01*
X144967640Y-70285648D01*
X144912183Y-70329976D01*
X144841563Y-70337285D01*
X144792158Y-70316591D01*
X144673444Y-70233466D01*
X144473866Y-70140402D01*
X144261161Y-70083407D01*
X144041790Y-70064215D01*
X143822419Y-70083407D01*
X143609714Y-70140402D01*
X143524292Y-70180235D01*
X143415124Y-70231140D01*
X143415119Y-70231143D01*
X143410137Y-70233466D01*
X143405630Y-70236622D01*
X143405628Y-70236623D01*
X143234263Y-70356614D01*
X143234260Y-70356616D01*
X143229752Y-70359773D01*
X143074041Y-70515484D01*
X143070884Y-70519992D01*
X143070882Y-70519995D01*
X143058513Y-70537660D01*
X142947734Y-70695869D01*
X142947320Y-70695579D01*
X142898460Y-70742163D01*
X142828745Y-70755596D01*
X142768458Y-70733380D01*
X142735169Y-70710071D01*
X142735159Y-70710065D01*
X142730655Y-70706911D01*
X142531077Y-70613847D01*
X142318372Y-70556852D01*
X142099001Y-70537660D01*
X141879630Y-70556852D01*
X141666925Y-70613847D01*
X141605279Y-70642593D01*
X141472335Y-70704585D01*
X141472330Y-70704588D01*
X141467348Y-70706911D01*
X141462844Y-70710065D01*
X141462839Y-70710068D01*
X141291474Y-70830059D01*
X141291471Y-70830061D01*
X141286963Y-70833218D01*
X141131252Y-70988929D01*
X141128095Y-70993437D01*
X141128093Y-70993440D01*
X141010225Y-71161773D01*
X141004945Y-71169314D01*
X141002622Y-71174296D01*
X141002619Y-71174301D01*
X140971415Y-71241219D01*
X140924498Y-71294504D01*
X140856220Y-71313965D01*
X140803971Y-71302164D01*
X140625126Y-71218768D01*
X140412421Y-71161773D01*
X140193050Y-71142581D01*
X139973679Y-71161773D01*
X139760974Y-71218768D01*
X139712828Y-71241219D01*
X139566384Y-71309506D01*
X139566379Y-71309509D01*
X139561397Y-71311832D01*
X139556890Y-71314988D01*
X139556888Y-71314989D01*
X139385523Y-71434980D01*
X139385520Y-71434982D01*
X139381012Y-71438139D01*
X139225301Y-71593850D01*
X139222144Y-71598358D01*
X139222142Y-71598361D01*
X139115250Y-71751019D01*
X139098994Y-71774235D01*
X139096671Y-71779217D01*
X139096668Y-71779222D01*
X139024352Y-71934305D01*
X138977435Y-71987590D01*
X138909157Y-72007051D01*
X138856908Y-71995250D01*
X138769890Y-71954673D01*
X138769882Y-71954670D01*
X138764900Y-71952347D01*
X138552195Y-71895352D01*
X138332824Y-71876160D01*
X138113453Y-71895352D01*
X137900748Y-71952347D01*
X137830063Y-71985308D01*
X137706158Y-72043085D01*
X137706153Y-72043088D01*
X137701171Y-72045411D01*
X137696664Y-72048567D01*
X137696662Y-72048568D01*
X137525297Y-72168559D01*
X137525294Y-72168561D01*
X137520786Y-72171718D01*
X137365075Y-72327429D01*
X137361918Y-72331937D01*
X137361916Y-72331940D01*
X137241925Y-72503305D01*
X137238768Y-72507814D01*
X137236445Y-72512796D01*
X137236442Y-72512801D01*
X137182256Y-72629005D01*
X137145704Y-72707391D01*
X137144282Y-72712697D01*
X137144279Y-72712706D01*
X137139123Y-72731951D01*
X137102173Y-72792575D01*
X137038312Y-72823597D01*
X136969622Y-72814276D01*
X136969225Y-72815367D01*
X136964209Y-72813541D01*
X136964163Y-72813535D01*
X136964060Y-72813487D01*
X136964056Y-72813486D01*
X136959071Y-72811161D01*
X136746366Y-72754166D01*
X136526995Y-72734974D01*
X136307624Y-72754166D01*
X136094919Y-72811161D01*
X136037440Y-72837964D01*
X135900329Y-72901899D01*
X135900324Y-72901902D01*
X135895342Y-72904225D01*
X135890835Y-72907381D01*
X135890833Y-72907382D01*
X135719468Y-73027373D01*
X135719465Y-73027375D01*
X135714957Y-73030532D01*
X135559246Y-73186243D01*
X135556089Y-73190751D01*
X135556087Y-73190754D01*
X135527287Y-73231885D01*
X135432939Y-73366628D01*
X135430616Y-73371610D01*
X135430613Y-73371615D01*
X135406017Y-73424362D01*
X135339875Y-73566205D01*
X135338452Y-73571517D01*
X135338448Y-73571527D01*
X135307940Y-73685382D01*
X135270989Y-73746004D01*
X135207128Y-73777026D01*
X135153622Y-73774476D01*
X135008676Y-73735637D01*
X135008667Y-73735636D01*
X135003355Y-73734212D01*
X134783984Y-73715020D01*
X134564613Y-73734212D01*
X134351908Y-73791207D01*
X134258546Y-73834742D01*
X134157318Y-73881945D01*
X134157313Y-73881948D01*
X134152331Y-73884271D01*
X134147824Y-73887427D01*
X134147822Y-73887428D01*
X133976457Y-74007419D01*
X133976454Y-74007421D01*
X133971946Y-74010578D01*
X133816235Y-74166289D01*
X133813078Y-74170797D01*
X133813076Y-74170800D01*
X133693085Y-74342165D01*
X133689928Y-74346674D01*
X133687605Y-74351656D01*
X133687602Y-74351661D01*
X133648583Y-74435339D01*
X133596864Y-74546251D01*
X133595441Y-74551563D01*
X133595437Y-74551573D01*
X133540515Y-74756540D01*
X133503564Y-74817162D01*
X133439703Y-74848184D01*
X133386200Y-74845635D01*
X133331287Y-74830921D01*
X133111916Y-74811729D01*
X132892545Y-74830921D01*
X132679840Y-74887916D01*
X132586478Y-74931451D01*
X132485250Y-74978654D01*
X132485245Y-74978657D01*
X132480263Y-74980980D01*
X132475756Y-74984136D01*
X132475754Y-74984137D01*
X132304389Y-75104128D01*
X132304386Y-75104130D01*
X132299878Y-75107287D01*
X132144167Y-75262998D01*
X132141010Y-75267506D01*
X132141008Y-75267509D01*
X132044679Y-75405081D01*
X132017860Y-75443383D01*
X132015537Y-75448365D01*
X132015534Y-75448370D01*
X131968331Y-75549598D01*
X131924796Y-75642960D01*
X131867801Y-75855665D01*
X131867322Y-75861141D01*
X131861863Y-75923538D01*
X131836000Y-75989656D01*
X131778496Y-76031295D01*
X131725362Y-76038077D01*
X131518589Y-76019987D01*
X131299218Y-76039179D01*
X131086513Y-76096174D01*
X130993151Y-76139709D01*
X130891923Y-76186912D01*
X130891918Y-76186915D01*
X130886936Y-76189238D01*
X130882429Y-76192394D01*
X130882427Y-76192395D01*
X130711062Y-76312386D01*
X130711059Y-76312388D01*
X130706551Y-76315545D01*
X130550840Y-76471256D01*
X130547683Y-76475764D01*
X130547681Y-76475767D01*
X130505469Y-76536052D01*
X130424533Y-76651641D01*
X130422210Y-76656623D01*
X130422207Y-76656628D01*
X130401189Y-76701702D01*
X130331469Y-76851218D01*
X130274474Y-77063923D01*
X130263368Y-77190876D01*
X130259995Y-77229425D01*
X130234132Y-77295544D01*
X130176628Y-77337183D01*
X130123493Y-77343965D01*
X130011431Y-77334161D01*
X129792060Y-77353353D01*
X129579355Y-77410348D01*
X129526935Y-77434792D01*
X129384765Y-77501086D01*
X129384760Y-77501089D01*
X129379778Y-77503412D01*
X129375271Y-77506568D01*
X129375269Y-77506569D01*
X129203904Y-77626560D01*
X129203901Y-77626562D01*
X129199393Y-77629719D01*
X129043682Y-77785430D01*
X129040525Y-77789938D01*
X129040523Y-77789941D01*
X128933544Y-77942723D01*
X128917375Y-77965815D01*
X128915052Y-77970797D01*
X128915049Y-77970802D01*
X128867846Y-78072030D01*
X128824311Y-78165392D01*
X128767316Y-78378097D01*
X128748124Y-78597468D01*
X128748603Y-78602943D01*
X128749481Y-78612979D01*
X128735492Y-78682583D01*
X128686092Y-78733576D01*
X128612979Y-78749481D01*
X128602943Y-78748603D01*
X128597468Y-78748124D01*
X128378097Y-78767316D01*
X128165392Y-78824311D01*
X128072030Y-78867846D01*
X127970802Y-78915049D01*
X127970797Y-78915052D01*
X127965815Y-78917375D01*
X127961308Y-78920531D01*
X127961306Y-78920532D01*
X127789941Y-79040523D01*
X127789938Y-79040525D01*
X127785430Y-79043682D01*
X127629719Y-79199393D01*
X127503412Y-79379778D01*
X127501089Y-79384760D01*
X127501086Y-79384765D01*
X127487732Y-79413403D01*
X127410348Y-79579355D01*
X127353353Y-79792060D01*
X127334161Y-80011431D01*
X127334640Y-80016906D01*
X127343965Y-80123493D01*
X127329976Y-80193097D01*
X127280576Y-80244090D01*
X127229426Y-80259995D01*
X127063923Y-80274474D01*
X126851218Y-80331469D01*
X126757856Y-80375004D01*
X126656628Y-80422207D01*
X126656623Y-80422210D01*
X126651641Y-80424533D01*
X126647134Y-80427689D01*
X126647132Y-80427690D01*
X126475767Y-80547681D01*
X126475764Y-80547683D01*
X126471256Y-80550840D01*
X126315545Y-80706551D01*
X126312388Y-80711059D01*
X126312386Y-80711062D01*
X126233678Y-80823469D01*
X126189238Y-80886936D01*
X126186915Y-80891918D01*
X126186912Y-80891923D01*
X126148041Y-80975283D01*
X126096174Y-81086513D01*
X126039179Y-81299218D01*
X126019987Y-81518589D01*
X126030479Y-81638509D01*
X126038077Y-81725361D01*
X126024088Y-81794965D01*
X125974688Y-81845958D01*
X125923538Y-81861863D01*
X125882963Y-81865413D01*
X125855665Y-81867801D01*
X125642960Y-81924796D01*
X125587484Y-81950665D01*
X125448370Y-82015534D01*
X125448365Y-82015537D01*
X125443383Y-82017860D01*
X125438876Y-82021016D01*
X125438874Y-82021017D01*
X125267509Y-82141008D01*
X125267506Y-82141010D01*
X125262998Y-82144167D01*
X125107287Y-82299878D01*
X125104130Y-82304386D01*
X125104128Y-82304389D01*
X124984137Y-82475754D01*
X124980980Y-82480263D01*
X124978657Y-82485245D01*
X124978654Y-82485250D01*
X124958636Y-82528179D01*
X124887916Y-82679840D01*
X124830921Y-82892545D01*
X124811729Y-83111916D01*
X124830921Y-83331287D01*
X124836851Y-83353416D01*
X124845635Y-83386198D01*
X124843945Y-83457174D01*
X124804151Y-83515970D01*
X124756540Y-83540515D01*
X124551573Y-83595437D01*
X124551563Y-83595441D01*
X124546251Y-83596864D01*
X124452889Y-83640399D01*
X124351661Y-83687602D01*
X124351656Y-83687605D01*
X124346674Y-83689928D01*
X124342167Y-83693084D01*
X124342165Y-83693085D01*
X124170800Y-83813076D01*
X124170797Y-83813078D01*
X124166289Y-83816235D01*
X124010578Y-83971946D01*
X124007421Y-83976454D01*
X124007419Y-83976457D01*
X123937881Y-84075768D01*
X123884271Y-84152331D01*
X123881948Y-84157313D01*
X123881945Y-84157318D01*
X123834742Y-84258546D01*
X123791207Y-84351908D01*
X123734212Y-84564613D01*
X123715020Y-84783984D01*
X123734212Y-85003355D01*
X123735635Y-85008665D01*
X123735637Y-85008676D01*
X123774476Y-85153622D01*
X123772787Y-85224598D01*
X123732994Y-85283395D01*
X123685382Y-85307940D01*
X123571527Y-85338448D01*
X123571517Y-85338452D01*
X123566205Y-85339875D01*
X123472843Y-85383410D01*
X123371615Y-85430613D01*
X123371610Y-85430616D01*
X123366628Y-85432939D01*
X123362121Y-85436095D01*
X123362119Y-85436096D01*
X123190754Y-85556087D01*
X123190751Y-85556089D01*
X123186243Y-85559246D01*
X123030532Y-85714957D01*
X123027375Y-85719465D01*
X123027373Y-85719468D01*
X122916340Y-85878040D01*
X122904225Y-85895342D01*
X122901902Y-85900324D01*
X122901899Y-85900329D01*
X122869981Y-85968779D01*
X122811161Y-86094919D01*
X122754166Y-86307624D01*
X122734974Y-86526995D01*
X122754166Y-86746366D01*
X122811161Y-86959071D01*
X122813486Y-86964056D01*
X122813487Y-86964060D01*
X122813535Y-86964163D01*
X122813543Y-86964213D01*
X122815367Y-86969225D01*
X122814360Y-86969592D01*
X122824198Y-87034354D01*
X122795220Y-87099168D01*
X122731955Y-87139122D01*
X122707391Y-87145704D01*
X122669963Y-87163157D01*
X122512801Y-87236442D01*
X122512796Y-87236445D01*
X122507814Y-87238768D01*
X122503307Y-87241924D01*
X122503305Y-87241925D01*
X122331940Y-87361916D01*
X122331937Y-87361918D01*
X122327429Y-87365075D01*
X122171718Y-87520786D01*
X122168561Y-87525294D01*
X122168559Y-87525297D01*
X122048568Y-87696662D01*
X122045411Y-87701171D01*
X122043088Y-87706153D01*
X122043085Y-87706158D01*
X122019075Y-87757649D01*
X121952347Y-87900748D01*
X121895352Y-88113453D01*
X121876160Y-88332824D01*
X121895352Y-88552195D01*
X121952347Y-88764900D01*
X121954670Y-88769882D01*
X121954673Y-88769890D01*
X121995250Y-88856908D01*
X122005911Y-88927099D01*
X121976931Y-88991912D01*
X121934305Y-89024352D01*
X121779222Y-89096668D01*
X121779217Y-89096671D01*
X121774235Y-89098994D01*
X121769728Y-89102150D01*
X121769726Y-89102151D01*
X121598361Y-89222142D01*
X121598358Y-89222144D01*
X121593850Y-89225301D01*
X121438139Y-89381012D01*
X121434982Y-89385520D01*
X121434980Y-89385523D01*
X121331042Y-89533962D01*
X121311832Y-89561397D01*
X121309509Y-89566379D01*
X121309506Y-89566384D01*
X121294402Y-89598775D01*
X121218768Y-89760974D01*
X121161773Y-89973679D01*
X121142581Y-90193050D01*
X121161773Y-90412421D01*
X121218768Y-90625126D01*
X121221093Y-90630111D01*
X121302164Y-90803970D01*
X121312825Y-90874162D01*
X121283845Y-90938975D01*
X121241219Y-90971415D01*
X121174301Y-91002619D01*
X121174296Y-91002622D01*
X121169314Y-91004945D01*
X121164807Y-91008101D01*
X121164805Y-91008102D01*
X120993440Y-91128093D01*
X120993437Y-91128095D01*
X120988929Y-91131252D01*
X120833218Y-91286963D01*
X120830061Y-91291471D01*
X120830059Y-91291474D01*
X120728980Y-91435830D01*
X120706911Y-91467348D01*
X120704588Y-91472330D01*
X120704585Y-91472335D01*
X120697243Y-91488081D01*
X120613847Y-91666925D01*
X120556852Y-91879630D01*
X120537660Y-92099001D01*
X120556852Y-92318372D01*
X120613847Y-92531077D01*
X120616172Y-92536062D01*
X120704586Y-92725667D01*
X120706911Y-92730654D01*
X120728455Y-92761422D01*
X120733382Y-92768459D01*
X120756069Y-92835733D01*
X120738783Y-92904593D01*
X120695635Y-92947400D01*
X120695869Y-92947734D01*
X120580597Y-93028448D01*
X120519995Y-93070882D01*
X120519992Y-93070884D01*
X120515484Y-93074041D01*
X120359773Y-93229752D01*
X120356616Y-93234260D01*
X120356614Y-93234263D01*
X120345335Y-93250371D01*
X120233466Y-93410137D01*
X120231143Y-93415118D01*
X120231140Y-93415124D01*
X120189451Y-93504527D01*
X120140402Y-93609714D01*
X120083407Y-93822419D01*
X120064215Y-94041790D01*
X120083407Y-94261161D01*
X120140402Y-94473866D01*
X120142727Y-94478851D01*
X120231140Y-94668456D01*
X120231143Y-94668461D01*
X120233466Y-94673443D01*
X120316590Y-94792156D01*
X120339278Y-94859430D01*
X120321993Y-94928291D01*
X120285648Y-94967640D01*
X120180235Y-95041451D01*
X120180232Y-95041453D01*
X120175724Y-95044610D01*
X120020013Y-95200321D01*
X120016856Y-95204829D01*
X120016854Y-95204832D01*
X119896863Y-95376197D01*
X119896862Y-95376199D01*
X119893706Y-95380706D01*
X119891383Y-95385688D01*
X119891380Y-95385693D01*
X119844177Y-95486921D01*
X119800642Y-95580283D01*
X119743647Y-95792988D01*
X119724455Y-96012359D01*
X119743647Y-96231730D01*
X119800642Y-96444435D01*
X119802967Y-96449420D01*
X119891380Y-96639025D01*
X119891383Y-96639030D01*
X119893706Y-96644012D01*
X120020013Y-96824397D01*
X120023905Y-96828289D01*
X120024630Y-96829153D01*
X120053097Y-96894192D01*
X120041882Y-96964297D01*
X120000382Y-97013360D01*
X119971232Y-97033771D01*
X119815521Y-97189482D01*
X119812367Y-97193987D01*
X119812362Y-97193993D01*
X119692371Y-97365358D01*
X119689214Y-97369867D01*
X119686891Y-97374849D01*
X119686888Y-97374854D01*
X119639685Y-97476082D01*
X119596150Y-97569444D01*
X119539155Y-97782149D01*
X119519963Y-98001520D01*
X119539155Y-98220891D01*
X119596150Y-98433596D01*
X119598475Y-98438581D01*
X119686888Y-98628186D01*
X119686891Y-98628191D01*
X119689214Y-98633173D01*
X119815521Y-98813558D01*
X119879493Y-98877530D01*
X119913519Y-98939842D01*
X119908454Y-99010657D01*
X119879493Y-99055720D01*
X119747251Y-99187962D01*
X119620944Y-99368347D01*
X119618621Y-99373329D01*
X119618618Y-99373334D01*
X119571415Y-99474562D01*
X119527880Y-99567924D01*
X119470885Y-99780629D01*
X119451693Y-100000000D01*
X118758538Y-100000000D01*
X118758538Y-99997801D01*
X118758596Y-99994525D01*
X118775813Y-99008113D01*
X118777493Y-98911871D01*
X118777647Y-98907476D01*
X118834487Y-97822924D01*
X118834793Y-97818536D01*
X118929453Y-96736557D01*
X118929913Y-96732183D01*
X119062272Y-95654208D01*
X119062884Y-95649853D01*
X119160976Y-95030522D01*
X119232790Y-94577110D01*
X119233550Y-94572802D01*
X119251813Y-94478851D01*
X119440782Y-93506686D01*
X119441694Y-93502395D01*
X119461844Y-93415118D01*
X119686012Y-92444137D01*
X119687076Y-92439870D01*
X119838615Y-91874320D01*
X119968180Y-91390775D01*
X119969391Y-91386556D01*
X119971344Y-91380170D01*
X120142691Y-90819716D01*
X120286924Y-90347953D01*
X120288283Y-90343770D01*
X120641878Y-89316855D01*
X120643382Y-89312723D01*
X121032592Y-88298797D01*
X121034239Y-88294719D01*
X121280087Y-87715537D01*
X121458617Y-87294946D01*
X121460400Y-87290942D01*
X121484729Y-87238768D01*
X121919411Y-86306591D01*
X121921309Y-86302699D01*
X122414399Y-85334955D01*
X122416464Y-85331072D01*
X122681357Y-84853192D01*
X122943009Y-84381159D01*
X122945198Y-84377367D01*
X122951452Y-84366960D01*
X123504585Y-83446391D01*
X123506906Y-83442677D01*
X123508838Y-83439703D01*
X123890491Y-82852009D01*
X124098422Y-82531825D01*
X124100881Y-82528179D01*
X124578577Y-81845958D01*
X124723840Y-81638500D01*
X124726419Y-81634951D01*
X124809979Y-81524064D01*
X125380052Y-80767551D01*
X125382758Y-80764088D01*
X126066240Y-79920059D01*
X126069067Y-79916690D01*
X126781578Y-79097039D01*
X126784520Y-79093770D01*
X127525267Y-78299417D01*
X127528323Y-78296254D01*
X128296254Y-77528323D01*
X128299417Y-77525267D01*
X129093770Y-76784520D01*
X129097039Y-76781578D01*
X129916690Y-76069067D01*
X129920059Y-76066240D01*
X130683064Y-75448370D01*
X130764090Y-75382756D01*
X130767553Y-75380050D01*
X130819300Y-75341056D01*
X131634960Y-74726413D01*
X131638509Y-74723834D01*
X131706081Y-74676520D01*
X132050523Y-74435339D01*
X132528179Y-74100881D01*
X132531825Y-74098422D01*
X133055011Y-73758660D01*
X133442694Y-73506896D01*
X133446391Y-73504585D01*
X134377385Y-72945188D01*
X134381159Y-72943009D01*
X135298206Y-72434682D01*
X135331072Y-72416464D01*
X135334955Y-72414399D01*
X135533039Y-72313470D01*
X136302699Y-71921309D01*
X136306591Y-71919411D01*
X137290955Y-71460394D01*
X137294946Y-71458617D01*
X138001912Y-71158528D01*
X138294719Y-71034239D01*
X138298797Y-71032592D01*
X139312723Y-70643382D01*
X139316855Y-70641878D01*
X140343770Y-70288283D01*
X140347953Y-70286924D01*
X141013627Y-70083407D01*
X141386564Y-69969389D01*
X141390775Y-69968180D01*
X142223434Y-69745070D01*
X142439870Y-69687076D01*
X142444137Y-69686012D01*
X142839536Y-69594727D01*
X143502406Y-69441692D01*
X143506686Y-69440782D01*
X144572825Y-69233546D01*
X144577110Y-69232790D01*
X145369203Y-69107335D01*
X145649853Y-69062884D01*
X145654208Y-69062272D01*
X146732183Y-68929913D01*
X146736557Y-68929453D01*
X147818536Y-68834793D01*
X147822924Y-68834487D01*
X148907476Y-68777647D01*
X148911871Y-68777493D01*
X149172553Y-68772943D01*
X149997823Y-68758538D01*
X150002177Y-68758538D01*
X150827447Y-68772943D01*
G37*
%TD.AperFunction*%
M02*
